{"glyphs":{"0":{"ha":749,"x_min":58,"x_max":692,"o":"m 365 -16 q 139 108 220 -16 q 58 467 58 232 q 143 857 58 724 q 387 989 227 989 q 692 490 692 989 q 606 114 692 243 q 365 -16 519 -16 m 380 895 q 172 472 172 895 q 376 77 172 77 q 578 479 578 77 q 380 895 578 895 z "},"1":{"ha":749,"x_min":114,"x_max":669,"o":"m 669 0 l 119 0 l 119 98 l 339 98 l 339 853 l 114 786 l 114 892 l 450 994 l 450 98 l 669 98 l 669 0 z "},"2":{"ha":749,"x_min":65,"x_max":660,"o":"m 651 0 l 65 0 l 65 99 l 349 383 q 504 564 457 492 q 550 718 550 636 q 502 848 550 802 q 365 895 454 895 q 115 783 235 895 l 115 900 q 380 989 229 989 q 585 918 511 989 q 660 729 660 848 q 608 546 660 635 q 423 325 557 457 l 199 103 l 199 100 l 651 100 l 651 0 z "},"3":{"ha":749,"x_min":89,"x_max":651,"o":"m 89 36 l 89 156 q 314 77 189 77 q 476 128 416 77 q 537 265 537 179 q 267 456 537 456 l 186 456 l 186 550 l 262 550 q 503 729 503 550 q 319 895 503 895 q 126 825 217 895 l 126 933 q 347 989 220 989 q 544 924 470 989 q 617 757 617 859 q 422 510 617 565 l 422 507 q 589 434 527 497 q 651 275 651 370 q 557 64 651 144 q 309 -16 463 -16 q 89 36 171 -16 z "},"4":{"ha":749,"x_min":9,"x_max":701,"o":"m 701 258 l 576 258 l 576 0 l 467 0 l 467 258 l 9 258 l 9 331 l 442 972 l 576 972 l 576 349 l 701 349 l 701 258 m 467 349 l 467 769 q 469 869 467 814 l 467 869 q 429 795 457 845 l 130 349 l 467 349 z "},"5":{"ha":749,"x_min":111,"x_max":656,"o":"m 111 24 l 111 142 q 314 77 211 77 q 480 136 417 77 q 543 290 543 194 q 479 439 543 386 q 294 493 414 493 q 142 485 254 493 l 142 972 l 612 972 l 612 872 l 247 872 l 247 587 q 330 590 292 590 q 571 512 486 590 q 656 297 656 433 q 565 70 656 156 q 313 -16 473 -16 q 111 24 178 -16 z "},"6":{"ha":749,"x_min":75,"x_max":693,"o":"m 633 961 l 633 856 q 475 895 558 895 q 268 779 345 895 q 190 471 190 664 l 193 471 q 415 608 260 608 q 618 527 543 608 q 693 308 693 445 q 607 74 693 165 q 388 -16 521 -16 q 158 100 241 -16 q 75 428 75 217 q 184 836 75 684 q 472 989 293 989 q 633 961 574 989 m 391 514 q 251 456 304 514 q 197 318 197 397 q 251 148 197 218 q 392 77 304 77 q 528 139 476 77 q 579 294 579 200 q 530 456 579 397 q 391 514 480 514 z "},"7":{"ha":749,"x_min":58,"x_max":685,"o":"m 685 937 l 300 0 l 184 0 l 549 872 l 58 872 l 58 972 l 685 972 l 685 937 z "},"8":{"ha":749,"x_min":68,"x_max":682,"o":"m 278 510 l 278 513 q 103 749 103 594 q 183 921 103 854 q 389 989 263 989 q 576 926 503 989 q 650 764 650 863 q 469 513 650 602 l 469 510 q 682 247 682 434 q 595 55 682 126 q 354 -16 509 -16 q 149 54 229 -16 q 68 237 68 125 q 278 510 68 425 m 536 750 q 494 856 536 817 q 379 895 452 895 q 264 854 311 895 q 217 751 217 814 q 375 560 217 625 q 536 750 536 627 m 368 457 q 182 243 182 383 q 236 124 182 170 q 378 77 290 77 q 515 123 462 77 q 568 239 568 169 q 368 457 568 385 z "},"9":{"ha":749,"x_min":64,"x_max":681,"o":"m 117 16 l 117 123 q 289 77 198 77 q 495 184 421 77 q 568 486 568 290 q 566 486 567 486 q 349 361 503 361 q 144 446 224 361 q 64 664 64 530 q 152 898 64 806 q 376 989 239 989 q 601 875 520 989 q 681 545 681 762 q 576 130 681 275 q 286 -16 472 -16 q 117 16 189 -16 m 366 895 q 232 834 286 895 q 178 680 178 773 q 231 518 178 577 q 374 460 283 460 q 507 513 452 460 q 562 644 562 567 q 507 825 562 755 q 366 895 453 895 z "},"\t":{"ha":380,"x_min":0,"x_max":0,"o":""},"!":{"ha":395,"x_min":122,"x_max":273,"o":"m 254 972 l 241 274 l 150 274 l 138 972 l 254 972 m 197 -12 q 144 9 166 -12 q 122 62 122 31 q 144 116 122 94 q 197 138 166 138 q 250 116 228 138 q 273 62 273 94 q 250 9 273 31 q 197 -12 228 -12 z "},"\"":{"ha":545,"x_min":100,"x_max":444,"o":"m 219 972 l 199 669 l 121 669 l 100 972 l 219 972 m 444 972 l 424 669 l 346 669 l 326 972 l 444 972 z "},"#":{"ha":821,"x_min":22,"x_max":791,"o":"m 791 700 l 775 628 l 598 628 l 555 425 l 746 425 l 728 353 l 541 353 l 481 83 l 396 83 l 454 353 l 285 353 l 228 83 l 143 83 l 200 353 l 22 353 l 36 425 l 216 425 l 257 628 l 69 628 l 83 700 l 271 700 l 328 972 l 414 972 l 357 700 l 528 700 l 586 972 l 669 972 l 612 700 l 791 700 m 514 628 l 343 628 l 298 425 l 471 425 l 514 628 z "},"$":{"ha":749,"x_min":110,"x_max":663,"o":"m 418 5 l 418 -142 l 347 -142 l 347 0 q 113 58 203 0 l 113 176 q 220 118 152 142 q 347 95 288 95 l 347 442 q 154 575 198 514 q 110 718 110 635 q 177 888 110 817 q 347 974 244 960 l 347 1096 l 418 1096 l 418 977 q 602 939 551 972 l 602 823 q 418 882 532 878 l 418 524 q 611 394 559 456 q 663 251 663 331 q 598 89 663 155 q 418 5 533 24 m 347 562 l 347 878 q 257 827 290 866 q 224 732 224 788 q 251 637 224 674 q 347 562 278 600 m 418 407 l 418 100 q 549 241 549 129 q 418 407 549 335 z "},"%":{"ha":1137,"x_min":54,"x_max":1085,"o":"m 274 485 q 114 551 174 485 q 54 728 54 617 q 117 918 54 848 q 288 987 180 987 q 449 923 391 987 q 506 742 506 859 q 442 555 506 625 q 274 485 378 485 m 283 913 q 182 865 219 913 q 144 734 144 817 q 181 606 144 652 q 281 560 218 560 q 380 608 345 560 q 416 739 416 655 q 381 867 416 821 q 283 913 345 913 m 925 972 l 301 -7 l 204 -7 l 827 972 l 925 972 m 853 -15 q 693 52 753 -15 q 633 228 633 118 q 697 419 633 349 q 867 489 761 489 q 1027 424 970 489 q 1085 241 1085 359 q 1021 55 1085 125 q 853 -15 957 -15 m 863 412 q 761 365 798 412 q 724 233 724 317 q 760 107 724 153 q 860 61 797 61 q 960 109 924 61 q 996 240 996 157 q 960 368 996 323 q 863 412 924 412 z "},"&":{"ha":1112,"x_min":81,"x_max":1084,"o":"m 980 -16 q 912 -5 941 -16 q 857 25 882 5 q 809 72 832 44 q 760 135 785 100 q 697 79 732 106 q 618 31 661 52 q 523 -3 574 9 q 411 -16 471 -16 q 277 3 338 -16 q 172 57 216 21 q 105 144 129 92 q 81 264 81 197 q 140 442 81 368 q 307 562 199 515 q 266 597 286 577 q 230 643 245 617 q 204 699 214 668 q 194 766 194 730 q 213 861 194 820 q 267 931 233 903 q 347 974 300 960 q 446 989 393 989 q 543 974 499 989 q 618 932 587 960 q 667 867 650 905 q 685 783 685 829 q 638 647 685 701 q 499 555 592 593 q 584 511 546 537 q 654 452 622 484 q 714 382 686 419 q 769 304 742 345 q 852 473 824 381 q 880 667 880 566 q 877 715 880 692 q 868 760 873 738 l 976 760 q 982 718 981 738 q 985 670 983 698 q 972 546 985 608 q 937 425 959 484 q 887 313 916 366 q 826 216 858 260 q 869 160 850 184 q 909 119 889 136 q 950 95 929 103 q 999 87 972 87 q 1040 93 1019 87 q 1084 106 1061 98 l 1084 3 q 1033 -11 1059 -6 q 980 -16 1006 -16 m 411 81 q 506 92 463 81 q 586 122 549 103 q 652 165 623 140 q 707 217 682 190 q 630 327 665 281 q 560 406 595 373 q 484 463 524 439 q 391 507 444 487 q 312 470 348 490 q 250 421 276 449 q 209 355 224 393 q 194 268 194 318 q 211 186 194 222 q 257 128 228 151 q 326 93 287 104 q 411 81 366 81 m 581 773 q 568 831 581 807 q 536 870 555 854 q 493 893 517 886 q 446 900 469 900 q 340 864 380 900 q 300 766 300 828 q 308 714 300 739 q 332 669 317 690 q 368 631 347 648 q 411 604 388 615 q 538 673 496 633 q 581 773 581 713 z "},"'":{"ha":319,"x_min":100,"x_max":219,"o":"m 219 972 l 199 669 l 121 669 l 100 972 l 219 972 z "},"(":{"ha":419,"x_min":95,"x_max":406,"o":"m 404 -221 l 305 -221 q 95 371 95 19 q 305 972 95 724 l 406 972 q 193 372 193 715 q 404 -221 193 33 z "},")":{"ha":419,"x_min":15,"x_max":327,"o":"m 115 -221 l 16 -221 q 228 372 228 33 q 15 972 228 715 l 115 972 q 327 371 327 724 q 115 -221 327 19 z "},"*":{"ha":579,"x_min":52,"x_max":529,"o":"m 529 749 l 343 711 l 472 546 l 397 494 l 292 674 l 184 494 l 110 546 l 239 711 l 52 749 l 82 833 l 260 766 l 244 972 l 338 972 l 322 766 l 500 833 l 529 749 z "},"+":{"ha":950,"x_min":157,"x_max":795,"o":"m 795 359 l 521 359 l 521 86 l 431 86 l 431 359 l 157 359 l 157 450 l 431 450 l 431 724 l 521 724 l 521 450 l 795 450 l 795 359 z "},",":{"ha":301,"x_min":26,"x_max":214,"o":"m 214 155 l 106 -179 l 26 -179 l 106 155 l 214 155 z "},"-":{"ha":555,"x_min":98,"x_max":468,"o":"m 468 343 l 98 343 l 98 431 l 468 431 l 468 343 z "},".":{"ha":301,"x_min":76,"x_max":228,"o":"m 151 -15 q 98 7 120 -15 q 76 61 76 30 q 98 115 76 92 q 151 138 120 138 q 205 115 183 138 q 228 61 228 92 q 205 7 228 30 q 151 -15 183 -15 z "},"/":{"ha":541,"x_min":-19,"x_max":551,"o":"m 551 972 l 85 -161 l -19 -161 l 446 972 l 551 972 z "},":":{"ha":301,"x_min":76,"x_max":228,"o":"m 151 559 q 98 581 120 559 q 76 635 76 604 q 98 688 76 666 q 151 709 120 709 q 205 688 183 709 q 228 635 228 666 q 205 581 228 604 q 151 559 183 559 m 151 -15 q 98 7 120 -15 q 76 61 76 30 q 98 115 76 92 q 151 138 120 138 q 205 115 183 138 q 228 61 228 92 q 205 7 228 30 q 151 -15 183 -15 z "},";":{"ha":301,"x_min":26,"x_max":229,"o":"m 153 559 q 99 581 121 559 q 77 635 77 604 q 99 688 77 666 q 153 709 121 709 q 207 688 184 709 q 229 635 229 666 q 207 581 229 604 q 153 559 184 559 m 214 155 l 106 -179 l 26 -179 l 106 155 l 214 155 z "},"<":{"ha":950,"x_min":184,"x_max":768,"o":"m 768 86 l 184 379 l 184 419 l 768 746 l 768 644 l 332 403 l 332 400 l 768 187 l 768 86 z "},"=":{"ha":950,"x_min":157,"x_max":795,"o":"m 795 505 l 157 505 l 157 594 l 795 594 l 795 505 m 795 216 l 157 216 l 157 305 l 795 305 l 795 216 z "},">":{"ha":950,"x_min":184,"x_max":768,"o":"m 768 379 l 184 86 l 184 187 l 621 399 l 621 403 l 184 644 l 184 746 l 768 419 l 768 379 z "},"?":{"ha":623,"x_min":89,"x_max":554,"o":"m 227 270 q 216 316 221 288 q 212 372 212 344 q 229 450 212 415 q 272 515 246 485 q 328 574 298 546 q 385 631 359 602 q 428 691 410 660 q 445 761 445 723 q 432 819 445 793 q 398 861 420 844 q 348 886 376 878 q 288 895 319 895 q 89 804 173 895 l 89 924 q 304 989 193 989 q 401 975 355 989 q 480 935 446 962 q 534 868 515 908 q 554 775 554 828 q 536 686 554 725 q 492 613 519 646 q 434 552 465 581 q 376 495 403 524 q 332 437 349 467 q 314 370 314 406 q 321 313 314 338 q 336 270 329 288 l 227 270 m 288 -12 q 235 9 258 -12 q 213 62 213 31 q 235 115 213 94 q 288 138 258 138 q 341 115 319 138 q 363 62 363 94 q 341 9 363 31 q 288 -12 318 -12 z "},"@":{"ha":1326,"x_min":117,"x_max":1213,"o":"m 789 285 l 786 285 q 591 123 736 123 q 442 192 498 123 q 385 376 385 260 q 464 631 385 530 q 669 732 542 732 q 756 707 718 732 q 806 644 795 682 l 808 644 q 815 722 810 663 l 900 722 q 868 342 868 349 q 949 201 868 201 q 1070 281 1022 201 q 1119 486 1119 360 q 1001 791 1119 673 q 674 909 883 909 q 341 768 473 909 q 210 415 210 627 q 335 79 210 207 q 672 -49 460 -49 q 958 7 840 -49 l 958 -77 q 665 -127 841 -127 q 268 21 418 -127 q 117 411 117 170 q 275 823 117 659 q 680 986 433 986 q 1061 849 910 986 q 1213 492 1213 712 q 1133 227 1213 330 q 939 123 1053 123 q 789 285 790 123 m 668 654 q 532 574 584 654 q 480 375 480 494 q 515 249 480 295 q 608 203 550 203 q 742 287 692 203 q 791 509 791 370 q 668 654 791 654 z "},"A":{"ha":896,"x_min":15,"x_max":880,"o":"m 880 0 l 754 0 l 651 273 l 239 273 l 142 0 l 15 0 l 388 972 l 506 972 l 880 0 m 614 375 l 461 789 q 446 854 454 810 l 444 854 q 428 789 437 813 l 277 375 l 614 375 z "},"B":{"ha":796,"x_min":127,"x_max":726,"o":"m 127 0 l 127 972 l 404 972 q 604 911 530 972 q 678 750 678 849 q 633 606 678 667 q 510 519 589 545 l 510 517 q 667 443 608 505 q 726 279 726 380 q 637 77 726 155 q 411 0 547 0 l 127 0 m 241 869 l 241 555 l 358 555 q 505 601 452 555 q 559 728 559 646 q 372 869 559 869 l 241 869 m 241 453 l 241 103 l 396 103 q 552 151 496 103 q 607 281 607 198 q 372 453 607 453 l 241 453 z "},"C":{"ha":860,"x_min":64,"x_max":789,"o":"m 789 41 q 521 -16 682 -16 q 189 117 313 -16 q 64 468 64 251 q 204 845 64 701 q 560 989 345 989 q 789 949 699 989 l 789 827 q 559 886 685 886 q 287 774 391 886 q 183 475 183 662 q 280 192 183 297 q 536 86 378 86 q 789 151 682 86 l 789 41 z "},"D":{"ha":974,"x_min":127,"x_max":910,"o":"m 127 0 l 127 972 l 396 972 q 910 498 910 972 q 767 137 910 273 q 385 0 625 0 l 127 0 m 241 869 l 241 103 l 387 103 q 684 205 578 103 q 791 496 791 308 q 393 869 791 869 l 241 869 z "},"E":{"ha":703,"x_min":127,"x_max":643,"o":"m 643 0 l 127 0 l 127 972 l 621 972 l 621 869 l 241 869 l 241 546 l 593 546 l 593 444 l 241 444 l 241 103 l 643 103 l 643 0 z "},"F":{"ha":678,"x_min":127,"x_max":621,"o":"m 621 869 l 241 869 l 241 533 l 593 533 l 593 431 l 241 431 l 241 0 l 127 0 l 127 972 l 621 972 l 621 869 z "},"G":{"ha":953,"x_min":64,"x_max":854,"o":"m 854 66 q 529 -16 708 -16 q 192 118 321 -16 q 64 473 64 252 q 207 844 64 699 q 568 989 349 989 q 835 937 727 989 l 835 811 q 555 886 717 886 q 288 773 392 886 q 183 481 183 661 q 280 192 183 297 q 543 86 377 86 q 741 132 657 86 l 741 404 l 528 404 l 528 507 l 854 507 l 854 66 z "},"H":{"ha":986,"x_min":127,"x_max":859,"o":"m 859 0 l 745 0 l 745 444 l 241 444 l 241 0 l 127 0 l 127 972 l 241 972 l 241 546 l 745 546 l 745 972 l 859 972 l 859 0 z "},"I":{"ha":370,"x_min":33,"x_max":336,"o":"m 336 972 l 336 875 l 241 875 l 241 98 l 336 98 l 336 0 l 33 0 l 33 98 l 127 98 l 127 875 l 33 875 l 33 972 l 336 972 z "},"J":{"ha":496,"x_min":14,"x_max":376,"o":"m 376 349 q 303 80 376 176 q 107 -16 230 -16 q 14 0 50 -16 l 14 113 q 109 86 50 86 q 262 347 262 86 l 262 972 l 376 972 l 376 349 z "},"K":{"ha":806,"x_min":127,"x_max":804,"o":"m 804 0 l 646 0 l 270 445 q 244 479 249 470 l 241 479 l 241 0 l 127 0 l 127 972 l 241 972 l 241 515 l 244 515 q 270 549 254 530 l 633 972 l 775 972 l 358 506 l 804 0 z "},"L":{"ha":654,"x_min":127,"x_max":632,"o":"m 632 0 l 127 0 l 127 972 l 241 972 l 241 103 l 632 103 l 632 0 z "},"M":{"ha":1247,"x_min":127,"x_max":1119,"o":"m 1119 0 l 1006 0 l 1006 652 q 1015 842 1006 730 l 1013 842 q 983 747 996 776 l 651 0 l 595 0 l 264 742 q 235 842 250 774 l 232 842 q 237 651 237 783 l 237 0 l 127 0 l 127 972 l 278 972 l 576 294 q 621 178 611 216 l 625 178 q 672 297 654 258 l 977 972 l 1119 972 l 1119 0 z "},"N":{"ha":1039,"x_min":127,"x_max":911,"o":"m 911 0 l 772 0 l 271 775 q 240 836 252 804 l 236 836 q 241 703 241 805 l 241 0 l 127 0 l 127 972 l 275 972 l 762 210 q 802 144 793 162 l 804 144 q 798 288 798 186 l 798 972 l 911 972 l 911 0 z "},"O":{"ha":1047,"x_min":64,"x_max":983,"o":"m 519 -16 q 188 120 313 -16 q 64 475 64 256 q 191 849 64 709 q 536 989 317 989 q 860 853 737 989 q 983 498 983 718 q 857 122 983 260 q 519 -16 731 -16 m 528 886 q 279 775 374 886 q 183 485 183 665 q 276 196 183 305 q 519 86 370 86 q 772 191 680 86 q 864 483 864 295 q 774 781 864 675 q 528 886 685 886 z "},"P":{"ha":778,"x_min":127,"x_max":722,"o":"m 241 368 l 241 0 l 127 0 l 127 972 l 395 972 q 636 897 551 972 q 722 682 722 821 q 627 456 722 544 q 370 368 532 368 l 241 368 m 241 869 l 241 471 l 361 471 q 541 525 479 471 q 603 677 603 578 q 375 869 603 869 l 241 869 z "},"Q":{"ha":1047,"x_min":64,"x_max":1006,"o":"m 513 -16 q 425 -8 469 -16 q 338 18 380 1 q 257 61 296 35 q 188 120 219 86 q 64 475 64 256 q 190 849 64 710 q 538 989 317 989 q 860 853 736 989 q 983 498 983 718 q 963 325 983 406 q 900 177 942 243 q 794 65 858 111 q 644 0 730 20 q 710 -67 679 -38 q 771 -116 741 -96 q 836 -146 802 -136 q 909 -157 869 -157 q 932 -156 920 -157 q 959 -152 945 -155 q 984 -147 972 -150 q 1006 -140 996 -144 l 1006 -250 q 982 -255 996 -253 q 955 -259 968 -258 q 927 -262 941 -261 q 902 -263 913 -263 q 785 -244 837 -263 q 688 -191 733 -224 q 601 -113 643 -157 q 513 -16 559 -68 m 528 886 q 279 775 374 886 q 183 485 183 665 q 276 195 183 306 q 519 86 370 86 q 772 191 680 86 q 864 483 864 295 q 774 781 864 676 q 528 886 685 886 z "},"R":{"ha":831,"x_min":127,"x_max":825,"o":"m 825 0 l 689 0 l 526 273 q 483 337 504 311 q 440 381 462 364 q 392 406 418 398 q 335 414 367 414 l 241 414 l 241 0 l 127 0 l 127 972 l 418 972 q 535 957 481 972 q 629 908 589 941 q 691 827 669 876 q 713 713 713 779 q 698 620 713 663 q 655 545 683 578 q 587 488 627 511 q 498 452 547 465 l 498 449 q 540 424 522 438 q 574 391 558 410 q 607 348 591 372 q 642 292 623 324 l 825 0 m 241 869 l 241 517 l 396 517 q 475 530 439 517 q 538 567 511 543 q 579 626 564 591 q 594 704 594 661 q 544 826 594 782 q 397 869 493 869 l 241 869 z "},"S":{"ha":738,"x_min":82,"x_max":671,"o":"m 82 39 l 82 174 q 137 137 105 153 q 205 110 170 121 q 277 92 241 98 q 343 86 313 86 q 500 125 448 86 q 552 237 552 164 q 535 306 552 277 q 487 359 517 335 q 415 405 456 383 q 325 452 373 427 q 230 504 274 477 q 153 562 186 530 q 102 634 121 594 q 83 729 83 675 q 113 845 83 795 q 189 926 142 894 q 297 973 237 958 q 421 989 358 989 q 631 954 565 989 l 631 826 q 410 886 545 886 q 335 878 372 886 q 269 852 298 870 q 221 807 239 835 q 203 739 203 779 q 217 675 203 702 q 258 625 231 648 q 324 582 285 603 q 414 536 363 561 q 513 481 466 510 q 595 418 559 453 q 651 342 630 384 q 671 245 671 300 q 643 124 671 174 q 567 43 615 74 q 457 -2 519 12 q 326 -16 395 -16 q 269 -13 302 -16 q 199 -2 235 -9 q 133 16 164 5 q 82 39 101 26 z "},"T":{"ha":728,"x_min":28,"x_max":703,"o":"m 703 869 l 422 869 l 422 0 l 308 0 l 308 869 l 28 869 l 28 972 l 703 972 l 703 869 z "},"U":{"ha":954,"x_min":115,"x_max":839,"o":"m 839 393 q 469 -16 839 -16 q 115 378 115 -16 l 115 972 l 229 972 l 229 385 q 481 86 229 86 q 725 375 725 86 l 725 972 l 839 972 l 839 393 z "},"V":{"ha":863,"x_min":12,"x_max":850,"o":"m 850 972 l 490 0 l 365 0 l 12 972 l 139 972 l 408 201 q 428 115 421 164 l 431 115 q 453 203 436 156 l 728 972 l 850 972 z "},"W":{"ha":1297,"x_min":18,"x_max":1280,"o":"m 1280 972 l 1006 0 l 872 0 l 672 711 q 656 810 659 756 l 654 810 q 636 712 650 760 l 435 0 l 302 0 l 18 972 l 143 972 l 350 227 q 366 129 363 180 l 370 129 q 391 227 373 165 l 606 972 l 715 972 l 921 221 q 937 130 932 182 l 940 130 q 958 224 943 165 l 1157 972 l 1280 972 z "},"X":{"ha":819,"x_min":18,"x_max":799,"o":"m 799 0 l 660 0 l 436 372 q 414 420 426 389 l 411 420 q 388 372 404 405 l 157 0 l 18 0 l 343 489 l 43 972 l 183 972 l 382 631 q 416 563 401 597 l 419 563 q 457 633 441 608 l 664 972 l 795 972 l 489 490 l 799 0 z "},"Y":{"ha":768,"x_min":12,"x_max":760,"o":"m 760 972 l 439 359 l 439 0 l 325 0 l 325 357 l 12 972 l 142 972 l 359 533 q 383 473 363 525 l 385 473 q 411 533 392 496 l 639 972 l 760 972 z "},"Z":{"ha":792,"x_min":22,"x_max":762,"o":"m 762 945 l 193 103 l 749 103 l 749 0 l 22 0 l 22 32 l 587 869 l 68 869 l 68 972 l 762 972 l 762 945 z "},"[":{"ha":419,"x_min":136,"x_max":385,"o":"m 385 -221 l 136 -221 l 136 972 l 385 972 l 385 892 l 235 892 l 235 -140 l 385 -140 l 385 -221 z "},"\\":{"ha":526,"x_min":-18,"x_max":541,"o":"m 541 -163 l 439 -163 l -18 972 l 87 972 l 541 -163 z "},"]":{"ha":419,"x_min":36,"x_max":285,"o":"m 285 -221 l 36 -221 l 36 -140 l 186 -140 l 186 892 l 36 892 l 36 972 l 285 972 l 285 -221 z "},"^":{"ha":950,"x_min":156,"x_max":796,"o":"m 796 423 l 694 423 l 469 843 l 465 843 l 256 423 l 156 423 l 442 989 l 486 989 l 796 423 z "},"_":{"ha":576,"x_min":0,"x_max":576,"o":"m 576 -201 l 0 -201 l 0 -121 l 576 -121 l 576 -201 z "},"`":{"ha":372,"x_min":56,"x_max":319,"o":"m 319 826 l 233 826 l 56 1048 l 170 1048 l 319 826 z "},"a":{"ha":707,"x_min":61,"x_max":610,"o":"m 610 0 l 498 0 l 498 109 l 496 109 q 282 -16 423 -16 q 120 39 178 -16 q 61 184 61 94 q 290 411 61 379 l 498 440 q 355 617 498 617 q 129 532 230 617 l 129 646 q 365 711 231 711 q 610 452 610 711 l 610 0 m 498 351 l 331 328 q 214 290 254 317 q 175 193 175 262 q 211 110 175 142 q 308 77 248 77 q 445 135 391 77 q 498 282 498 193 l 498 351 z "},"b":{"ha":817,"x_min":113,"x_max":751,"o":"m 227 100 l 224 100 l 224 0 l 113 0 l 113 1028 l 224 1028 l 224 572 l 227 572 q 467 711 309 711 q 676 617 600 711 q 751 368 751 524 q 667 89 751 193 q 435 -16 582 -16 q 227 100 297 -16 m 224 380 l 224 283 q 280 137 224 197 q 422 77 336 77 q 580 155 523 77 q 637 370 637 232 q 584 551 637 486 q 439 617 530 617 q 283 550 342 617 q 224 380 224 482 z "},"c":{"ha":642,"x_min":65,"x_max":587,"o":"m 586 32 q 396 -16 506 -16 q 156 80 248 -16 q 65 331 65 177 q 163 607 65 503 q 426 711 262 711 q 587 677 517 711 l 587 563 q 422 617 510 617 q 247 541 315 617 q 179 340 179 465 q 243 148 179 218 q 415 77 307 77 q 586 138 506 77 l 586 32 z "},"d":{"ha":818,"x_min":65,"x_max":705,"o":"m 705 0 l 594 0 l 594 118 l 591 118 q 353 -16 514 -16 q 143 77 222 -16 q 65 331 65 170 q 152 607 65 503 q 383 711 239 711 q 591 598 526 711 l 594 598 l 594 1028 l 705 1028 l 705 0 m 594 314 l 594 416 q 538 559 594 500 q 397 617 483 617 q 237 543 296 617 q 179 336 179 468 q 235 147 179 216 q 385 77 291 77 q 536 144 478 77 q 594 314 594 212 z "},"e":{"ha":726,"x_min":65,"x_max":671,"o":"m 671 319 l 180 319 q 243 140 183 203 q 407 77 302 77 q 623 155 524 77 l 623 50 q 380 -16 531 -16 q 149 78 233 -16 q 65 345 65 173 q 157 609 65 507 q 385 711 249 711 q 596 623 522 711 q 671 378 671 534 l 671 319 m 557 414 q 510 564 556 510 q 383 617 465 617 q 250 561 304 617 q 182 414 195 505 l 557 414 z "},"f":{"ha":435,"x_min":36,"x_max":456,"o":"m 456 930 q 382 949 423 949 q 265 802 265 949 l 265 694 l 428 694 l 428 600 l 265 600 l 265 0 l 155 0 l 155 600 l 36 600 l 36 694 l 155 694 l 155 807 q 218 980 155 916 q 375 1043 281 1043 q 456 1031 426 1043 l 456 930 z "},"g":{"ha":818,"x_min":65,"x_max":705,"o":"m 705 56 q 339 -327 705 -327 q 114 -278 210 -327 l 114 -167 q 338 -232 231 -232 q 594 41 594 -232 l 594 117 l 591 117 q 353 -16 512 -16 q 144 76 223 -16 q 65 325 65 169 q 150 606 65 502 q 383 711 235 711 q 591 598 524 711 l 594 598 l 594 694 l 705 694 l 705 56 m 594 314 l 594 416 q 538 558 594 499 q 399 617 482 617 q 237 542 296 617 q 179 332 179 467 q 235 147 179 216 q 383 77 291 77 q 535 144 477 77 q 594 314 594 210 z "},"h":{"ha":786,"x_min":113,"x_max":689,"o":"m 689 0 l 578 0 l 578 400 q 416 617 578 617 q 279 554 335 617 q 224 393 224 492 l 224 0 l 113 0 l 113 1028 l 224 1028 l 224 579 l 227 579 q 454 711 307 711 q 689 428 689 711 l 689 0 z "},"i":{"ha":336,"x_min":98,"x_max":243,"o":"m 170 871 q 119 891 140 871 q 98 943 98 911 q 119 995 98 974 q 170 1015 140 1015 q 221 995 200 1015 q 243 943 243 974 q 221 892 243 913 q 170 871 200 871 m 224 0 l 113 0 l 113 694 l 224 694 l 224 0 z "},"j":{"ha":336,"x_min":-134,"x_max":243,"o":"m 224 29 q 155 -234 224 -142 q -42 -327 86 -327 q -134 -305 -90 -327 l -134 -201 q -39 -232 -84 -232 q 113 11 113 -232 l 113 694 l 224 694 l 224 29 m 170 871 q 119 891 140 871 q 98 943 98 911 q 119 995 98 974 q 170 1015 140 1015 q 221 995 200 1015 q 243 943 243 974 q 221 892 243 913 q 170 871 200 871 z "},"k":{"ha":690,"x_min":113,"x_max":689,"o":"m 689 0 l 533 0 l 227 334 l 224 334 l 224 0 l 113 0 l 113 1028 l 224 1028 l 224 376 l 227 376 l 518 694 l 664 694 l 342 359 l 689 0 z "},"l":{"ha":336,"x_min":113,"x_max":224,"o":"m 224 0 l 113 0 l 113 1028 l 224 1028 l 224 0 z "},"m":{"ha":1196,"x_min":113,"x_max":1099,"o":"m 1099 0 l 987 0 l 987 399 q 952 566 987 514 q 832 617 916 617 q 711 552 761 617 q 661 396 661 487 l 661 0 l 550 0 l 550 412 q 392 617 550 617 q 271 556 319 617 q 224 396 224 494 l 224 0 l 113 0 l 113 694 l 224 694 l 224 585 l 227 585 q 442 711 300 711 q 566 671 513 711 q 639 567 619 631 q 869 711 716 711 q 1099 428 1099 711 l 1099 0 z "},"n":{"ha":786,"x_min":113,"x_max":689,"o":"m 689 0 l 578 0 l 578 396 q 416 617 578 617 q 278 554 333 617 q 224 396 224 492 l 224 0 l 113 0 l 113 694 l 224 694 l 224 579 l 227 579 q 454 711 305 711 q 629 637 568 711 q 689 425 689 564 l 689 0 z "},"o":{"ha":814,"x_min":65,"x_max":749,"o":"m 403 -16 q 157 81 249 -16 q 65 339 65 178 q 161 612 65 514 q 419 711 256 711 q 662 615 574 711 q 749 350 749 519 q 655 84 749 184 q 403 -16 561 -16 m 411 617 q 241 544 304 617 q 179 343 179 471 q 242 149 179 220 q 411 77 305 77 q 577 147 519 77 q 635 346 635 217 q 577 547 635 476 q 411 617 519 617 z "},"p":{"ha":817,"x_min":113,"x_max":751,"o":"m 227 100 l 224 100 l 224 -319 l 113 -319 l 113 694 l 224 694 l 224 572 l 227 572 q 467 711 309 711 q 676 617 601 711 q 751 368 751 524 q 667 89 751 193 q 435 -16 582 -16 q 227 100 300 -16 m 224 380 l 224 283 q 280 137 224 197 q 422 77 336 77 q 580 155 523 77 q 637 370 637 232 q 584 551 637 486 q 439 617 530 617 q 283 550 342 617 q 224 380 224 482 z "},"q":{"ha":818,"x_min":65,"x_max":705,"o":"m 705 -319 l 594 -319 l 594 119 l 591 119 q 354 -16 519 -16 q 144 77 223 -16 q 65 331 65 170 q 152 607 65 504 q 385 711 239 711 q 591 598 528 711 l 594 598 l 594 694 l 705 694 l 705 -319 m 594 313 l 594 414 q 538 558 594 499 q 396 617 482 617 q 237 543 296 617 q 179 334 179 469 q 235 145 179 214 q 380 77 292 77 q 536 144 478 77 q 594 313 594 211 z "},"r":{"ha":483,"x_min":113,"x_max":475,"o":"m 475 582 q 391 604 446 604 q 272 537 319 604 q 224 354 224 470 l 224 0 l 113 0 l 113 694 l 224 694 l 224 551 l 227 551 q 299 666 250 625 q 408 707 348 707 q 475 697 452 707 l 475 582 z "},"s":{"ha":589,"x_min":71,"x_max":531,"o":"m 71 25 l 71 144 q 271 77 161 77 q 417 175 417 77 q 405 222 417 203 q 371 256 392 241 q 320 283 349 271 q 258 308 292 295 q 177 345 212 326 q 119 387 142 363 q 84 440 96 410 q 72 510 72 470 q 94 596 72 559 q 154 660 117 634 q 239 698 191 685 q 338 711 287 711 q 499 680 428 711 l 499 567 q 323 617 422 617 q 267 610 292 617 q 223 590 241 603 q 196 559 205 577 q 186 519 186 541 q 196 474 186 492 q 224 441 205 456 q 271 416 243 427 q 332 391 298 404 q 415 354 378 373 q 477 312 452 336 q 517 258 503 289 q 531 186 531 228 q 508 96 531 134 q 448 33 486 58 q 360 -4 410 8 q 256 -16 311 -16 q 71 25 149 -16 z "},"t":{"ha":471,"x_min":29,"x_max":435,"o":"m 435 7 q 331 -15 395 -15 q 149 189 149 -15 l 149 600 l 29 600 l 29 694 l 149 694 l 149 864 l 260 900 l 260 694 l 435 694 l 435 600 l 260 600 l 260 208 q 283 109 260 138 q 362 79 307 79 q 435 102 404 79 l 435 7 z "},"u":{"ha":786,"x_min":98,"x_max":674,"o":"m 674 0 l 563 0 l 563 110 l 560 110 q 346 -16 491 -16 q 98 279 98 -16 l 98 694 l 208 694 l 208 297 q 376 77 208 77 q 510 137 458 77 q 563 294 563 197 l 563 694 l 674 694 l 674 0 z "},"v":{"ha":665,"x_min":9,"x_max":659,"o":"m 659 694 l 382 0 l 273 0 l 9 694 l 132 694 l 308 190 q 332 93 328 134 l 335 93 q 357 187 342 145 l 541 694 l 659 694 z "},"w":{"ha":1004,"x_min":16,"x_max":987,"o":"m 987 694 l 779 0 l 664 0 l 521 497 q 510 562 513 526 l 507 562 q 493 498 505 537 l 338 0 l 227 0 l 16 694 l 133 694 l 277 172 q 286 110 283 149 l 292 110 q 304 174 294 140 l 464 694 l 566 694 l 709 171 q 720 109 716 146 l 725 109 q 736 171 726 135 l 878 694 l 987 694 z "},"x":{"ha":637,"x_min":18,"x_max":620,"o":"m 620 694 l 387 343 l 616 0 l 486 0 l 350 225 q 319 278 337 246 l 317 278 q 285 225 313 272 l 146 0 l 18 0 l 254 340 l 28 694 l 157 694 l 292 457 q 321 403 307 431 l 323 403 l 497 694 l 620 694 z "},"y":{"ha":672,"x_min":9,"x_max":665,"o":"m 665 694 l 346 -111 q 106 -327 260 -327 q 33 -318 62 -327 l 33 -218 q 99 -231 69 -231 q 225 -130 183 -231 l 281 1 l 9 694 l 133 694 l 321 160 q 335 107 324 150 l 339 107 q 353 159 342 123 l 550 694 l 665 694 z "},"z":{"ha":628,"x_min":22,"x_max":597,"o":"m 597 663 l 186 95 l 593 95 l 593 0 l 22 0 l 22 35 l 433 600 l 61 600 l 61 694 l 597 694 l 597 663 z "},"{":{"ha":419,"x_min":62,"x_max":376,"o":"m 376 -221 q 168 -11 168 -218 l 168 193 q 62 336 168 330 l 62 415 q 168 562 168 422 l 168 760 q 376 972 168 970 l 376 886 q 269 751 269 883 l 269 553 q 167 378 269 410 l 167 375 q 269 201 269 345 l 269 5 q 293 -102 269 -70 q 376 -136 317 -134 l 376 -221 z "},"|":{"ha":332,"x_min":117,"x_max":217,"o":"m 217 -327 l 117 -327 l 117 1062 l 217 1062 l 217 -327 z "},"}":{"ha":419,"x_min":45,"x_max":358,"o":"m 358 336 q 252 193 252 330 l 252 -11 q 45 -221 252 -218 l 45 -136 q 129 -102 104 -134 q 153 5 153 -69 l 153 201 q 254 375 153 345 l 254 378 q 153 553 153 410 l 153 751 q 45 886 153 883 l 45 972 q 252 760 252 970 l 252 562 q 358 415 252 422 l 358 336 z "},"~":{"ha":950,"x_min":142,"x_max":810,"o":"m 810 509 q 755 353 805 408 q 620 298 705 298 q 440 372 546 298 q 332 418 374 418 q 233 298 237 418 l 142 298 q 196 452 145 395 q 332 509 246 509 q 492 449 404 509 q 625 388 581 388 q 692 421 667 388 q 718 509 717 454 l 810 509 z "},"€":{"ha":749,"x_min":69,"x_max":688,"o":"m 688 34 q 496 -16 597 -16 q 151 327 207 -16 l 69 327 l 69 422 l 142 422 q 140 474 140 443 q 144 547 140 507 l 69 547 l 69 642 l 158 642 q 289 897 193 805 q 522 989 385 989 q 688 951 614 989 l 688 841 q 514 894 610 894 q 363 826 429 894 q 271 642 297 758 l 608 642 l 608 547 l 256 547 q 255 422 250 480 l 608 422 l 608 327 l 266 327 q 503 79 315 79 q 688 138 592 79 l 688 34 z "},"™":{"ha":1074,"x_min":52,"x_max":947,"o":"m 947 524 l 873 524 l 873 848 l 871 848 l 722 524 l 682 524 l 537 848 l 534 848 l 534 524 l 465 524 l 465 972 l 551 972 l 704 636 l 707 636 l 861 972 l 947 972 l 947 524 m 408 906 l 267 906 l 267 524 l 191 524 l 191 906 l 52 906 l 52 972 l 408 972 l 408 906 z "},"¡":{"ha":395,"x_min":122,"x_max":273,"o":"m 197 560 q 144 582 166 560 q 122 635 122 604 q 144 688 122 666 q 197 709 166 709 q 250 688 228 709 q 273 635 273 666 q 250 582 273 604 q 197 560 228 560 m 257 -275 l 140 -275 l 153 423 l 244 423 l 257 -275 z "},"¢":{"ha":749,"x_min":125,"x_max":646,"o":"m 646 142 q 496 95 581 102 l 496 -33 l 411 -33 l 411 96 q 202 205 280 111 q 125 440 125 300 q 202 689 125 589 q 411 814 280 789 l 411 958 l 496 958 l 496 821 q 646 786 579 819 l 646 669 q 496 722 577 718 l 496 190 q 646 248 578 198 l 646 142 m 411 197 l 411 713 q 284 623 330 692 q 239 452 239 553 q 285 283 239 350 q 411 197 331 216 z "},"£":{"ha":749,"x_min":72,"x_max":682,"o":"m 682 0 l 72 0 l 72 92 q 220 304 220 138 l 220 431 l 86 431 l 86 526 l 220 526 l 220 699 q 294 907 220 826 q 485 989 368 989 q 629 961 564 989 l 629 856 q 486 895 562 895 q 331 686 331 895 l 331 526 l 532 526 l 532 431 l 331 431 l 331 325 q 200 95 331 161 l 682 95 l 682 0 z "},"¤":{"ha":772,"x_min":68,"x_max":704,"o":"m 704 240 l 642 175 l 549 269 q 387 217 477 217 q 224 269 294 217 l 130 175 l 68 240 l 161 331 q 110 492 110 408 q 161 652 110 579 l 68 745 l 130 810 l 224 717 q 387 769 298 769 q 547 717 474 769 l 642 810 l 704 745 l 611 652 q 664 492 664 576 q 611 331 664 410 l 704 240 m 387 680 q 254 625 308 680 q 200 493 200 570 q 255 361 200 416 q 387 307 309 307 q 518 361 463 307 q 574 493 574 416 q 517 625 574 570 q 387 680 461 680 z "},"¥":{"ha":749,"x_min":46,"x_max":707,"o":"m 707 972 l 465 528 l 659 528 l 659 433 l 432 433 l 432 293 l 659 293 l 659 199 l 432 199 l 432 0 l 321 0 l 321 199 l 87 199 l 87 293 l 321 293 l 321 433 l 87 433 l 87 528 l 285 528 l 46 972 l 176 972 l 346 624 q 378 549 365 585 l 380 549 q 414 628 389 577 l 585 972 l 707 972 z "},"¦":{"ha":332,"x_min":117,"x_max":217,"o":"m 217 485 l 117 485 l 117 1062 l 217 1062 l 217 485 m 217 -327 l 117 -327 l 117 251 l 217 251 l 217 -327 z "},"§":{"ha":623,"x_min":89,"x_max":547,"o":"m 446 282 q 507 156 507 232 q 439 11 507 66 q 267 -45 372 -45 q 104 -7 178 -45 l 104 100 q 274 50 193 50 q 362 77 331 50 q 393 144 393 104 q 369 205 393 180 q 247 282 345 230 q 89 497 89 365 q 189 663 89 608 q 117 814 117 719 q 180 956 117 900 q 347 1011 243 1011 q 496 982 435 1011 l 496 875 q 345 917 427 917 q 231 819 231 917 q 258 751 231 782 q 396 668 286 721 q 547 469 547 595 q 446 282 547 354 m 270 614 q 201 506 201 579 q 240 420 201 457 q 374 340 278 383 q 433 457 433 387 q 398 540 433 506 q 270 614 362 574 z "},"¨":{"ha":575,"x_min":85,"x_max":480,"o":"m 414 826 q 367 845 387 826 q 347 893 347 864 q 366 941 347 922 q 412 960 385 960 q 460 940 441 960 q 480 893 480 921 q 461 846 480 865 q 414 826 442 826 m 153 826 q 105 846 125 826 q 85 893 85 866 q 104 941 85 922 q 151 960 123 960 q 199 940 179 960 q 220 893 220 921 q 200 846 220 865 q 153 826 180 826 z "},"©":{"ha":1236,"x_min":110,"x_max":1126,"o":"m 618 -22 q 259 126 408 -22 q 110 486 110 275 q 259 846 110 697 q 618 995 408 995 q 978 846 829 995 q 1126 486 1126 697 q 978 126 1126 275 q 618 -22 829 -22 m 618 935 q 301 804 433 935 q 170 486 170 672 q 301 169 170 300 q 618 38 433 38 q 936 169 804 38 q 1067 486 1067 300 q 936 804 1067 672 q 618 935 804 935 m 823 180 q 640 134 745 134 q 403 230 498 134 q 307 469 307 326 q 405 736 307 637 q 660 836 503 836 q 820 800 749 836 l 820 699 q 648 747 755 747 q 473 675 542 747 q 404 481 404 603 q 474 291 404 363 q 653 220 545 220 q 823 273 752 220 l 823 180 z "},"ª":{"ha":545,"x_min":56,"x_max":467,"o":"m 467 486 l 379 486 l 379 554 l 376 554 q 220 473 323 473 q 101 514 146 473 q 56 617 56 554 q 224 777 56 754 l 379 798 q 277 911 379 911 q 104 853 184 911 l 104 940 q 285 987 180 987 q 418 939 370 987 q 467 802 467 890 l 467 486 m 379 729 l 257 712 q 143 621 143 696 q 169 565 143 587 q 239 543 195 543 q 337 585 294 543 q 379 684 379 626 l 379 729 z "},"«":{"ha":703,"x_min":62,"x_max":643,"o":"m 642 136 l 528 136 l 325 363 l 528 597 l 643 597 l 435 363 l 642 136 m 378 136 l 265 136 l 62 363 l 265 597 l 378 597 l 172 363 l 378 136 z "},"¬":{"ha":950,"x_min":157,"x_max":795,"o":"m 795 172 l 705 172 l 705 464 l 157 464 l 157 554 l 795 554 l 795 172 z "},"­":{"ha":555,"x_min":98,"x_max":468,"o":"m 468 343 l 98 343 l 98 431 l 468 431 l 468 343 z "},"®":{"ha":1236,"x_min":110,"x_max":1126,"o":"m 618 -22 q 259 126 408 -22 q 110 486 110 275 q 259 846 110 697 q 618 995 408 995 q 978 846 829 995 q 1126 486 1126 697 q 978 126 1126 275 q 618 -22 829 -22 m 618 935 q 301 804 433 935 q 170 486 170 672 q 301 169 170 300 q 618 38 433 38 q 936 169 804 38 q 1067 486 1067 300 q 936 804 1067 672 q 618 935 804 935 m 865 168 l 755 168 l 685 323 q 570 440 631 440 l 510 440 l 510 168 l 420 168 l 420 815 l 602 815 q 776 768 715 815 q 838 639 838 720 q 794 526 838 572 q 674 463 751 479 l 674 460 q 781 340 728 448 l 865 168 m 510 738 l 510 517 l 607 517 q 741 628 741 517 q 705 713 741 688 q 591 738 669 738 l 510 738 z "},"¯":{"ha":576,"x_min":0,"x_max":576,"o":"m 576 947 l 0 947 l 0 1028 l 576 1028 l 576 947 z "},"°":{"ha":524,"x_min":73,"x_max":449,"o":"m 261 608 q 128 664 183 608 q 73 798 73 719 q 127 929 73 876 q 260 983 182 983 q 394 929 338 983 q 449 798 449 875 q 394 664 449 719 q 261 608 339 608 m 261 904 q 186 873 217 904 q 155 798 155 842 q 185 720 155 752 q 260 688 216 688 q 336 720 304 688 q 368 798 368 753 q 336 873 368 842 q 261 904 305 904 z "},"±":{"ha":950,"x_min":157,"x_max":795,"o":"m 795 442 l 521 442 l 521 168 l 432 168 l 432 442 l 157 442 l 157 532 l 432 532 l 432 806 l 521 806 l 521 532 l 795 532 l 795 442 m 795 0 l 157 0 l 157 90 l 795 90 l 795 0 z "},"²":{"ha":509,"x_min":71,"x_max":446,"o":"m 446 600 l 71 600 l 71 677 l 233 837 q 323 943 304 906 q 342 1017 342 980 q 316 1081 342 1057 q 248 1106 290 1106 q 102 1037 168 1106 l 102 1138 q 261 1190 159 1190 q 388 1145 341 1190 q 435 1027 435 1100 q 296 791 435 923 l 184 685 l 184 682 l 446 682 l 446 600 z "},"³":{"ha":509,"x_min":87,"x_max":444,"o":"m 87 621 l 87 718 q 235 666 157 666 q 320 691 289 666 q 351 760 351 717 q 203 856 351 856 l 146 856 l 146 936 l 200 936 q 334 1027 334 936 q 236 1107 334 1107 q 110 1061 172 1107 l 110 1155 q 254 1190 169 1190 q 376 1149 331 1190 q 422 1044 422 1109 q 323 905 422 941 l 323 902 q 444 765 444 873 q 386 635 444 686 q 232 585 328 585 q 87 621 139 585 z "},"´":{"ha":392,"x_min":92,"x_max":355,"o":"m 355 1048 l 178 826 l 92 826 l 243 1048 l 355 1048 z "},"µ":{"ha":802,"x_min":113,"x_max":711,"o":"m 711 0 l 595 0 q 580 114 580 49 l 576 114 q 387 -16 519 -16 q 226 68 274 -16 l 223 68 l 223 -269 l 113 -269 l 113 694 l 223 694 l 223 270 q 270 133 223 184 q 392 82 317 82 q 525 140 474 82 q 576 297 576 199 l 576 694 l 689 694 l 689 180 q 711 0 689 52 z "},"¶":{"ha":636,"x_min":57,"x_max":566,"o":"m 566 903 l 479 903 l 479 0 l 407 0 l 407 903 l 300 903 l 300 0 l 227 0 l 227 612 q 105 664 153 612 q 57 793 57 715 q 107 923 57 873 q 231 972 158 972 l 566 972 l 566 903 z "},"·":{"ha":301,"x_min":76,"x_max":228,"o":"m 151 346 q 98 368 120 346 q 76 422 76 391 q 98 476 76 454 q 151 498 120 498 q 205 476 183 498 q 228 422 228 454 q 205 368 228 391 q 151 346 183 346 z "},"¸":{"ha":285,"x_min":35,"x_max":265,"o":"m 265 -174 q 79 -293 265 -293 q 35 -292 53 -293 l 35 -231 q 82 -235 64 -235 q 178 -174 178 -235 q 90 -121 178 -121 q 62 -123 83 -121 l 62 0 l 136 0 l 136 -71 q 230 -98 195 -71 q 265 -174 265 -125 z "},"¹":{"ha":509,"x_min":106,"x_max":453,"o":"m 453 600 l 111 600 l 111 675 l 237 675 l 237 1078 l 106 1041 l 106 1126 l 325 1191 l 325 675 l 453 675 l 453 600 z "},"º":{"ha":598,"x_min":53,"x_max":545,"o":"m 296 472 q 118 540 182 472 q 53 725 53 608 q 122 917 53 848 q 307 986 192 986 q 481 919 417 986 q 545 735 545 851 q 477 543 545 614 q 296 472 410 472 m 301 911 q 187 863 229 911 q 144 728 144 814 q 185 596 144 644 q 300 549 225 549 q 413 597 371 549 q 454 729 454 646 q 413 863 454 814 q 301 911 372 911 z "},"»":{"ha":703,"x_min":61,"x_max":643,"o":"m 643 365 l 439 136 l 327 136 l 532 365 l 327 597 l 439 597 l 643 365 m 379 365 l 176 136 l 61 136 l 270 365 l 61 597 l 176 597 l 379 365 z "},"¼":{"ha":1259,"x_min":86,"x_max":1152,"o":"m 433 396 l 92 396 l 92 472 l 217 472 l 217 875 l 86 838 l 86 922 l 305 987 l 305 472 l 433 472 l 433 396 m 945 972 l 363 0 l 265 0 l 848 972 l 945 972 m 1152 138 l 1078 138 l 1078 0 l 988 0 l 988 138 l 722 138 l 722 201 l 972 576 l 1078 576 l 1078 212 l 1152 212 l 1152 138 m 991 491 l 988 491 q 962 441 980 470 l 814 212 l 988 212 l 988 431 q 991 491 988 453 z "},"½":{"ha":1293,"x_min":86,"x_max":1185,"o":"m 433 396 l 92 396 l 92 472 l 217 472 l 217 875 l 86 838 l 86 922 l 305 987 l 305 472 l 433 472 l 433 396 m 945 972 l 363 0 l 265 0 l 848 972 l 945 972 m 1185 1 l 810 1 l 810 78 l 972 238 q 1062 344 1043 307 q 1081 418 1081 381 q 1055 483 1081 458 q 987 507 1029 507 q 841 438 907 507 l 841 539 q 1000 591 898 591 q 1127 546 1080 591 q 1174 428 1174 501 q 1035 192 1174 324 l 924 86 l 924 83 l 1185 83 l 1185 1 z "},"¾":{"ha":1322,"x_min":87,"x_max":1196,"o":"m 87 418 l 87 514 q 235 463 157 463 q 320 488 289 463 q 351 557 351 513 q 203 652 351 652 l 146 652 l 146 732 l 200 732 q 334 823 334 732 q 236 904 334 904 q 110 857 172 904 l 110 951 q 254 986 169 986 q 376 946 331 986 q 422 840 422 905 q 323 701 422 738 l 323 699 q 444 562 444 670 q 386 432 444 482 q 232 382 328 382 q 87 418 139 382 m 993 972 l 411 0 l 313 0 l 896 972 l 993 972 m 1196 138 l 1122 138 l 1122 0 l 1032 0 l 1032 138 l 766 138 l 766 201 l 1016 576 l 1122 576 l 1122 212 l 1196 212 l 1196 138 m 1035 491 l 1032 491 q 1006 441 1024 470 l 859 212 l 1032 212 l 1032 431 q 1035 491 1032 453 z "},"¿":{"ha":623,"x_min":97,"x_max":562,"o":"m 424 427 q 435 381 430 410 q 439 326 439 353 q 422 247 439 282 q 379 182 405 212 q 323 123 353 151 q 267 66 292 95 q 223 6 241 37 q 206 -64 206 -26 q 219 -121 206 -96 q 253 -163 231 -146 q 303 -189 275 -180 q 363 -197 332 -197 q 562 -107 478 -197 l 562 -227 q 347 -292 458 -292 q 250 -278 296 -292 q 171 -238 205 -264 q 117 -171 137 -211 q 97 -78 97 -131 q 115 12 97 -28 q 159 84 132 51 q 217 145 186 117 q 275 202 248 174 q 319 260 302 230 q 337 328 337 291 q 330 384 337 359 q 315 427 322 410 l 424 427 m 363 709 q 416 688 393 709 q 438 635 438 667 q 416 582 438 604 q 363 559 393 559 q 310 582 332 559 q 288 635 288 604 q 310 688 288 667 q 363 709 333 709 z "},"À":{"ha":896,"x_min":15,"x_max":880,"o":"m 880 0 l 754 0 l 651 273 l 239 273 l 142 0 l 15 0 l 388 972 l 506 972 l 880 0 m 614 375 l 461 789 q 446 854 454 810 l 444 854 q 428 789 437 813 l 277 375 l 614 375 m 514 1062 l 428 1062 l 250 1284 l 364 1284 l 514 1062 z "},"Á":{"ha":896,"x_min":15,"x_max":880,"o":"m 880 0 l 754 0 l 651 273 l 239 273 l 142 0 l 15 0 l 388 972 l 506 972 l 880 0 m 614 375 l 461 789 q 446 854 454 810 l 444 854 q 428 789 437 813 l 277 375 l 614 375 m 588 1284 l 410 1062 l 324 1062 l 475 1284 l 588 1284 z "},"Â":{"ha":896,"x_min":15,"x_max":880,"o":"m 880 0 l 754 0 l 651 273 l 239 273 l 142 0 l 15 0 l 388 972 l 506 972 l 880 0 m 614 375 l 461 789 q 446 854 454 810 l 444 854 q 428 789 437 813 l 277 375 l 614 375 m 629 1061 l 546 1061 l 435 1217 l 323 1061 l 246 1061 l 392 1286 l 482 1286 l 629 1061 z "},"Ã":{"ha":896,"x_min":15,"x_max":880,"o":"m 880 0 l 754 0 l 651 273 l 239 273 l 142 0 l 15 0 l 388 972 l 506 972 l 880 0 m 614 375 l 461 789 q 446 854 454 810 l 444 854 q 428 789 437 813 l 277 375 l 614 375 m 663 1223 q 630 1106 663 1152 q 542 1061 597 1061 q 432 1097 494 1061 q 351 1126 380 1126 q 292 1049 292 1126 l 228 1049 q 260 1165 228 1122 q 351 1209 293 1209 q 452 1174 395 1209 q 539 1144 503 1144 q 596 1223 596 1144 l 663 1223 z "},"Ä":{"ha":896,"x_min":15,"x_max":880,"o":"m 880 0 l 754 0 l 651 273 l 239 273 l 142 0 l 15 0 l 388 972 l 506 972 l 880 0 m 614 375 l 461 789 q 446 854 454 810 l 444 854 q 428 789 437 813 l 277 375 l 614 375 m 570 1061 q 523 1080 543 1061 q 503 1128 503 1099 q 522 1176 503 1157 q 568 1195 541 1195 q 616 1176 597 1195 q 636 1128 636 1156 q 617 1081 636 1101 q 570 1061 598 1061 m 309 1061 q 261 1081 281 1061 q 241 1128 241 1101 q 260 1176 241 1157 q 307 1195 279 1195 q 355 1176 335 1195 q 376 1128 376 1156 q 356 1081 376 1101 q 309 1061 336 1061 z "},"Å":{"ha":896,"x_min":15,"x_max":880,"o":"m 880 0 l 754 0 l 651 273 l 239 273 l 142 0 l 15 0 l 374 935 q 305 1046 305 970 q 346 1143 305 1106 q 449 1181 387 1181 q 547 1144 509 1181 q 585 1050 585 1107 q 519 937 585 974 l 880 0 m 445 1125 q 389 1104 411 1125 q 368 1050 368 1082 q 445 972 368 972 q 500 995 477 972 q 522 1050 522 1017 q 500 1104 522 1083 q 445 1125 477 1125 m 614 375 l 461 789 q 446 854 454 810 l 444 854 q 428 789 437 813 l 277 375 l 614 375 z "},"Æ":{"ha":1195,"x_min":7,"x_max":1131,"o":"m 1131 0 l 616 0 l 616 273 l 270 273 l 139 0 l 7 0 l 481 972 l 1108 972 l 1108 869 l 729 869 l 729 546 l 1081 546 l 1081 444 l 729 444 l 729 103 l 1131 103 l 1131 0 m 616 375 l 616 869 l 551 869 l 317 375 l 616 375 z "},"Ç":{"ha":860,"x_min":64,"x_max":789,"o":"m 789 41 q 524 -16 675 -17 l 524 -71 q 616 -98 582 -71 q 651 -174 651 -125 q 465 -293 651 -293 q 420 -292 439 -293 l 420 -231 q 468 -235 449 -235 q 564 -174 564 -235 q 476 -121 564 -121 q 449 -123 469 -121 l 449 -12 q 168 141 273 10 q 64 468 64 271 q 204 845 64 701 q 560 989 345 989 q 789 949 699 989 l 789 827 q 559 886 685 886 q 287 774 391 886 q 183 475 183 662 q 280 192 183 297 q 536 86 378 86 q 789 151 682 86 l 789 41 z "},"È":{"ha":703,"x_min":127,"x_max":643,"o":"m 643 0 l 127 0 l 127 972 l 621 972 l 621 869 l 241 869 l 241 546 l 593 546 l 593 444 l 241 444 l 241 103 l 643 103 l 643 0 m 477 1062 l 391 1062 l 213 1284 l 327 1284 l 477 1062 z "},"É":{"ha":703,"x_min":127,"x_max":643,"o":"m 643 0 l 127 0 l 127 972 l 621 972 l 621 869 l 241 869 l 241 546 l 593 546 l 593 444 l 241 444 l 241 103 l 643 103 l 643 0 m 545 1284 l 367 1061 l 281 1061 l 432 1284 l 545 1284 z "},"Ê":{"ha":703,"x_min":127,"x_max":643,"o":"m 643 0 l 127 0 l 127 972 l 621 972 l 621 869 l 241 869 l 241 546 l 593 546 l 593 444 l 241 444 l 241 103 l 643 103 l 643 0 m 561 1063 l 478 1063 l 367 1219 l 255 1063 l 178 1063 l 324 1288 l 414 1288 l 561 1063 z "},"Ë":{"ha":703,"x_min":127,"x_max":643,"o":"m 643 0 l 127 0 l 127 972 l 621 972 l 621 869 l 241 869 l 241 546 l 593 546 l 593 444 l 241 444 l 241 103 l 643 103 l 643 0 m 508 1062 q 461 1081 481 1062 q 441 1129 441 1100 q 460 1177 441 1158 q 507 1196 479 1196 q 555 1176 535 1196 q 574 1129 574 1157 q 555 1082 574 1101 q 508 1062 536 1062 m 248 1062 q 199 1082 219 1062 q 179 1129 179 1102 q 198 1177 179 1158 q 245 1196 218 1196 q 294 1176 273 1196 q 314 1129 314 1157 q 294 1082 314 1101 q 248 1062 275 1062 z "},"Ì":{"ha":370,"x_min":19,"x_max":336,"o":"m 336 972 l 336 875 l 241 875 l 241 98 l 336 98 l 336 0 l 33 0 l 33 98 l 127 98 l 127 875 l 33 875 l 33 972 l 336 972 m 283 1062 l 197 1062 l 19 1284 l 133 1284 l 283 1062 z "},"Í":{"ha":370,"x_min":33,"x_max":346,"o":"m 336 972 l 336 875 l 241 875 l 241 98 l 336 98 l 336 0 l 33 0 l 33 98 l 127 98 l 127 875 l 33 875 l 33 972 l 336 972 m 346 1284 l 168 1062 l 82 1062 l 233 1284 l 346 1284 z "},"Î":{"ha":370,"x_min":-2,"x_max":380,"o":"m 336 972 l 336 875 l 241 875 l 241 98 l 336 98 l 336 0 l 33 0 l 33 98 l 127 98 l 127 875 l 33 875 l 33 972 l 336 972 m 380 1063 l 298 1063 l 186 1219 l 75 1063 l -2 1063 l 144 1288 l 234 1288 l 380 1063 z "},"Ï":{"ha":370,"x_min":-9,"x_max":386,"o":"m 336 972 l 336 875 l 241 875 l 241 98 l 336 98 l 336 0 l 33 0 l 33 98 l 127 98 l 127 875 l 33 875 l 33 972 l 336 972 m 319 1062 q 273 1081 292 1062 q 253 1129 253 1100 q 272 1177 253 1158 q 318 1196 291 1196 q 366 1176 347 1196 q 386 1129 386 1157 q 367 1082 386 1101 q 319 1062 348 1062 m 59 1062 q 11 1082 31 1062 q -9 1129 -9 1102 q 10 1177 -9 1158 q 57 1196 29 1196 q 105 1176 85 1196 q 125 1129 125 1157 q 106 1082 125 1101 q 59 1062 86 1062 z "},"Ð":{"ha":974,"x_min":19,"x_max":910,"o":"m 127 0 l 127 435 l 19 435 l 19 540 l 127 540 l 127 972 l 396 972 q 910 498 910 972 q 767 136 910 272 q 385 0 625 0 l 127 0 m 241 869 l 241 540 l 469 540 l 469 435 l 241 435 l 241 103 l 387 103 q 684 205 578 103 q 791 496 791 308 q 393 869 791 869 l 241 869 z "},"Ñ":{"ha":1039,"x_min":127,"x_max":911,"o":"m 911 0 l 772 0 l 271 775 q 240 836 252 804 l 236 836 q 241 703 241 805 l 241 0 l 127 0 l 127 972 l 275 972 l 762 210 q 802 144 793 162 l 804 144 q 798 288 798 186 l 798 972 l 911 972 l 911 0 m 755 1223 q 722 1106 755 1152 q 634 1061 690 1061 q 524 1097 586 1061 q 444 1126 472 1126 q 384 1049 384 1126 l 320 1049 q 353 1165 320 1122 q 444 1209 385 1209 q 545 1174 488 1209 q 631 1144 595 1144 q 688 1223 688 1144 l 755 1223 z "},"Ò":{"ha":1047,"x_min":64,"x_max":983,"o":"m 519 -16 q 188 120 313 -16 q 64 475 64 256 q 191 849 64 709 q 536 989 317 989 q 860 853 737 989 q 983 498 983 718 q 857 122 983 260 q 519 -16 731 -16 m 528 886 q 279 775 374 886 q 183 485 183 665 q 276 196 183 305 q 519 86 370 86 q 772 191 680 86 q 864 483 864 295 q 774 781 864 675 q 528 886 685 886 m 597 1062 l 511 1062 l 333 1284 l 447 1284 l 597 1062 z "},"Ó":{"ha":1047,"x_min":64,"x_max":983,"o":"m 519 -16 q 188 120 313 -16 q 64 475 64 256 q 191 849 64 709 q 536 989 317 989 q 860 853 737 989 q 983 498 983 718 q 857 122 983 260 q 519 -16 731 -16 m 528 886 q 279 775 374 886 q 183 485 183 665 q 276 196 183 305 q 519 86 370 86 q 772 191 680 86 q 864 483 864 295 q 774 781 864 675 q 528 886 685 886 m 697 1284 l 519 1062 l 433 1062 l 585 1284 l 697 1284 z "},"Ô":{"ha":1047,"x_min":64,"x_max":983,"o":"m 519 -16 q 188 120 313 -16 q 64 475 64 256 q 191 849 64 709 q 536 989 317 989 q 860 853 737 989 q 983 498 983 718 q 857 122 983 260 q 519 -16 731 -16 m 528 886 q 279 775 374 886 q 183 485 183 665 q 276 196 183 305 q 519 86 370 86 q 772 191 680 86 q 864 483 864 295 q 774 781 864 675 q 528 886 685 886 m 721 1062 l 638 1062 l 527 1218 l 415 1062 l 338 1062 l 484 1287 l 574 1287 l 721 1062 z "},"Õ":{"ha":1047,"x_min":64,"x_max":983,"o":"m 519 -16 q 188 120 313 -16 q 64 475 64 256 q 191 849 64 709 q 536 989 317 989 q 860 853 737 989 q 983 498 983 718 q 857 122 983 260 q 519 -16 731 -16 m 528 886 q 279 775 374 886 q 183 485 183 665 q 276 196 183 305 q 519 86 370 86 q 772 191 680 86 q 864 483 864 295 q 774 781 864 675 q 528 886 685 886 m 748 1222 q 715 1106 748 1151 q 627 1061 683 1061 q 517 1096 579 1061 q 437 1125 465 1125 q 377 1048 377 1125 l 313 1048 q 346 1165 313 1121 q 437 1208 378 1208 q 538 1173 481 1208 q 625 1143 588 1143 q 682 1222 682 1143 l 748 1222 z "},"Ö":{"ha":1047,"x_min":64,"x_max":983,"o":"m 519 -16 q 188 120 313 -16 q 64 475 64 256 q 191 849 64 709 q 536 989 317 989 q 860 853 737 989 q 983 498 983 718 q 857 122 983 260 q 519 -16 731 -16 m 528 886 q 279 775 374 886 q 183 485 183 665 q 276 196 183 305 q 519 86 370 86 q 772 191 680 86 q 864 483 864 295 q 774 781 864 675 q 528 886 685 886 m 656 1060 q 610 1079 629 1060 q 590 1127 590 1098 q 609 1175 590 1156 q 655 1194 628 1194 q 703 1174 684 1194 q 723 1127 723 1155 q 704 1080 723 1099 q 656 1060 685 1060 m 396 1060 q 348 1080 368 1060 q 328 1127 328 1100 q 347 1175 328 1156 q 394 1194 366 1194 q 442 1174 422 1194 q 463 1127 463 1155 q 443 1080 463 1099 q 396 1060 423 1060 z "},"×":{"ha":950,"x_min":182,"x_max":769,"o":"m 769 175 l 705 111 l 475 342 l 245 111 l 182 175 l 412 404 l 182 635 l 245 699 l 475 468 l 705 699 l 769 635 l 538 404 l 769 175 z "},"Ø":{"ha":1047,"x_min":64,"x_max":983,"o":"m 220 89 l 117 -35 l 64 9 l 171 139 q 64 475 64 271 q 190 848 64 707 q 536 989 317 989 q 808 901 694 989 l 900 1011 l 953 968 l 859 856 q 983 498 983 720 q 857 122 983 260 q 519 -16 731 -16 q 220 89 339 -16 m 739 817 q 528 886 654 886 q 278 774 374 886 q 183 485 183 663 q 250 232 183 334 l 739 817 m 785 766 l 293 179 q 519 86 382 86 q 772 191 680 86 q 864 483 864 296 q 785 766 864 659 z "},"Ù":{"ha":954,"x_min":115,"x_max":839,"o":"m 839 393 q 469 -16 839 -16 q 115 378 115 -16 l 115 972 l 229 972 l 229 385 q 481 86 229 86 q 725 375 725 86 l 725 972 l 839 972 l 839 393 m 563 1062 l 477 1062 l 299 1284 l 413 1284 l 563 1062 z "},"Ú":{"ha":954,"x_min":115,"x_max":839,"o":"m 839 393 q 469 -16 839 -16 q 115 378 115 -16 l 115 972 l 229 972 l 229 385 q 481 86 229 86 q 725 375 725 86 l 725 972 l 839 972 l 839 393 m 651 1284 l 473 1061 l 387 1061 l 538 1284 l 651 1284 z "},"Û":{"ha":954,"x_min":115,"x_max":839,"o":"m 839 393 q 469 -16 839 -16 q 115 378 115 -16 l 115 972 l 229 972 l 229 385 q 481 86 229 86 q 725 375 725 86 l 725 972 l 839 972 l 839 393 m 669 1063 l 587 1063 l 475 1219 l 363 1063 l 287 1063 l 433 1288 l 523 1288 l 669 1063 z "},"Ü":{"ha":954,"x_min":115,"x_max":839,"o":"m 839 393 q 469 -16 839 -16 q 115 378 115 -16 l 115 972 l 229 972 l 229 385 q 481 86 229 86 q 725 375 725 86 l 725 972 l 839 972 l 839 393 m 607 1063 q 560 1082 580 1063 q 541 1130 541 1101 q 559 1177 541 1158 q 606 1196 578 1196 q 654 1177 634 1196 q 673 1130 673 1158 q 654 1082 673 1102 q 607 1063 635 1063 m 347 1063 q 298 1083 318 1063 q 278 1130 278 1103 q 297 1177 278 1158 q 345 1196 317 1196 q 393 1177 372 1196 q 413 1130 413 1158 q 393 1082 413 1102 q 347 1063 374 1063 z "},"Ý":{"ha":768,"x_min":12,"x_max":760,"o":"m 760 972 l 439 359 l 439 0 l 325 0 l 325 357 l 12 972 l 142 972 l 359 533 q 383 473 363 525 l 385 473 q 411 533 392 496 l 639 972 l 760 972 m 564 1284 l 386 1062 l 300 1062 l 451 1284 l 564 1284 z "},"Þ":{"ha":778,"x_min":127,"x_max":722,"o":"m 241 216 l 241 0 l 127 0 l 127 972 l 241 972 l 241 819 l 395 819 q 637 744 552 819 q 722 529 722 668 q 626 303 722 391 q 368 216 530 216 l 241 216 m 241 717 l 241 318 l 361 318 q 541 371 478 318 q 603 522 603 424 q 375 717 603 717 l 241 717 z "},"ß":{"ha":755,"x_min":113,"x_max":708,"o":"m 313 1 l 313 110 q 428 77 363 77 q 548 127 502 77 q 594 261 594 177 q 526 426 594 363 q 338 503 458 490 l 338 591 q 469 661 418 605 q 521 795 521 718 q 484 908 521 868 q 380 949 446 949 q 224 739 224 949 l 224 0 l 113 0 l 113 755 q 187 964 113 886 q 388 1043 262 1043 q 568 979 500 1043 q 635 808 635 914 q 584 654 635 722 q 452 559 533 585 l 452 555 q 708 267 708 505 q 633 65 708 146 q 433 -16 557 -16 q 313 1 365 -16 z "},"à":{"ha":707,"x_min":61,"x_max":610,"o":"m 610 0 l 498 0 l 498 109 l 496 109 q 282 -16 423 -16 q 120 39 178 -16 q 61 184 61 94 q 290 411 61 379 l 498 440 q 355 617 498 617 q 129 532 230 617 l 129 646 q 365 711 231 711 q 610 452 610 711 l 610 0 m 498 351 l 331 328 q 214 290 254 317 q 175 193 175 262 q 211 110 175 142 q 308 77 248 77 q 445 135 391 77 q 498 282 498 193 l 498 351 m 457 826 l 371 826 l 193 1048 l 307 1048 l 457 826 z "},"á":{"ha":707,"x_min":61,"x_max":610,"o":"m 610 0 l 498 0 l 498 109 l 496 109 q 282 -16 423 -16 q 120 39 178 -16 q 61 184 61 94 q 290 411 61 379 l 498 440 q 355 617 498 617 q 129 532 230 617 l 129 646 q 365 711 231 711 q 610 452 610 711 l 610 0 m 498 351 l 331 328 q 214 290 254 317 q 175 193 175 262 q 211 110 175 142 q 308 77 248 77 q 445 135 391 77 q 498 282 498 193 l 498 351 m 513 1048 l 336 826 l 250 826 l 401 1048 l 513 1048 z "},"â":{"ha":707,"x_min":61,"x_max":610,"o":"m 610 0 l 498 0 l 498 109 l 496 109 q 282 -16 423 -16 q 120 39 178 -16 q 61 184 61 94 q 290 411 61 379 l 498 440 q 355 617 498 617 q 129 532 230 617 l 129 646 q 365 711 231 711 q 610 452 610 711 l 610 0 m 498 351 l 331 328 q 214 290 254 317 q 175 193 175 262 q 211 110 175 142 q 308 77 248 77 q 445 135 391 77 q 498 282 498 193 l 498 351 m 547 826 l 464 826 l 353 982 l 241 826 l 164 826 l 310 1051 l 400 1051 l 547 826 z "},"ã":{"ha":707,"x_min":61,"x_max":610,"o":"m 610 0 l 498 0 l 498 109 l 496 109 q 282 -16 423 -16 q 120 39 178 -16 q 61 184 61 94 q 290 411 61 379 l 498 440 q 355 617 498 617 q 129 532 230 617 l 129 646 q 365 711 231 711 q 610 452 610 711 l 610 0 m 498 351 l 331 328 q 214 290 254 317 q 175 193 175 262 q 211 110 175 142 q 308 77 248 77 q 445 135 391 77 q 498 282 498 193 l 498 351 m 572 989 q 540 872 572 918 q 452 827 507 827 q 342 863 404 827 q 261 892 290 892 q 201 815 201 892 l 138 815 q 170 931 138 888 q 261 975 203 975 q 362 940 305 975 q 449 910 412 910 q 506 989 506 910 l 572 989 z "},"ä":{"ha":707,"x_min":61,"x_max":610,"o":"m 610 0 l 498 0 l 498 109 l 496 109 q 282 -16 423 -16 q 120 39 178 -16 q 61 184 61 94 q 290 411 61 379 l 498 440 q 355 617 498 617 q 129 532 230 617 l 129 646 q 365 711 231 711 q 610 452 610 711 l 610 0 m 498 351 l 331 328 q 214 290 254 317 q 175 193 175 262 q 211 110 175 142 q 308 77 248 77 q 445 135 391 77 q 498 282 498 193 l 498 351 m 480 826 q 433 845 453 826 q 414 893 414 864 q 433 941 414 922 q 479 960 452 960 q 527 940 507 960 q 547 893 547 921 q 528 846 547 865 q 480 826 509 826 m 220 826 q 171 846 191 826 q 151 893 151 866 q 171 941 151 922 q 218 960 190 960 q 266 940 245 960 q 286 893 286 921 q 267 846 286 865 q 220 826 247 826 z "},"å":{"ha":707,"x_min":61,"x_max":610,"o":"m 610 0 l 498 0 l 498 109 l 496 109 q 282 -16 423 -16 q 120 39 178 -16 q 61 184 61 94 q 290 411 61 379 l 498 440 q 355 617 498 617 q 129 532 230 617 l 129 646 q 365 711 231 711 q 610 452 610 711 l 610 0 m 498 351 l 331 328 q 214 290 254 317 q 175 193 175 262 q 211 110 175 142 q 308 77 248 77 q 445 135 391 77 q 498 282 498 193 l 498 351 m 351 798 q 252 834 290 798 q 213 926 213 870 q 253 1023 213 986 q 355 1061 293 1061 q 454 1024 415 1061 q 492 930 492 987 q 451 836 492 873 q 351 798 410 798 m 351 1006 q 296 984 317 1006 q 275 929 275 962 q 351 853 275 853 q 406 875 384 853 q 428 929 428 897 q 406 984 428 962 q 351 1006 384 1006 z "},"æ":{"ha":1156,"x_min":61,"x_max":1100,"o":"m 1100 319 l 608 319 q 670 140 610 203 q 833 77 730 77 q 1051 155 954 77 l 1051 50 q 808 -16 962 -16 q 549 139 625 -16 l 546 139 q 283 -16 448 -16 q 120 38 180 -16 q 61 184 61 93 q 321 404 61 388 l 498 415 q 353 617 498 617 q 129 534 234 617 l 129 646 q 365 711 229 711 q 568 575 522 711 l 571 575 q 812 711 650 711 q 1025 622 949 711 q 1100 376 1100 534 l 1100 319 m 986 414 q 940 564 985 511 q 814 617 895 617 q 679 562 735 617 q 610 414 623 506 l 986 414 m 498 278 l 498 321 l 361 313 q 220 279 267 307 q 174 187 174 252 q 210 107 174 138 q 307 77 245 77 q 443 135 387 77 q 498 278 498 192 z "},"ç":{"ha":642,"x_min":65,"x_max":587,"o":"m 586 32 q 400 -16 507 -16 l 400 -71 q 493 -98 458 -71 q 528 -174 528 -125 q 341 -293 528 -293 q 297 -292 315 -293 l 297 -231 q 345 -235 326 -235 q 440 -174 440 -235 q 353 -121 440 -121 q 325 -123 346 -121 l 325 -9 q 135 106 205 14 q 65 331 65 198 q 163 607 65 503 q 426 711 262 711 q 587 677 517 711 l 587 563 q 422 617 510 617 q 247 541 315 617 q 179 340 179 465 q 243 148 179 218 q 415 77 307 77 q 586 138 506 77 l 586 32 z "},"è":{"ha":726,"x_min":65,"x_max":671,"o":"m 671 319 l 180 319 q 243 140 183 203 q 407 77 302 77 q 623 155 524 77 l 623 50 q 380 -16 531 -16 q 149 78 233 -16 q 65 345 65 173 q 157 609 65 507 q 385 711 249 711 q 596 623 522 711 q 671 378 671 534 l 671 319 m 557 414 q 510 564 556 510 q 383 617 465 617 q 250 561 304 617 q 182 414 195 505 l 557 414 m 492 826 l 406 826 l 228 1048 l 342 1048 l 492 826 z "},"é":{"ha":726,"x_min":65,"x_max":671,"o":"m 671 319 l 180 319 q 243 140 183 203 q 407 77 302 77 q 623 155 524 77 l 623 50 q 380 -16 531 -16 q 149 78 233 -16 q 65 345 65 173 q 157 609 65 507 q 385 711 249 711 q 596 623 522 711 q 671 378 671 534 l 671 319 m 557 414 q 510 564 556 510 q 383 617 465 617 q 250 561 304 617 q 182 414 195 505 l 557 414 m 539 1048 l 361 826 l 275 826 l 427 1048 l 539 1048 z "},"ê":{"ha":726,"x_min":65,"x_max":671,"o":"m 671 319 l 180 319 q 243 140 183 203 q 407 77 302 77 q 623 155 524 77 l 623 50 q 380 -16 531 -16 q 149 78 233 -16 q 65 345 65 173 q 157 609 65 507 q 385 711 249 711 q 596 623 522 711 q 671 378 671 534 l 671 319 m 557 414 q 510 564 556 510 q 383 617 465 617 q 250 561 304 617 q 182 414 195 505 l 557 414 m 570 826 l 487 826 l 376 982 l 264 826 l 187 826 l 333 1051 l 423 1051 l 570 826 z "},"ë":{"ha":726,"x_min":65,"x_max":671,"o":"m 671 319 l 180 319 q 243 140 183 203 q 407 77 302 77 q 623 155 524 77 l 623 50 q 380 -16 531 -16 q 149 78 233 -16 q 65 345 65 173 q 157 609 65 507 q 385 711 249 711 q 596 623 522 711 q 671 378 671 534 l 671 319 m 557 414 q 510 564 556 510 q 383 617 465 617 q 250 561 304 617 q 182 414 195 505 l 557 414 m 506 826 q 459 845 479 826 q 439 893 439 864 q 458 941 439 922 q 505 960 477 960 q 553 940 533 960 q 572 893 572 921 q 553 846 572 865 q 506 826 534 826 m 245 826 q 197 846 217 826 q 177 893 177 866 q 196 941 177 922 q 243 960 216 960 q 292 940 271 960 q 312 893 312 921 q 292 846 312 865 q 245 826 273 826 z "},"ì":{"ha":336,"x_min":-13,"x_max":251,"o":"m 224 0 l 113 0 l 113 694 l 224 694 l 224 0 m 251 826 l 165 826 l -13 1048 l 101 1048 l 251 826 z "},"í":{"ha":336,"x_min":60,"x_max":324,"o":"m 224 0 l 113 0 l 113 694 l 224 694 l 224 0 m 324 1048 l 146 826 l 60 826 l 212 1048 l 324 1048 z "},"î":{"ha":336,"x_min":-30,"x_max":353,"o":"m 224 0 l 113 0 l 113 694 l 224 694 l 224 0 m 353 826 l 270 826 l 159 982 l 47 826 l -30 826 l 116 1051 l 206 1051 l 353 826 z "},"ï":{"ha":336,"x_min":-37,"x_max":359,"o":"m 224 0 l 113 0 l 113 694 l 224 694 l 224 0 m 292 826 q 245 845 265 826 q 226 893 226 864 q 245 941 226 922 q 291 960 264 960 q 339 940 319 960 q 359 893 359 921 q 340 846 359 865 q 292 826 321 826 m 32 826 q -17 846 3 826 q -37 893 -37 866 q -17 941 -37 922 q 30 960 2 960 q 78 940 58 960 q 98 893 98 921 q 79 846 98 865 q 32 826 59 826 z "},"ð":{"ha":777,"x_min":65,"x_max":711,"o":"m 533 656 l 536 659 q 401 839 475 768 l 199 736 l 164 803 l 347 892 q 168 1028 267 963 l 318 1028 q 435 936 369 993 l 631 1034 l 668 970 l 489 882 q 711 357 711 673 q 623 90 711 194 q 385 -15 536 -15 q 150 80 235 -15 q 65 339 65 175 q 153 607 65 504 q 391 709 241 709 q 533 656 474 709 m 395 617 q 237 544 294 617 q 179 343 179 470 q 235 149 179 220 q 392 77 292 77 q 542 151 486 77 q 597 346 597 224 q 395 617 597 617 z "},"ñ":{"ha":786,"x_min":113,"x_max":689,"o":"m 689 0 l 578 0 l 578 396 q 416 617 578 617 q 278 554 333 617 q 224 396 224 492 l 224 0 l 113 0 l 113 694 l 224 694 l 224 579 l 227 579 q 454 711 305 711 q 629 637 568 711 q 689 425 689 564 l 689 0 m 616 989 q 583 872 616 918 q 495 827 551 827 q 385 863 447 827 q 304 892 333 892 q 245 815 245 892 l 181 815 q 214 931 181 888 q 304 975 246 975 q 406 940 349 975 q 492 910 456 910 q 549 989 549 910 l 616 989 z "},"ò":{"ha":814,"x_min":65,"x_max":749,"o":"m 403 -16 q 157 81 249 -16 q 65 339 65 178 q 161 612 65 514 q 419 711 256 711 q 662 615 574 711 q 749 350 749 519 q 655 84 749 184 q 403 -16 561 -16 m 411 617 q 241 544 304 617 q 179 343 179 471 q 242 149 179 220 q 411 77 305 77 q 577 147 519 77 q 635 346 635 217 q 577 547 635 476 q 411 617 519 617 m 507 826 l 420 826 l 243 1048 l 357 1048 l 507 826 z "},"ó":{"ha":814,"x_min":65,"x_max":749,"o":"m 403 -16 q 157 81 249 -16 q 65 339 65 178 q 161 612 65 514 q 419 711 256 711 q 662 615 574 711 q 749 350 749 519 q 655 84 749 184 q 403 -16 561 -16 m 411 617 q 241 544 304 617 q 179 343 179 471 q 242 149 179 220 q 411 77 305 77 q 577 147 519 77 q 635 346 635 217 q 577 547 635 476 q 411 617 519 617 m 574 1048 l 396 826 l 310 826 l 461 1048 l 574 1048 z "},"ô":{"ha":814,"x_min":65,"x_max":749,"o":"m 403 -16 q 157 81 249 -16 q 65 339 65 178 q 161 612 65 514 q 419 711 256 711 q 662 615 574 711 q 749 350 749 519 q 655 84 749 184 q 403 -16 561 -16 m 411 617 q 241 544 304 617 q 179 343 179 471 q 242 149 179 220 q 411 77 305 77 q 577 147 519 77 q 635 346 635 217 q 577 547 635 476 q 411 617 519 617 m 600 826 l 517 826 l 406 982 l 294 826 l 218 826 l 363 1051 l 454 1051 l 600 826 z "},"õ":{"ha":814,"x_min":65,"x_max":749,"o":"m 403 -16 q 157 81 249 -16 q 65 339 65 178 q 161 612 65 514 q 419 711 256 711 q 662 615 574 711 q 749 350 749 519 q 655 84 749 184 q 403 -16 561 -16 m 411 617 q 241 544 304 617 q 179 343 179 471 q 242 149 179 220 q 411 77 305 77 q 577 147 519 77 q 635 346 635 217 q 577 547 635 476 q 411 617 519 617 m 631 989 q 599 872 631 918 q 511 827 566 827 q 401 863 463 827 q 320 892 349 892 q 260 815 260 892 l 197 815 q 229 931 197 888 q 320 975 262 975 q 421 940 364 975 q 508 910 471 910 q 565 989 565 910 l 631 989 z "},"ö":{"ha":814,"x_min":65,"x_max":749,"o":"m 403 -16 q 157 81 249 -16 q 65 339 65 178 q 161 612 65 514 q 419 711 256 711 q 662 615 574 711 q 749 350 749 519 q 655 84 749 184 q 403 -16 561 -16 m 411 617 q 241 544 304 617 q 179 343 179 471 q 242 149 179 220 q 411 77 305 77 q 577 147 519 77 q 635 346 635 217 q 577 547 635 476 q 411 617 519 617 m 538 826 q 491 845 511 826 q 471 893 471 864 q 490 941 471 922 q 536 960 509 960 q 585 940 565 960 q 604 893 604 921 q 585 846 604 865 q 538 826 566 826 m 277 826 q 229 846 249 826 q 209 893 209 866 q 228 941 209 922 q 275 960 248 960 q 323 940 303 960 q 344 893 344 921 q 324 846 344 865 q 277 826 304 826 z "},"÷":{"ha":950,"x_min":157,"x_max":795,"o":"m 480 589 q 430 609 450 589 q 410 660 410 630 q 429 712 410 690 q 480 734 449 734 q 550 661 550 734 q 529 609 550 629 q 480 589 509 589 m 795 359 l 157 359 l 157 450 l 795 450 l 795 359 m 477 76 q 427 96 448 76 q 406 146 406 117 q 426 199 406 176 q 477 221 446 221 q 546 147 546 221 q 526 96 546 117 q 477 76 507 76 z "},"ø":{"ha":814,"x_min":33,"x_max":796,"o":"m 796 711 l 682 589 q 749 354 749 495 q 654 83 749 183 q 403 -16 560 -16 q 187 53 273 -16 l 89 -56 l 33 -3 l 134 109 q 65 339 65 201 q 161 612 65 514 q 420 711 258 711 q 629 644 545 711 l 739 764 l 796 711 m 557 567 q 411 617 503 617 q 241 544 303 617 q 179 343 179 471 q 213 191 179 254 l 557 567 m 604 503 l 260 129 q 410 77 319 77 q 578 148 520 77 q 636 347 636 218 q 604 503 636 438 z "},"ù":{"ha":786,"x_min":98,"x_max":674,"o":"m 674 0 l 563 0 l 563 110 l 560 110 q 346 -16 491 -16 q 98 279 98 -16 l 98 694 l 208 694 l 208 297 q 376 77 208 77 q 510 137 458 77 q 563 294 563 197 l 563 694 l 674 694 l 674 0 m 478 826 l 392 826 l 214 1048 l 328 1048 l 478 826 z "},"ú":{"ha":786,"x_min":98,"x_max":674,"o":"m 674 0 l 563 0 l 563 110 l 560 110 q 346 -16 491 -16 q 98 279 98 -16 l 98 694 l 208 694 l 208 297 q 376 77 208 77 q 510 137 458 77 q 563 294 563 197 l 563 694 l 674 694 l 674 0 m 570 1048 l 392 826 l 306 826 l 457 1048 l 570 1048 z "},"û":{"ha":786,"x_min":98,"x_max":674,"o":"m 674 0 l 563 0 l 563 110 l 560 110 q 346 -16 491 -16 q 98 279 98 -16 l 98 694 l 208 694 l 208 297 q 376 77 208 77 q 510 137 458 77 q 563 294 563 197 l 563 694 l 674 694 l 674 0 m 579 826 l 496 826 l 385 982 l 273 826 l 197 826 l 342 1051 l 433 1051 l 579 826 z "},"ü":{"ha":786,"x_min":98,"x_max":674,"o":"m 674 0 l 563 0 l 563 110 l 560 110 q 346 -16 491 -16 q 98 279 98 -16 l 98 694 l 208 694 l 208 297 q 376 77 208 77 q 510 137 458 77 q 563 294 563 197 l 563 694 l 674 694 l 674 0 m 522 826 q 475 845 495 826 q 456 893 456 864 q 475 941 456 922 q 521 960 494 960 q 569 940 549 960 q 589 893 589 921 q 570 846 589 865 q 522 826 551 826 m 262 826 q 213 846 233 826 q 193 893 193 866 q 213 941 193 922 q 260 960 232 960 q 308 940 288 960 q 328 893 328 921 q 309 846 328 865 q 262 826 289 826 z "},"ý":{"ha":672,"x_min":9,"x_max":665,"o":"m 665 694 l 346 -111 q 106 -327 260 -327 q 33 -318 62 -327 l 33 -218 q 99 -231 69 -231 q 225 -130 183 -231 l 281 1 l 9 694 l 133 694 l 321 160 q 335 107 324 150 l 339 107 q 353 159 342 123 l 550 694 l 665 694 m 517 1048 l 339 826 l 253 826 l 404 1048 l 517 1048 z "},"þ":{"ha":817,"x_min":113,"x_max":751,"o":"m 227 100 l 224 100 l 224 -319 l 113 -319 l 113 1028 l 224 1028 l 224 572 l 227 572 q 467 711 309 711 q 676 617 601 711 q 751 368 751 524 q 667 89 751 193 q 435 -16 582 -16 q 227 100 300 -16 m 224 380 l 224 283 q 280 137 224 197 q 422 77 336 77 q 580 155 523 77 q 637 370 637 232 q 584 551 637 486 q 439 617 530 617 q 283 550 342 617 q 224 380 224 482 z "},"ÿ":{"ha":672,"x_min":9,"x_max":665,"o":"m 665 694 l 346 -111 q 106 -327 260 -327 q 33 -318 62 -327 l 33 -218 q 99 -231 69 -231 q 225 -130 183 -231 l 281 1 l 9 694 l 133 694 l 321 160 q 335 107 324 150 l 339 107 q 353 159 342 123 l 550 694 l 665 694 m 467 826 q 420 845 440 826 q 401 893 401 864 q 420 941 401 922 q 466 960 439 960 q 514 940 494 960 q 534 893 534 921 q 515 846 534 865 q 467 826 496 826 m 207 826 q 158 846 178 826 q 138 893 138 866 q 158 941 138 922 q 205 960 177 960 q 253 940 233 960 q 273 893 273 921 q 254 846 273 865 q 207 826 234 826 z "},"Ā":{"ha":896,"x_min":15,"x_max":880,"o":"m 880 0 l 754 0 l 651 273 l 239 273 l 142 0 l 15 0 l 388 972 l 506 972 l 880 0 m 614 375 l 461 789 q 446 854 454 810 l 444 854 q 428 789 437 813 l 277 375 l 614 375 m 618 1063 l 274 1063 l 274 1137 l 618 1137 l 618 1063 z "},"ā":{"ha":707,"x_min":61,"x_max":610,"o":"m 610 0 l 498 0 l 498 109 l 496 109 q 282 -16 423 -16 q 120 39 178 -16 q 61 184 61 94 q 290 411 61 379 l 498 440 q 355 617 498 617 q 129 532 230 617 l 129 646 q 365 711 231 711 q 610 452 610 711 l 610 0 m 498 351 l 331 328 q 214 290 254 317 q 175 193 175 262 q 211 110 175 142 q 308 77 248 77 q 445 135 391 77 q 498 282 498 193 l 498 351 m 543 826 l 199 826 l 199 900 l 543 900 l 543 826 z "},"Ă":{"ha":896,"x_min":15,"x_max":880,"o":"m 880 0 l 754 0 l 651 273 l 239 273 l 142 0 l 15 0 l 388 972 l 506 972 l 880 0 m 614 375 l 461 789 q 446 854 454 810 l 444 854 q 428 789 437 813 l 277 375 l 614 375 m 632 1234 q 572 1110 625 1158 q 444 1063 519 1063 q 314 1109 364 1063 q 260 1234 263 1156 l 328 1234 q 445 1128 336 1128 q 524 1157 491 1128 q 563 1234 557 1185 l 632 1234 z "},"ă":{"ha":707,"x_min":61,"x_max":610,"o":"m 610 0 l 498 0 l 498 109 l 496 109 q 282 -16 423 -16 q 120 39 178 -16 q 61 184 61 94 q 290 411 61 379 l 498 440 q 355 617 498 617 q 129 532 230 617 l 129 646 q 365 711 231 711 q 610 452 610 711 l 610 0 m 498 351 l 331 328 q 214 290 254 317 q 175 193 175 262 q 211 110 175 142 q 308 77 248 77 q 445 135 391 77 q 498 282 498 193 l 498 351 m 546 997 q 486 873 539 921 q 357 826 433 826 q 228 873 278 826 q 174 997 177 920 l 242 997 q 359 892 250 892 q 438 920 405 892 q 477 997 471 949 l 546 997 z "},"Ą":{"ha":896,"x_min":15,"x_max":910,"o":"m 910 -214 q 823 -229 871 -229 q 742 -198 772 -229 q 711 -113 711 -166 q 754 0 711 -68 l 651 273 l 239 273 l 142 0 l 15 0 l 388 972 l 506 972 l 880 0 l 838 0 q 798 -113 798 -68 q 843 -157 798 -157 q 910 -140 876 -157 l 910 -214 m 614 375 l 461 789 q 446 854 453 812 l 444 854 q 428 789 435 811 l 277 375 l 614 375 z "},"ą":{"ha":707,"x_min":61,"x_max":654,"o":"m 654 -214 q 568 -229 616 -229 q 486 -197 517 -229 q 456 -113 456 -165 q 499 0 456 -68 q 498 109 499 100 l 496 109 q 282 -16 422 -16 q 120 39 179 -16 q 61 184 61 94 q 290 411 61 379 l 498 440 q 355 617 498 617 q 129 532 229 617 l 129 646 q 234 691 164 671 q 365 711 303 711 q 610 452 610 711 l 610 0 l 582 0 q 542 -113 542 -68 q 587 -157 542 -157 q 654 -140 621 -157 l 654 -214 m 498 282 l 498 351 l 331 328 q 214 290 254 317 q 175 193 175 262 q 211 109 175 141 q 308 77 247 77 q 445 136 391 77 q 498 282 498 195 z "},"Ć":{"ha":860,"x_min":64,"x_max":789,"o":"m 789 41 q 521 -16 682 -16 q 189 117 313 -16 q 64 468 64 251 q 204 845 64 701 q 560 989 345 989 q 789 949 699 989 l 789 827 q 559 886 685 886 q 287 774 391 886 q 183 475 183 662 q 280 192 183 297 q 536 86 378 86 q 789 151 682 86 l 789 41 m 673 1284 l 496 1062 l 410 1062 l 561 1284 l 673 1284 z "},"ć":{"ha":642,"x_min":65,"x_max":587,"o":"m 586 32 q 396 -16 506 -16 q 156 80 248 -16 q 65 331 65 177 q 163 607 65 503 q 426 711 262 711 q 587 677 517 711 l 587 563 q 422 617 510 617 q 247 541 315 617 q 179 340 179 465 q 243 148 179 218 q 415 77 307 77 q 586 138 506 77 l 586 32 m 553 1048 l 375 826 l 289 826 l 440 1048 l 553 1048 z "},"Ĉ":{"ha":860,"x_min":64,"x_max":789,"o":"m 789 41 q 521 -16 682 -16 q 189 117 313 -16 q 64 468 64 251 q 204 845 64 701 q 560 989 345 989 q 789 949 699 989 l 789 827 q 559 886 685 886 q 287 774 391 886 q 183 475 183 662 q 280 192 183 297 q 536 86 378 86 q 789 151 682 86 l 789 41 m 710 1063 l 627 1063 l 516 1219 l 404 1063 l 328 1063 l 473 1289 l 564 1289 l 710 1063 z "},"ĉ":{"ha":642,"x_min":65,"x_max":587,"o":"m 586 32 q 396 -16 506 -16 q 156 80 248 -16 q 65 331 65 177 q 163 607 65 503 q 426 711 262 711 q 587 677 517 711 l 587 563 q 422 617 510 617 q 247 541 315 617 q 179 340 179 465 q 243 148 179 218 q 415 77 307 77 q 586 138 506 77 l 586 32 m 570 826 l 487 826 l 376 982 l 264 826 l 187 826 l 333 1051 l 423 1051 l 570 826 z "},"Ċ":{"ha":860,"x_min":64,"x_max":789,"o":"m 789 41 q 521 -16 682 -16 q 189 117 313 -16 q 64 468 64 251 q 204 845 64 701 q 560 989 345 989 q 789 949 699 989 l 789 827 q 559 886 685 886 q 287 774 391 886 q 183 475 183 662 q 280 192 183 297 q 536 86 378 86 q 789 151 682 86 l 789 41 m 521 1063 q 474 1082 494 1063 q 454 1130 454 1101 q 473 1176 454 1157 q 521 1195 493 1195 q 568 1176 549 1195 q 587 1130 587 1158 q 568 1082 587 1102 q 521 1063 549 1063 z "},"ċ":{"ha":642,"x_min":65,"x_max":587,"o":"m 586 32 q 396 -16 506 -16 q 156 80 248 -16 q 65 331 65 177 q 163 607 65 503 q 426 711 262 711 q 587 677 517 711 l 587 563 q 422 617 510 617 q 247 541 315 617 q 179 340 179 465 q 243 148 179 218 q 415 77 307 77 q 586 138 506 77 l 586 32 m 404 826 q 356 845 376 826 q 336 893 336 865 q 356 939 336 920 q 404 958 376 958 q 451 940 431 958 q 470 893 470 921 q 451 846 470 865 q 404 826 431 826 z "},"Č":{"ha":860,"x_min":64,"x_max":789,"o":"m 789 41 q 521 -16 682 -16 q 189 117 313 -16 q 64 468 64 251 q 204 845 64 701 q 560 989 345 989 q 789 949 699 989 l 789 827 q 559 886 685 886 q 287 774 391 886 q 183 475 183 662 q 280 192 183 297 q 536 86 378 86 q 789 151 682 86 l 789 41 m 715 1286 l 570 1062 l 480 1062 l 334 1286 l 412 1286 l 523 1131 l 634 1286 l 715 1286 z "},"č":{"ha":642,"x_min":65,"x_max":587,"o":"m 586 32 q 396 -16 506 -16 q 156 80 248 -16 q 65 331 65 177 q 163 607 65 503 q 426 711 262 711 q 587 677 517 711 l 587 563 q 422 617 510 617 q 247 541 315 617 q 179 340 179 465 q 243 148 179 218 q 415 77 307 77 q 586 138 506 77 l 586 32 m 582 1050 l 437 826 l 347 826 l 201 1050 l 279 1050 l 390 895 l 501 1050 l 582 1050 z "},"Ď":{"ha":974,"x_min":127,"x_max":910,"o":"m 127 0 l 127 972 l 396 972 q 910 498 910 972 q 767 137 910 273 q 385 0 625 0 l 127 0 m 241 869 l 241 103 l 387 103 q 684 205 578 103 q 791 496 791 308 q 393 869 791 869 l 241 869 m 652 1286 l 507 1062 l 418 1062 l 271 1286 l 349 1286 l 460 1131 l 572 1286 l 652 1286 z "},"ď":{"ha":937,"x_min":65,"x_max":989,"o":"m 705 0 l 594 0 l 594 118 l 591 118 q 353 -16 514 -16 q 143 77 222 -16 q 65 331 65 170 q 152 607 65 503 q 383 711 239 711 q 591 598 526 711 l 594 598 l 594 1028 l 705 1028 l 705 0 m 594 314 l 594 416 q 538 559 594 500 q 397 617 483 617 q 237 543 296 617 q 179 336 179 468 q 235 147 179 216 q 385 77 291 77 q 536 144 478 77 q 594 314 594 212 m 989 1028 l 877 852 l 793 852 l 873 1028 l 989 1028 z "},"Đ":{"ha":974,"x_min":19,"x_max":910,"o":"m 127 0 l 127 435 l 19 435 l 19 540 l 127 540 l 127 972 l 396 972 q 910 498 910 972 q 767 136 910 272 q 385 0 625 0 l 127 0 m 241 869 l 241 540 l 469 540 l 469 435 l 241 435 l 241 103 l 387 103 q 684 205 578 103 q 791 496 791 308 q 393 869 791 869 l 241 869 z "},"đ":{"ha":818,"x_min":65,"x_max":798,"o":"m 705 0 l 594 0 l 594 118 l 591 118 q 353 -16 514 -16 q 143 77 222 -16 q 65 331 65 170 q 152 607 65 503 q 383 711 239 711 q 591 598 524 711 l 594 598 l 594 815 l 370 815 l 370 906 l 594 906 l 594 1028 l 705 1028 l 705 906 l 798 906 l 798 815 l 705 815 l 705 0 m 594 314 l 594 416 q 538 559 594 500 q 397 617 483 617 q 237 543 296 617 q 179 336 179 468 q 235 147 179 216 q 385 77 291 77 q 536 144 477 77 q 594 314 594 212 z "},"Ē":{"ha":703,"x_min":127,"x_max":643,"o":"m 643 0 l 127 0 l 127 972 l 621 972 l 621 869 l 241 869 l 241 546 l 593 546 l 593 444 l 241 444 l 241 103 l 643 103 l 643 0 m 559 1062 l 214 1062 l 214 1136 l 559 1136 l 559 1062 z "},"ē":{"ha":726,"x_min":65,"x_max":671,"o":"m 671 319 l 180 319 q 243 140 183 203 q 407 77 302 77 q 623 155 524 77 l 623 50 q 380 -16 531 -16 q 149 78 233 -16 q 65 345 65 173 q 157 609 65 507 q 385 711 249 711 q 596 623 522 711 q 671 378 671 534 l 671 319 m 557 414 q 510 564 556 510 q 383 617 465 617 q 250 561 304 617 q 182 414 195 505 l 557 414 m 556 826 l 212 826 l 212 900 l 556 900 l 556 826 z "},"Ĕ":{"ha":703,"x_min":127,"x_max":643,"o":"m 643 0 l 127 0 l 127 972 l 621 972 l 621 869 l 241 869 l 241 546 l 593 546 l 593 444 l 241 444 l 241 103 l 643 103 l 643 0 m 562 1234 q 502 1111 555 1158 q 373 1063 449 1063 q 243 1110 294 1063 q 190 1234 193 1157 l 258 1234 q 374 1129 266 1129 q 453 1158 420 1129 q 493 1234 486 1186 l 562 1234 z "},"ĕ":{"ha":726,"x_min":65,"x_max":671,"o":"m 671 319 l 180 319 q 243 140 183 203 q 407 77 302 77 q 623 155 524 77 l 623 50 q 380 -16 531 -16 q 149 78 233 -16 q 65 345 65 173 q 157 609 65 507 q 385 711 249 711 q 596 623 522 711 q 671 378 671 534 l 671 319 m 557 414 q 510 564 556 510 q 383 617 465 617 q 250 561 304 617 q 182 414 195 505 l 557 414 m 563 997 q 503 873 556 921 q 374 826 450 826 q 244 873 295 826 q 191 997 194 920 l 259 997 q 376 892 267 892 q 455 920 422 892 q 494 997 488 949 l 563 997 z "},"Ė":{"ha":703,"x_min":127,"x_max":643,"o":"m 643 0 l 127 0 l 127 972 l 621 972 l 621 869 l 241 869 l 241 546 l 593 546 l 593 444 l 241 444 l 241 103 l 643 103 l 643 0 m 373 1063 q 326 1082 346 1063 q 306 1130 306 1101 q 326 1176 306 1157 q 373 1195 345 1195 q 420 1176 401 1195 q 439 1130 439 1158 q 420 1082 439 1102 q 373 1063 401 1063 z "},"ė":{"ha":726,"x_min":65,"x_max":671,"o":"m 671 319 l 180 319 q 243 140 183 203 q 407 77 302 77 q 623 155 524 77 l 623 50 q 380 -16 531 -16 q 149 78 233 -16 q 65 345 65 173 q 157 609 65 507 q 385 711 249 711 q 596 623 522 711 q 671 378 671 534 l 671 319 m 557 414 q 510 564 556 510 q 383 617 465 617 q 250 561 304 617 q 182 414 195 505 l 557 414 m 391 826 q 343 845 363 826 q 323 893 323 865 q 343 939 323 920 q 391 958 363 958 q 438 940 418 958 q 457 893 457 921 q 438 846 457 865 q 391 826 418 826 z "},"Ę":{"ha":703,"x_min":127,"x_max":643,"o":"m 627 -214 q 541 -229 589 -229 q 459 -197 489 -229 q 429 -113 429 -165 q 472 0 429 -68 l 127 0 l 127 972 l 621 972 l 621 869 l 241 869 l 241 546 l 593 546 l 593 444 l 241 444 l 241 103 l 643 103 l 643 0 l 555 0 q 514 -113 514 -68 q 560 -157 514 -157 q 627 -140 594 -157 l 627 -214 z "},"ę":{"ha":726,"x_min":65,"x_max":671,"o":"m 507 -214 q 420 -229 469 -229 q 339 -198 370 -229 q 308 -113 308 -166 q 342 -15 308 -70 q 138 92 211 -2 q 65 345 65 186 q 157 609 65 507 q 385 711 248 711 q 596 623 522 711 q 671 378 671 534 l 671 319 l 180 319 q 243 140 184 202 q 407 77 302 77 q 623 155 525 77 l 623 50 q 426 -15 548 -4 q 395 -113 395 -71 q 440 -157 395 -157 q 507 -140 473 -157 l 507 -214 m 557 414 q 510 564 556 511 q 383 617 465 617 q 250 561 304 617 q 182 414 195 505 l 557 414 z "},"Ě":{"ha":703,"x_min":127,"x_max":643,"o":"m 643 0 l 127 0 l 127 972 l 621 972 l 621 869 l 241 869 l 241 546 l 593 546 l 593 444 l 241 444 l 241 103 l 643 103 l 643 0 m 570 1286 l 425 1062 l 336 1062 l 189 1286 l 267 1286 l 378 1131 l 490 1286 l 570 1286 z "},"ě":{"ha":726,"x_min":65,"x_max":671,"o":"m 671 319 l 180 319 q 243 140 183 203 q 407 77 302 77 q 623 155 524 77 l 623 50 q 380 -16 531 -16 q 149 78 233 -16 q 65 345 65 173 q 157 609 65 507 q 385 711 249 711 q 596 623 522 711 q 671 378 671 534 l 671 319 m 557 414 q 510 564 556 510 q 383 617 465 617 q 250 561 304 617 q 182 414 195 505 l 557 414 m 572 1050 l 427 826 l 338 826 l 191 1050 l 269 1050 l 380 895 l 492 1050 l 572 1050 z "},"Ĝ":{"ha":953,"x_min":64,"x_max":854,"o":"m 854 66 q 529 -16 708 -16 q 192 118 321 -16 q 64 473 64 252 q 207 844 64 699 q 568 989 349 989 q 835 937 727 989 l 835 811 q 555 886 717 886 q 288 773 392 886 q 183 481 183 661 q 280 192 183 297 q 543 86 377 86 q 741 132 657 86 l 741 404 l 528 404 l 528 507 l 854 507 l 854 66 m 720 1063 l 637 1063 l 526 1219 l 414 1063 l 337 1063 l 483 1289 l 573 1289 l 720 1063 z "},"ĝ":{"ha":818,"x_min":65,"x_max":705,"o":"m 705 56 q 339 -327 705 -327 q 114 -278 210 -327 l 114 -167 q 338 -232 231 -232 q 594 41 594 -232 l 594 117 l 591 117 q 353 -16 512 -16 q 144 76 223 -16 q 65 325 65 169 q 150 606 65 502 q 383 711 235 711 q 591 598 524 711 l 594 598 l 594 694 l 705 694 l 705 56 m 594 314 l 594 416 q 538 558 594 499 q 399 617 482 617 q 237 542 296 617 q 179 332 179 467 q 235 147 179 216 q 383 77 291 77 q 535 144 477 77 q 594 314 594 210 m 587 826 l 504 826 l 393 982 l 281 826 l 204 826 l 350 1051 l 440 1051 l 587 826 z "},"Ğ":{"ha":953,"x_min":64,"x_max":854,"o":"m 854 66 q 529 -16 708 -16 q 192 118 321 -16 q 64 473 64 252 q 207 844 64 699 q 568 989 349 989 q 835 937 727 989 l 835 811 q 555 886 717 886 q 288 773 392 886 q 183 481 183 661 q 280 192 183 297 q 543 86 377 86 q 741 132 657 86 l 741 404 l 528 404 l 528 507 l 854 507 l 854 66 m 724 1234 q 665 1110 718 1158 q 536 1063 612 1063 q 406 1109 456 1063 q 353 1234 355 1156 l 420 1234 q 537 1128 429 1128 q 616 1157 583 1128 q 655 1234 649 1185 l 724 1234 z "},"ğ":{"ha":818,"x_min":65,"x_max":705,"o":"m 705 56 q 339 -327 705 -327 q 114 -278 210 -327 l 114 -167 q 338 -232 231 -232 q 594 41 594 -232 l 594 117 l 591 117 q 353 -16 512 -16 q 144 76 223 -16 q 65 325 65 169 q 150 606 65 502 q 383 711 235 711 q 591 598 524 711 l 594 598 l 594 694 l 705 694 l 705 56 m 594 314 l 594 416 q 538 558 594 499 q 399 617 482 617 q 237 542 296 617 q 179 332 179 467 q 235 147 179 216 q 383 77 291 77 q 535 144 477 77 q 594 314 594 210 m 588 997 q 528 873 581 921 q 399 826 475 826 q 270 873 320 826 q 216 997 219 920 l 284 997 q 401 892 292 892 q 480 920 447 892 q 519 997 513 949 l 588 997 z "},"Ġ":{"ha":953,"x_min":64,"x_max":854,"o":"m 854 66 q 529 -16 708 -16 q 192 118 321 -16 q 64 473 64 252 q 207 844 64 699 q 568 989 349 989 q 835 937 727 989 l 835 811 q 555 886 717 886 q 288 773 392 886 q 183 481 183 661 q 280 192 183 297 q 543 86 377 86 q 741 132 657 86 l 741 404 l 528 404 l 528 507 l 854 507 l 854 66 m 541 1063 q 494 1082 514 1063 q 474 1130 474 1101 q 494 1176 474 1157 q 541 1195 513 1195 q 588 1176 569 1195 q 608 1130 608 1158 q 588 1082 608 1102 q 541 1063 569 1063 z "},"ġ":{"ha":818,"x_min":65,"x_max":705,"o":"m 705 56 q 339 -327 705 -327 q 114 -278 210 -327 l 114 -167 q 338 -232 231 -232 q 594 41 594 -232 l 594 117 l 591 117 q 353 -16 512 -16 q 144 76 223 -16 q 65 325 65 169 q 150 606 65 502 q 383 711 235 711 q 591 598 524 711 l 594 598 l 594 694 l 705 694 l 705 56 m 594 314 l 594 416 q 538 558 594 499 q 399 617 482 617 q 237 542 296 617 q 179 332 179 467 q 235 147 179 216 q 383 77 291 77 q 535 144 477 77 q 594 314 594 210 m 390 826 q 343 845 363 826 q 323 893 323 865 q 342 939 323 920 q 390 958 362 958 q 437 940 418 958 q 456 893 456 921 q 437 846 456 865 q 390 826 418 826 z "},"Ģ":{"ha":953,"x_min":64,"x_max":854,"o":"m 854 66 q 529 -16 708 -16 q 192 118 321 -16 q 64 473 64 252 q 207 844 64 699 q 568 989 349 989 q 835 937 727 989 l 835 811 q 555 886 717 886 q 288 773 392 886 q 183 481 183 661 q 280 192 183 297 q 543 86 377 86 q 741 132 657 86 l 741 404 l 528 404 l 528 507 l 854 507 l 854 66 m 600 -81 l 488 -257 l 404 -257 l 484 -81 l 600 -81 z "},"ģ":{"ha":818,"x_min":65,"x_max":705,"o":"m 705 56 q 339 -327 705 -327 q 114 -278 208 -327 l 114 -167 q 338 -232 232 -232 q 594 41 594 -232 l 594 117 l 591 117 q 353 -16 513 -16 q 144 77 224 -16 q 65 325 65 170 q 150 606 65 502 q 383 711 235 711 q 591 598 525 711 l 594 598 l 594 694 l 705 694 l 705 56 m 594 314 l 594 416 q 538 558 594 498 q 399 617 483 617 q 237 542 294 617 q 179 332 179 467 q 235 147 179 217 q 383 77 292 77 q 536 143 477 77 q 594 314 594 210 m 319 826 l 432 1002 l 515 1002 l 436 826 l 319 826 z "},"Ĥ":{"ha":986,"x_min":127,"x_max":859,"o":"m 859 0 l 745 0 l 745 444 l 241 444 l 241 0 l 127 0 l 127 972 l 241 972 l 241 546 l 745 546 l 745 972 l 859 972 l 859 0 m 682 1062 l 600 1062 l 488 1218 l 376 1062 l 300 1062 l 446 1287 l 536 1287 l 682 1062 z "},"ĥ":{"ha":786,"x_min":113,"x_max":689,"o":"m 689 0 l 578 0 l 578 400 q 416 617 578 617 q 279 554 335 617 q 224 393 224 492 l 224 0 l 113 0 l 113 1028 l 224 1028 l 224 579 l 227 579 q 454 711 307 711 q 689 428 689 711 l 689 0 m 618 1117 l 536 1117 l 425 1273 l 313 1117 l 236 1117 l 382 1342 l 472 1342 l 618 1117 z "},"Ħ":{"ha":986,"x_min":19,"x_max":967,"o":"m 859 0 l 745 0 l 745 444 l 241 444 l 241 0 l 127 0 l 127 697 l 19 697 l 19 800 l 127 800 l 127 972 l 241 972 l 241 800 l 745 800 l 745 972 l 859 972 l 859 800 l 967 800 l 967 697 l 859 697 l 859 0 m 241 697 l 241 546 l 745 546 l 745 697 l 241 697 z "},"ħ":{"ha":786,"x_min":20,"x_max":689,"o":"m 689 0 l 578 0 l 578 400 q 416 617 578 617 q 279 554 335 617 q 224 393 224 492 l 224 0 l 113 0 l 113 815 l 20 815 l 20 906 l 113 906 l 113 1028 l 224 1028 l 224 906 l 449 906 l 449 815 l 224 815 l 224 579 l 227 579 q 454 711 308 711 q 629 638 568 711 q 689 428 689 566 l 689 0 z "},"Ĩ":{"ha":370,"x_min":-32,"x_max":403,"o":"m 336 972 l 336 875 l 241 875 l 241 98 l 336 98 l 336 0 l 33 0 l 33 98 l 127 98 l 127 875 l 33 875 l 33 972 l 336 972 m 403 1223 q 370 1107 403 1152 q 282 1062 338 1062 q 172 1097 234 1062 q 92 1126 120 1126 q 32 1050 32 1126 l -32 1050 q 1 1166 -32 1122 q 92 1210 33 1210 q 193 1175 136 1210 q 279 1145 243 1145 q 336 1223 336 1145 l 403 1223 z "},"ĩ":{"ha":336,"x_min":-56,"x_max":379,"o":"m 224 0 l 113 0 l 113 694 l 224 694 l 224 0 m 379 989 q 347 872 379 918 q 258 827 314 827 q 149 863 210 827 q 68 892 96 892 q 8 815 8 892 l -56 815 q -23 931 -56 888 q 68 975 9 975 q 169 940 112 975 q 256 910 219 910 q 313 989 313 910 l 379 989 z "},"Ī":{"ha":370,"x_min":13,"x_max":357,"o":"m 336 972 l 336 875 l 241 875 l 241 98 l 336 98 l 336 0 l 33 0 l 33 98 l 127 98 l 127 875 l 33 875 l 33 972 l 336 972 m 357 1062 l 13 1062 l 13 1136 l 357 1136 l 357 1062 z "},"ī":{"ha":336,"x_min":-4,"x_max":340,"o":"m 224 0 l 113 0 l 113 694 l 224 694 l 224 0 m 340 826 l -4 826 l -4 900 l 340 900 l 340 826 z "},"Ĭ":{"ha":370,"x_min":-1,"x_max":370,"o":"m 336 972 l 336 875 l 241 875 l 241 98 l 336 98 l 336 0 l 33 0 l 33 98 l 127 98 l 127 875 l 33 875 l 33 972 l 336 972 m 370 1234 q 311 1110 363 1158 q 182 1063 258 1063 q 52 1109 102 1063 q -1 1234 1 1156 l 66 1234 q 183 1128 75 1128 q 262 1157 229 1128 q 301 1234 295 1185 l 370 1234 z "},"ĭ":{"ha":336,"x_min":-25,"x_max":347,"o":"m 224 0 l 113 0 l 113 694 l 224 694 l 224 0 m 347 997 q 287 873 340 921 q 158 826 234 826 q 28 873 79 826 q -25 997 -22 920 l 43 997 q 159 892 51 892 q 238 920 205 892 q 277 997 271 949 l 347 997 z "},"Į":{"ha":370,"x_min":33,"x_max":336,"o":"m 336 972 l 336 875 l 241 875 l 241 98 l 336 98 l 336 0 l 229 0 q 189 -113 189 -68 q 235 -157 189 -157 q 301 -140 267 -157 l 301 -214 q 215 -229 263 -229 q 133 -198 163 -229 q 102 -113 102 -166 q 145 0 102 -68 l 33 0 l 33 98 l 127 98 l 127 875 l 33 875 l 33 972 l 336 972 z "},"į":{"ha":336,"x_min":71,"x_max":269,"o":"m 170 871 q 119 891 140 871 q 98 943 98 911 q 119 995 98 974 q 170 1015 140 1015 q 221 995 200 1015 q 243 943 243 974 q 221 892 243 913 q 170 871 199 871 m 269 -214 q 183 -229 231 -229 q 101 -197 132 -229 q 71 -113 71 -165 q 114 0 71 -68 l 113 0 l 113 694 l 224 694 l 224 0 l 197 0 q 157 -113 157 -68 q 202 -157 157 -157 q 269 -140 236 -157 l 269 -214 z "},"İ":{"ha":370,"x_min":33,"x_max":336,"o":"m 336 972 l 336 875 l 241 875 l 241 98 l 336 98 l 336 0 l 33 0 l 33 98 l 127 98 l 127 875 l 33 875 l 33 972 l 336 972 m 184 1063 q 137 1082 157 1063 q 117 1130 117 1101 q 137 1176 117 1157 q 184 1195 157 1195 q 232 1176 212 1195 q 251 1130 251 1158 q 232 1082 251 1102 q 184 1063 212 1063 z "},"ı":{"ha":336,"x_min":113,"x_max":224,"o":"m 224 0 l 113 0 l 113 694 l 224 694 l 224 0 z "},"Ĳ":{"ha":865,"x_min":33,"x_max":747,"o":"m 336 972 l 336 875 l 241 875 l 241 98 l 336 98 l 336 0 l 33 0 l 33 98 l 127 98 l 127 875 l 33 875 l 33 972 l 336 972 m 747 349 q 674 80 747 176 q 478 -16 601 -16 q 385 0 421 -16 l 385 113 q 479 86 421 86 q 633 347 633 86 l 633 972 l 747 972 l 747 349 z "},"ĳ":{"ha":688,"x_min":98,"x_max":594,"o":"m 170 871 q 119 891 140 871 q 98 943 98 911 q 119 995 98 974 q 170 1015 140 1015 q 221 995 200 1015 q 243 943 243 974 q 221 892 243 913 q 170 871 200 871 m 224 0 l 113 0 l 113 694 l 224 694 l 224 0 m 575 29 q 506 -234 575 -142 q 309 -327 437 -327 q 217 -305 262 -327 l 217 -201 q 312 -232 267 -232 q 464 11 464 -232 l 464 694 l 575 694 l 575 29 m 521 871 q 470 891 491 871 q 449 943 449 911 q 470 995 449 974 q 521 1015 491 1015 q 573 995 551 1015 q 594 943 594 974 q 573 892 594 913 q 521 871 551 871 z "},"Ĵ":{"ha":496,"x_min":14,"x_max":511,"o":"m 376 349 q 303 80 376 176 q 107 -16 230 -16 q 14 0 50 -16 l 14 113 q 109 86 50 86 q 262 347 262 86 l 262 972 l 376 972 l 376 349 m 511 1062 l 429 1062 l 317 1218 l 205 1062 l 129 1062 l 275 1287 l 365 1287 l 511 1062 z "},"ĵ":{"ha":336,"x_min":-134,"x_max":357,"o":"m 357 826 l 275 826 l 164 982 l 52 826 l -25 826 l 121 1051 l 212 1051 l 357 826 m 224 29 q 155 -235 224 -143 q -42 -327 85 -327 q -134 -305 -93 -327 l -134 -201 q -39 -232 -82 -232 q 113 11 113 -232 l 113 694 l 224 694 l 224 29 z "},"Ķ":{"ha":806,"x_min":127,"x_max":804,"o":"m 804 0 l 646 0 l 270 445 q 244 479 249 470 l 241 479 l 241 0 l 127 0 l 127 972 l 241 972 l 241 515 l 244 515 q 270 549 254 530 l 633 972 l 775 972 l 358 506 l 804 0 m 503 -81 l 391 -257 l 307 -257 l 387 -81 l 503 -81 z "},"ķ":{"ha":690,"x_min":113,"x_max":689,"o":"m 689 0 l 533 0 l 227 334 l 224 334 l 224 0 l 113 0 l 113 1028 l 224 1028 l 224 376 l 227 376 l 518 694 l 664 694 l 342 359 l 689 0 m 436 -81 l 323 -257 l 240 -257 l 319 -81 l 436 -81 z "},"ĸ":{"ha":690,"x_min":113,"x_max":689,"o":"m 689 0 l 533 0 l 227 334 l 224 334 l 224 0 l 113 0 l 113 694 l 224 694 l 224 376 l 227 376 l 518 694 l 664 694 l 342 359 l 689 0 z "},"Ĺ":{"ha":654,"x_min":127,"x_max":632,"o":"m 632 0 l 127 0 l 127 972 l 241 972 l 241 103 l 632 103 l 632 0 m 581 1284 l 403 1062 l 317 1062 l 468 1284 l 581 1284 z "},"ĺ":{"ha":336,"x_min":96,"x_max":360,"o":"m 224 0 l 113 0 l 113 1028 l 224 1028 l 224 0 m 360 1342 l 182 1120 l 96 1120 l 248 1342 l 360 1342 z "},"Ļ":{"ha":654,"x_min":127,"x_max":632,"o":"m 289 -292 l 289 -231 q 336 -235 314 -235 q 432 -174 432 -235 q 345 -121 432 -121 q 317 -123 336 -121 l 317 0 l 127 0 l 127 972 l 241 972 l 241 103 l 632 103 l 632 0 l 391 0 l 391 -71 q 485 -98 450 -71 q 519 -174 519 -126 q 333 -293 519 -293 q 289 -292 307 -293 z "},"ļ":{"ha":336,"x_min":93,"x_max":323,"o":"m 93 -292 l 93 -231 q 140 -235 118 -235 q 236 -174 236 -235 q 149 -121 236 -121 q 121 -123 140 -121 l 121 0 l 113 0 l 113 1028 l 224 1028 l 224 0 l 194 0 l 194 -71 q 288 -98 253 -71 q 323 -174 323 -126 q 137 -293 323 -293 q 93 -292 111 -293 z "},"Ľ":{"ha":654,"x_min":127,"x_max":632,"o":"m 632 0 l 127 0 l 127 972 l 241 972 l 241 103 l 632 103 l 632 0 m 614 972 l 501 796 l 418 796 l 497 972 l 614 972 z "},"ľ":{"ha":427,"x_min":113,"x_max":479,"o":"m 224 0 l 113 0 l 113 1028 l 224 1028 l 224 0 m 479 1024 l 367 848 l 283 848 l 363 1024 l 479 1024 z "},"Ŀ":{"ha":654,"x_min":127,"x_max":632,"o":"m 632 0 l 127 0 l 127 972 l 241 972 l 241 103 l 632 103 l 632 0 m 499 452 q 452 471 472 452 q 432 519 432 490 q 452 565 432 546 q 499 584 471 584 q 546 565 527 584 q 566 519 566 547 q 546 471 566 491 q 499 452 527 452 z "},"ŀ":{"ha":437,"x_min":113,"x_max":439,"o":"m 224 0 l 113 0 l 113 1028 l 224 1028 l 224 0 m 372 452 q 325 471 345 452 q 305 519 305 490 q 325 565 305 546 q 372 584 345 584 q 419 565 400 584 q 439 519 439 547 q 419 471 439 491 q 372 452 400 452 z "},"Ł":{"ha":654,"x_min":22,"x_max":632,"o":"m 632 0 l 127 0 l 127 371 l 22 305 l 22 408 l 127 473 l 127 972 l 241 972 l 241 545 l 464 682 l 464 578 l 241 442 l 241 103 l 632 103 l 632 0 z "},"ł":{"ha":380,"x_min":15,"x_max":359,"o":"m 359 550 l 241 467 l 241 0 l 130 0 l 130 392 l 15 311 l 15 418 l 130 498 l 130 1028 l 241 1028 l 241 574 l 359 656 l 359 550 z "},"Ń":{"ha":1039,"x_min":127,"x_max":911,"o":"m 911 0 l 772 0 l 271 775 q 240 836 252 804 l 236 836 q 241 703 241 805 l 241 0 l 127 0 l 127 972 l 275 972 l 762 210 q 802 144 793 162 l 804 144 q 798 288 798 186 l 798 972 l 911 972 l 911 0 m 682 1284 l 505 1062 l 418 1062 l 570 1284 l 682 1284 z "},"ń":{"ha":786,"x_min":113,"x_max":689,"o":"m 689 0 l 578 0 l 578 396 q 416 617 578 617 q 278 554 333 617 q 224 396 224 492 l 224 0 l 113 0 l 113 694 l 224 694 l 224 579 l 227 579 q 454 711 305 711 q 629 637 568 711 q 689 425 689 564 l 689 0 m 567 1048 l 389 826 l 303 826 l 454 1048 l 567 1048 z "},"Ņ":{"ha":1039,"x_min":127,"x_max":911,"o":"m 911 0 l 772 0 l 271 775 q 240 836 252 804 l 236 836 q 241 703 241 805 l 241 0 l 127 0 l 127 972 l 275 972 l 762 210 q 802 144 793 162 l 804 144 q 798 288 798 186 l 798 972 l 911 972 l 911 0 m 590 -81 l 477 -257 l 394 -257 l 473 -81 l 590 -81 z "},"ņ":{"ha":786,"x_min":113,"x_max":689,"o":"m 689 0 l 578 0 l 578 396 q 416 617 578 617 q 278 554 333 617 q 224 396 224 492 l 224 0 l 113 0 l 113 694 l 224 694 l 224 579 l 227 579 q 454 711 305 711 q 629 637 568 711 q 689 425 689 564 l 689 0 m 470 -81 l 357 -257 l 274 -257 l 353 -81 l 470 -81 z "},"Ň":{"ha":1039,"x_min":127,"x_max":911,"o":"m 911 0 l 772 0 l 271 775 q 240 836 252 804 l 236 836 q 241 703 241 805 l 241 0 l 127 0 l 127 972 l 275 972 l 762 210 q 802 144 793 162 l 804 144 q 798 288 798 186 l 798 972 l 911 972 l 911 0 m 709 1286 l 564 1062 l 475 1062 l 328 1286 l 406 1286 l 517 1131 l 629 1286 l 709 1286 z "},"ň":{"ha":786,"x_min":113,"x_max":689,"o":"m 689 0 l 578 0 l 578 396 q 416 617 578 617 q 278 554 333 617 q 224 396 224 492 l 224 0 l 113 0 l 113 694 l 224 694 l 224 579 l 227 579 q 454 711 305 711 q 629 637 568 711 q 689 425 689 564 l 689 0 m 598 1050 l 453 826 l 363 826 l 217 1050 l 295 1050 l 406 895 l 517 1050 l 598 1050 z "},"ŉ":{"ha":842,"x_min":-27,"x_max":745,"o":"m 745 0 l 633 0 l 633 396 q 472 617 633 617 q 334 554 389 617 q 279 396 279 492 l 279 0 l 168 0 l 168 694 l 279 694 l 279 579 l 282 579 q 510 711 361 711 q 684 637 624 711 q 745 425 745 564 l 745 0 m 148 989 l 53 686 l -27 686 l 48 989 l 148 989 z "},"Ŋ":{"ha":1039,"x_min":127,"x_max":911,"o":"m 271 775 q 240 836 256 797 l 236 836 q 241 703 241 800 l 241 0 l 127 0 l 127 972 l 275 972 l 762 250 q 802 179 764 248 l 804 179 q 798 328 798 228 l 798 972 l 911 972 l 911 43 q 664 -286 911 -286 q 571 -265 612 -286 l 571 -153 q 667 -183 624 -183 q 795 0 795 -183 l 271 775 z "},"ŋ":{"ha":786,"x_min":113,"x_max":689,"o":"m 689 18 q 446 -286 689 -286 q 353 -265 395 -286 l 353 -153 q 449 -183 406 -183 q 578 0 578 -183 l 578 396 q 416 617 578 617 q 279 554 334 617 q 224 396 224 492 l 224 0 l 113 0 l 113 694 l 224 694 l 224 579 l 227 579 q 454 711 306 711 q 689 425 689 711 l 689 18 z "},"Ō":{"ha":1047,"x_min":64,"x_max":983,"o":"m 519 -16 q 188 120 313 -16 q 64 475 64 256 q 191 849 64 709 q 536 989 317 989 q 860 853 737 989 q 983 498 983 718 q 857 122 983 260 q 519 -16 731 -16 m 528 886 q 279 775 374 886 q 183 485 183 665 q 276 196 183 305 q 519 86 370 86 q 772 191 680 86 q 864 483 864 295 q 774 781 864 675 q 528 886 685 886 m 700 1062 l 355 1062 l 355 1136 l 700 1136 l 700 1062 z "},"ō":{"ha":814,"x_min":65,"x_max":749,"o":"m 403 -16 q 157 81 249 -16 q 65 339 65 178 q 161 612 65 514 q 419 711 256 711 q 662 615 574 711 q 749 350 749 519 q 655 84 749 184 q 403 -16 561 -16 m 411 617 q 241 544 304 617 q 179 343 179 471 q 242 149 179 220 q 411 77 305 77 q 577 147 519 77 q 635 346 635 217 q 577 547 635 476 q 411 617 519 617 m 579 826 l 235 826 l 235 900 l 579 900 l 579 826 z "},"Ŏ":{"ha":1047,"x_min":64,"x_max":983,"o":"m 519 -16 q 188 120 313 -16 q 64 475 64 256 q 191 849 64 709 q 536 989 317 989 q 860 853 737 989 q 983 498 983 718 q 857 122 983 260 q 519 -16 731 -16 m 528 886 q 279 775 374 886 q 183 485 183 665 q 276 196 183 305 q 519 86 370 86 q 772 191 680 86 q 864 483 864 295 q 774 781 864 675 q 528 886 685 886 m 717 1234 q 657 1110 710 1158 q 528 1063 604 1063 q 398 1109 449 1063 q 345 1234 348 1156 l 413 1234 q 530 1128 421 1128 q 609 1157 576 1128 q 648 1234 642 1185 l 717 1234 z "},"ŏ":{"ha":814,"x_min":65,"x_max":749,"o":"m 403 -16 q 157 81 249 -16 q 65 339 65 178 q 161 612 65 514 q 419 711 256 711 q 662 615 574 711 q 749 350 749 519 q 655 84 749 184 q 403 -16 561 -16 m 411 617 q 241 544 304 617 q 179 343 179 471 q 242 149 179 220 q 411 77 305 77 q 577 147 519 77 q 635 346 635 217 q 577 547 635 476 q 411 617 519 617 m 606 997 q 547 873 600 921 q 418 826 494 826 q 288 873 338 826 q 235 997 237 920 l 302 997 q 419 892 311 892 q 498 920 465 892 q 537 997 531 949 l 606 997 z "},"Ő":{"ha":1047,"x_min":64,"x_max":983,"o":"m 519 -16 q 188 120 313 -16 q 64 475 64 256 q 191 849 64 709 q 536 989 317 989 q 860 853 737 989 q 983 498 983 718 q 857 122 983 260 q 519 -16 731 -16 m 528 886 q 279 775 374 886 q 183 485 183 665 q 276 196 183 305 q 519 86 370 86 q 772 191 680 86 q 864 483 864 295 q 774 781 864 675 q 528 886 685 886 m 765 1279 l 599 1063 l 533 1063 l 675 1279 l 765 1279 m 597 1279 l 435 1063 l 370 1063 l 509 1279 l 597 1279 z "},"ő":{"ha":814,"x_min":65,"x_max":749,"o":"m 403 -16 q 157 81 249 -16 q 65 339 65 178 q 161 612 65 514 q 419 711 256 711 q 662 615 574 711 q 749 350 749 519 q 655 84 749 184 q 403 -16 561 -16 m 411 617 q 241 544 304 617 q 179 343 179 471 q 242 149 179 220 q 411 77 305 77 q 577 147 519 77 q 635 346 635 217 q 577 547 635 476 q 411 617 519 617 m 655 1042 l 489 826 l 423 826 l 565 1042 l 655 1042 m 488 1042 l 325 826 l 260 826 l 399 1042 l 488 1042 z "},"Œ":{"ha":1293,"x_min":64,"x_max":1227,"o":"m 1227 0 l 739 0 q 646 -9 728 0 q 522 -16 579 -16 q 187 120 311 -16 q 64 475 64 256 q 192 849 64 709 q 541 989 321 989 q 662 982 602 989 q 739 972 738 972 l 1206 972 l 1206 869 l 826 869 l 826 546 l 1177 546 l 1177 444 l 826 444 l 826 103 l 1227 103 l 1227 0 m 712 109 l 712 867 q 530 886 604 886 q 279 773 375 886 q 183 485 183 661 q 278 198 183 310 q 526 86 372 86 q 712 109 605 86 z "},"œ":{"ha":1289,"x_min":65,"x_max":1238,"o":"m 1238 319 l 746 319 q 808 140 748 203 q 972 77 868 77 q 1189 155 1091 77 l 1189 50 q 947 -16 1097 -16 q 688 144 764 -16 l 685 144 q 403 -16 596 -16 q 156 81 248 -16 q 65 338 65 178 q 161 612 65 513 q 420 711 258 711 q 693 551 620 711 l 696 551 q 957 711 777 711 q 1164 622 1090 711 q 1238 379 1238 532 l 1238 319 m 1124 414 q 1077 564 1122 510 q 953 617 1031 617 q 815 559 871 617 q 747 414 758 501 l 1124 414 m 411 617 q 241 544 304 617 q 179 340 179 470 q 241 148 179 218 q 410 77 304 77 q 576 147 517 77 q 635 345 635 216 q 576 547 635 476 q 411 617 517 617 z "},"Ŕ":{"ha":831,"x_min":127,"x_max":825,"o":"m 825 0 l 689 0 l 526 273 q 483 337 504 311 q 440 381 462 364 q 392 406 418 398 q 335 414 367 414 l 241 414 l 241 0 l 127 0 l 127 972 l 418 972 q 535 957 481 972 q 629 908 589 941 q 691 827 669 876 q 713 713 713 779 q 698 620 713 663 q 655 545 683 578 q 587 488 627 511 q 498 452 547 465 l 498 449 q 540 424 522 438 q 574 391 558 410 q 607 348 591 372 q 642 292 623 324 l 825 0 m 241 869 l 241 517 l 396 517 q 475 530 439 517 q 538 567 511 543 q 579 626 564 591 q 594 704 594 661 q 544 826 594 782 q 397 869 493 869 l 241 869 m 593 1284 l 416 1062 l 330 1062 l 481 1284 l 593 1284 z "},"ŕ":{"ha":483,"x_min":113,"x_max":475,"o":"m 475 582 q 391 604 446 604 q 272 537 319 604 q 224 354 224 470 l 224 0 l 113 0 l 113 694 l 224 694 l 224 551 l 227 551 q 299 666 250 625 q 408 707 348 707 q 475 697 452 707 l 475 582 m 467 1048 l 289 826 l 203 826 l 354 1048 l 467 1048 z "},"Ŗ":{"ha":831,"x_min":127,"x_max":825,"o":"m 825 0 l 689 0 l 526 273 q 483 337 504 311 q 440 381 462 364 q 392 406 418 398 q 335 414 367 414 l 241 414 l 241 0 l 127 0 l 127 972 l 418 972 q 535 957 481 972 q 629 908 589 941 q 691 827 669 876 q 713 713 713 779 q 698 620 713 663 q 655 545 683 578 q 587 488 627 511 q 498 452 547 465 l 498 449 q 540 424 522 438 q 574 391 558 410 q 607 348 591 372 q 642 292 623 324 l 825 0 m 241 869 l 241 517 l 396 517 q 475 530 439 517 q 538 567 511 543 q 579 626 564 591 q 594 704 594 661 q 544 826 594 782 q 397 869 493 869 l 241 869 m 499 -81 l 387 -257 l 303 -257 l 382 -81 l 499 -81 z "},"ŗ":{"ha":483,"x_min":113,"x_max":475,"o":"m 475 582 q 391 604 446 604 q 272 537 319 604 q 224 354 224 470 l 224 0 l 113 0 l 113 694 l 224 694 l 224 551 l 227 551 q 299 666 250 625 q 408 707 348 707 q 475 697 452 707 l 475 582 m 361 -81 l 249 -257 l 165 -257 l 245 -81 l 361 -81 z "},"Ř":{"ha":831,"x_min":127,"x_max":825,"o":"m 825 0 l 689 0 l 526 273 q 483 337 504 311 q 440 381 462 364 q 392 406 418 398 q 335 414 367 414 l 241 414 l 241 0 l 127 0 l 127 972 l 418 972 q 535 957 481 972 q 629 908 589 941 q 691 827 669 876 q 713 713 713 779 q 698 620 713 663 q 655 545 683 578 q 587 488 627 511 q 498 452 547 465 l 498 449 q 540 424 522 438 q 574 391 558 410 q 607 348 591 372 q 642 292 623 324 l 825 0 m 241 869 l 241 517 l 396 517 q 475 530 439 517 q 538 567 511 543 q 579 626 564 591 q 594 704 594 661 q 544 826 594 782 q 397 869 493 869 l 241 869 m 604 1286 l 459 1062 l 370 1062 l 223 1286 l 301 1286 l 412 1131 l 524 1286 l 604 1286 z "},"ř":{"ha":483,"x_min":102,"x_max":484,"o":"m 475 582 q 391 604 446 604 q 272 537 319 604 q 224 354 224 470 l 224 0 l 113 0 l 113 694 l 224 694 l 224 551 l 227 551 q 299 666 250 625 q 408 707 348 707 q 475 697 452 707 l 475 582 m 484 1050 l 338 826 l 249 826 l 102 1050 l 180 1050 l 292 895 l 403 1050 l 484 1050 z "},"Ś":{"ha":738,"x_min":82,"x_max":671,"o":"m 82 39 l 82 174 q 137 137 105 153 q 205 110 170 121 q 277 92 241 98 q 343 86 313 86 q 500 125 448 86 q 552 237 552 164 q 535 306 552 277 q 487 359 517 335 q 415 405 456 383 q 325 452 373 427 q 230 504 274 477 q 153 562 186 530 q 102 634 121 594 q 83 729 83 675 q 113 845 83 795 q 189 926 142 894 q 297 973 237 958 q 421 989 358 989 q 631 954 565 989 l 631 826 q 410 886 545 886 q 335 878 372 886 q 269 852 298 870 q 221 807 239 835 q 203 739 203 779 q 217 675 203 702 q 258 625 231 648 q 324 582 285 603 q 414 536 363 561 q 513 481 466 510 q 595 418 559 453 q 651 342 630 384 q 671 245 671 300 q 643 124 671 174 q 567 43 615 74 q 457 -2 519 12 q 326 -16 395 -16 q 269 -13 302 -16 q 199 -2 235 -9 q 133 16 164 5 q 82 39 101 26 m 557 1284 l 379 1061 l 293 1061 l 444 1284 l 557 1284 z "},"ś":{"ha":589,"x_min":71,"x_max":531,"o":"m 71 25 l 71 144 q 271 77 161 77 q 417 175 417 77 q 405 222 417 203 q 371 256 392 241 q 320 283 349 271 q 258 308 292 295 q 177 345 212 326 q 119 387 142 363 q 84 440 96 410 q 72 510 72 470 q 94 596 72 559 q 154 660 117 634 q 239 698 191 685 q 338 711 287 711 q 499 680 428 711 l 499 567 q 323 617 422 617 q 267 610 292 617 q 223 590 241 603 q 196 559 205 577 q 186 519 186 541 q 196 474 186 492 q 224 441 205 456 q 271 416 243 427 q 332 391 298 404 q 415 354 378 373 q 477 312 452 336 q 517 258 503 289 q 531 186 531 228 q 508 96 531 134 q 448 33 486 58 q 360 -4 410 8 q 256 -16 311 -16 q 71 25 149 -16 m 484 1048 l 307 826 l 220 826 l 372 1048 l 484 1048 z "},"Ŝ":{"ha":738,"x_min":82,"x_max":671,"o":"m 82 39 l 82 174 q 137 137 105 153 q 205 110 170 121 q 277 92 241 98 q 343 86 313 86 q 500 125 448 86 q 552 237 552 164 q 535 306 552 277 q 487 359 517 335 q 415 405 456 383 q 325 452 373 427 q 230 504 274 477 q 153 562 186 530 q 102 634 121 594 q 83 729 83 675 q 113 845 83 795 q 189 926 142 894 q 297 973 237 958 q 421 989 358 989 q 631 954 565 989 l 631 826 q 410 886 545 886 q 335 878 372 886 q 269 852 298 870 q 221 807 239 835 q 203 739 203 779 q 217 675 203 702 q 258 625 231 648 q 324 582 285 603 q 414 536 363 561 q 513 481 466 510 q 595 418 559 453 q 651 342 630 384 q 671 245 671 300 q 643 124 671 174 q 567 43 615 74 q 457 -2 519 12 q 326 -16 395 -16 q 269 -13 302 -16 q 199 -2 235 -9 q 133 16 164 5 q 82 39 101 26 m 565 1062 l 482 1062 l 371 1218 l 259 1062 l 182 1062 l 328 1287 l 418 1287 l 565 1062 z "},"ŝ":{"ha":589,"x_min":71,"x_max":531,"o":"m 71 25 l 71 144 q 271 77 161 77 q 417 175 417 77 q 405 222 417 203 q 371 256 392 241 q 320 283 349 271 q 258 308 292 295 q 177 345 212 326 q 119 387 142 363 q 84 440 96 410 q 72 510 72 470 q 94 596 72 559 q 154 660 117 634 q 239 698 191 685 q 338 711 287 711 q 499 680 428 711 l 499 567 q 323 617 422 617 q 267 610 292 617 q 223 590 241 603 q 196 559 205 577 q 186 519 186 541 q 196 474 186 492 q 224 441 205 456 q 271 416 243 427 q 332 391 298 404 q 415 354 378 373 q 477 312 452 336 q 517 258 503 289 q 531 186 531 228 q 508 96 531 134 q 448 33 486 58 q 360 -4 410 8 q 256 -16 311 -16 q 71 25 149 -16 m 482 826 l 399 826 l 288 982 l 176 826 l 100 826 l 245 1051 l 336 1051 l 482 826 z "},"Ş":{"ha":738,"x_min":82,"x_max":671,"o":"m 82 39 l 82 174 q 137 137 105 153 q 205 110 170 121 q 277 92 241 98 q 343 86 313 86 q 500 125 448 86 q 552 237 552 164 q 535 306 552 277 q 487 359 517 335 q 415 405 456 383 q 325 452 373 427 q 230 504 274 477 q 153 562 186 530 q 102 634 121 594 q 83 729 83 675 q 113 845 83 795 q 189 926 142 894 q 297 973 237 958 q 421 989 358 989 q 631 954 565 989 l 631 826 q 410 886 545 886 q 335 878 372 886 q 269 852 298 870 q 221 807 239 835 q 203 739 203 779 q 217 675 203 702 q 258 625 231 648 q 324 582 285 603 q 414 536 363 561 q 513 481 466 510 q 595 418 559 453 q 651 342 630 384 q 671 245 671 300 q 649 136 671 182 q 589 58 627 90 q 499 10 551 27 q 389 -13 448 -7 l 389 -71 q 484 -98 448 -71 q 519 -174 519 -126 q 332 -293 519 -293 q 288 -292 307 -293 l 288 -231 q 335 -235 313 -235 q 431 -174 431 -235 q 343 -121 431 -121 q 316 -123 335 -121 l 316 -16 q 259 -12 292 -16 q 193 0 226 -7 q 130 17 159 7 q 82 39 100 27 z "},"ş":{"ha":589,"x_min":71,"x_max":531,"o":"m 71 25 l 71 144 q 271 77 161 77 q 417 175 417 77 q 405 222 417 203 q 371 256 392 241 q 320 283 349 271 q 258 308 292 295 q 177 345 212 326 q 119 387 142 363 q 84 440 96 410 q 72 510 72 470 q 94 596 72 559 q 154 660 117 634 q 239 698 191 685 q 338 711 287 711 q 499 680 428 711 l 499 567 q 323 617 422 617 q 267 610 292 617 q 223 590 241 603 q 196 559 205 577 q 186 519 186 541 q 196 474 186 492 q 224 441 205 456 q 271 416 243 427 q 332 391 298 404 q 415 354 378 373 q 477 312 452 336 q 517 258 503 289 q 531 186 531 228 q 514 106 531 141 q 467 47 496 72 q 397 7 437 22 q 312 -13 357 -7 l 312 -71 q 406 -99 371 -71 q 441 -174 441 -127 q 254 -293 441 -293 q 210 -292 229 -293 l 210 -231 q 258 -235 235 -235 q 353 -174 353 -235 q 266 -121 353 -121 q 237 -123 258 -121 l 237 -16 q 71 25 143 -13 z "},"Š":{"ha":738,"x_min":82,"x_max":671,"o":"m 82 39 l 82 174 q 137 137 105 153 q 205 110 170 121 q 277 92 241 98 q 343 86 313 86 q 500 125 448 86 q 552 237 552 164 q 535 306 552 277 q 487 359 517 335 q 415 405 456 383 q 325 452 373 427 q 230 504 274 477 q 153 562 186 530 q 102 634 121 594 q 83 729 83 675 q 113 845 83 795 q 189 926 142 894 q 297 973 237 958 q 421 989 358 989 q 631 954 565 989 l 631 826 q 410 886 545 886 q 335 878 372 886 q 269 852 298 870 q 221 807 239 835 q 203 739 203 779 q 217 675 203 702 q 258 625 231 648 q 324 582 285 603 q 414 536 363 561 q 513 481 466 510 q 595 418 559 453 q 651 342 630 384 q 671 245 671 300 q 643 124 671 174 q 567 43 615 74 q 457 -2 519 12 q 326 -16 395 -16 q 269 -13 302 -16 q 199 -2 235 -9 q 133 16 164 5 q 82 39 101 26 m 560 1287 l 415 1063 l 326 1063 l 179 1287 l 257 1287 l 368 1132 l 479 1287 l 560 1287 z "},"š":{"ha":589,"x_min":71,"x_max":531,"o":"m 71 25 l 71 144 q 271 77 161 77 q 417 175 417 77 q 405 222 417 203 q 371 256 392 241 q 320 283 349 271 q 258 308 292 295 q 177 345 212 326 q 119 387 142 363 q 84 440 96 410 q 72 510 72 470 q 94 596 72 559 q 154 660 117 634 q 239 698 191 685 q 338 711 287 711 q 499 680 428 711 l 499 567 q 323 617 422 617 q 267 610 292 617 q 223 590 241 603 q 196 559 205 577 q 186 519 186 541 q 196 474 186 492 q 224 441 205 456 q 271 416 243 427 q 332 391 298 404 q 415 354 378 373 q 477 312 452 336 q 517 258 503 289 q 531 186 531 228 q 508 96 531 134 q 448 33 486 58 q 360 -4 410 8 q 256 -16 311 -16 q 71 25 149 -16 m 463 1050 l 317 826 l 228 826 l 81 1050 l 159 1050 l 271 895 l 382 1050 l 463 1050 z "},"Ţ":{"ha":728,"x_min":28,"x_max":703,"o":"m 288 -292 l 288 -231 q 335 -235 313 -235 q 431 -174 431 -235 q 343 -121 431 -121 q 315 -123 335 -121 l 315 0 l 308 0 l 308 869 l 28 869 l 28 972 l 703 972 l 703 869 l 422 869 l 422 0 l 389 0 l 389 -71 q 483 -98 448 -71 q 518 -174 518 -126 q 332 -293 518 -293 q 288 -292 306 -293 z "},"ţ":{"ha":471,"x_min":29,"x_max":452,"o":"m 221 -292 l 221 -231 q 269 -235 245 -235 q 363 -174 363 -235 q 277 -121 363 -121 q 248 -123 269 -121 l 248 -2 q 149 189 149 35 l 149 600 l 29 600 l 29 694 l 149 694 l 149 864 q 204 882 151 865 l 260 900 l 260 694 l 435 694 l 435 600 l 260 600 l 260 208 q 283 109 260 138 q 362 79 307 79 q 435 102 403 79 l 435 7 q 331 -15 393 -16 l 322 -15 l 322 -71 q 416 -99 381 -71 q 452 -174 452 -127 q 265 -293 452 -293 q 221 -292 239 -293 z "},"Ť":{"ha":728,"x_min":28,"x_max":703,"o":"m 703 869 l 422 869 l 422 0 l 308 0 l 308 869 l 28 869 l 28 972 l 703 972 l 703 869 m 557 1286 l 412 1062 l 322 1062 l 176 1286 l 254 1286 l 365 1131 l 476 1286 l 557 1286 z "},"ť":{"ha":611,"x_min":29,"x_max":664,"o":"m 435 7 q 331 -15 395 -15 q 149 189 149 -15 l 149 600 l 29 600 l 29 694 l 149 694 l 149 864 l 260 900 l 260 694 l 435 694 l 435 600 l 260 600 l 260 208 q 283 109 260 138 q 362 79 307 79 q 435 102 404 79 l 435 7 m 664 945 l 551 769 l 468 769 l 547 945 l 664 945 z "},"Ŧ":{"ha":728,"x_min":28,"x_max":703,"o":"m 703 869 l 422 869 l 422 540 l 589 540 l 589 435 l 422 435 l 422 0 l 308 0 l 308 435 l 139 435 l 139 540 l 308 540 l 308 869 l 28 869 l 28 972 l 703 972 l 703 869 z "},"ŧ":{"ha":471,"x_min":29,"x_max":435,"o":"m 428 371 l 260 371 l 260 208 q 283 109 260 138 q 362 79 307 79 q 435 102 403 79 l 435 7 q 331 -15 395 -15 q 149 189 149 -15 l 149 371 l 38 371 l 38 461 l 149 461 l 149 600 l 29 600 l 29 694 l 149 694 l 149 864 q 204 882 151 865 l 260 900 l 260 694 l 435 694 l 435 600 l 260 600 l 260 461 l 428 461 l 428 371 z "},"Ũ":{"ha":954,"x_min":115,"x_max":839,"o":"m 839 393 q 469 -16 839 -16 q 115 378 115 -16 l 115 972 l 229 972 l 229 385 q 481 86 229 86 q 725 375 725 86 l 725 972 l 839 972 l 839 393 m 696 1225 q 664 1108 696 1154 q 576 1063 631 1063 q 466 1099 528 1063 q 385 1128 414 1128 q 326 1051 326 1128 l 262 1051 q 294 1167 262 1124 q 385 1211 327 1211 q 486 1176 429 1211 q 573 1146 536 1146 q 630 1225 630 1146 l 696 1225 z "},"ũ":{"ha":786,"x_min":98,"x_max":674,"o":"m 674 0 l 563 0 l 563 110 l 560 110 q 346 -16 491 -16 q 98 279 98 -16 l 98 694 l 208 694 l 208 297 q 376 77 208 77 q 510 137 458 77 q 563 294 563 197 l 563 694 l 674 694 l 674 0 m 604 989 q 571 872 604 918 q 483 827 538 827 q 373 863 435 827 q 292 892 321 892 q 233 815 233 892 l 169 815 q 201 931 169 888 q 292 975 234 975 q 393 940 336 975 q 480 910 444 910 q 537 989 537 910 l 604 989 z "},"Ū":{"ha":954,"x_min":115,"x_max":839,"o":"m 839 393 q 469 -16 839 -16 q 115 378 115 -16 l 115 972 l 229 972 l 229 385 q 481 86 229 86 q 725 375 725 86 l 725 972 l 839 972 l 839 393 m 649 1062 l 304 1062 l 304 1136 l 649 1136 l 649 1062 z "},"ū":{"ha":786,"x_min":98,"x_max":674,"o":"m 674 0 l 563 0 l 563 110 l 560 110 q 346 -16 491 -16 q 98 279 98 -16 l 98 694 l 208 694 l 208 297 q 376 77 208 77 q 510 137 458 77 q 563 294 563 197 l 563 694 l 674 694 l 674 0 m 555 826 l 211 826 l 211 900 l 555 900 l 555 826 z "},"Ŭ":{"ha":954,"x_min":115,"x_max":839,"o":"m 839 393 q 469 -16 839 -16 q 115 378 115 -16 l 115 972 l 229 972 l 229 385 q 481 86 229 86 q 725 375 725 86 l 725 972 l 839 972 l 839 393 m 663 1234 q 603 1110 656 1158 q 474 1063 550 1063 q 344 1109 395 1063 q 291 1234 294 1156 l 359 1234 q 475 1128 367 1128 q 554 1157 522 1128 q 593 1234 587 1185 l 663 1234 z "},"ŭ":{"ha":786,"x_min":98,"x_max":674,"o":"m 674 0 l 563 0 l 563 110 l 560 110 q 346 -16 491 -16 q 98 279 98 -16 l 98 694 l 208 694 l 208 297 q 376 77 208 77 q 510 137 458 77 q 563 294 563 197 l 563 694 l 674 694 l 674 0 m 568 997 q 509 873 562 921 q 380 826 456 826 q 250 873 300 826 q 197 997 199 920 l 264 997 q 381 892 273 892 q 460 920 427 892 q 499 997 493 949 l 568 997 z "},"Ů":{"ha":954,"x_min":115,"x_max":839,"o":"m 839 393 q 469 -16 839 -16 q 115 378 115 -16 l 115 972 l 229 972 l 229 385 q 481 86 229 86 q 725 375 725 86 l 725 972 l 839 972 l 839 393 m 463 1063 q 365 1098 404 1063 q 326 1192 326 1134 q 366 1289 326 1253 q 467 1326 406 1326 q 566 1289 528 1326 q 605 1196 605 1253 q 564 1101 605 1139 q 463 1063 522 1063 m 463 1271 q 408 1249 430 1271 q 387 1194 387 1227 q 463 1118 387 1118 q 519 1140 496 1118 q 541 1194 541 1162 q 519 1249 541 1227 q 463 1271 496 1271 z "},"ů":{"ha":786,"x_min":98,"x_max":674,"o":"m 674 0 l 563 0 l 563 110 l 560 110 q 346 -16 491 -16 q 98 279 98 -16 l 98 694 l 208 694 l 208 297 q 376 77 208 77 q 510 137 458 77 q 563 294 563 197 l 563 694 l 674 694 l 674 0 m 382 798 q 284 833 323 798 q 245 926 245 869 q 286 1024 245 987 q 387 1061 326 1061 q 486 1024 448 1061 q 525 930 525 987 q 484 836 525 873 q 382 798 442 798 m 382 1006 q 328 984 350 1006 q 307 929 307 962 q 382 853 307 853 q 439 875 416 853 q 461 929 461 897 q 439 984 461 962 q 382 1006 416 1006 z "},"Ű":{"ha":954,"x_min":115,"x_max":839,"o":"m 839 393 q 469 -16 839 -16 q 115 378 115 -16 l 115 972 l 229 972 l 229 385 q 481 86 229 86 q 725 375 725 86 l 725 972 l 839 972 l 839 393 m 712 1278 l 546 1062 l 480 1062 l 622 1278 l 712 1278 m 545 1278 l 382 1062 l 317 1062 l 456 1278 l 545 1278 z "},"ű":{"ha":786,"x_min":98,"x_max":674,"o":"m 674 0 l 563 0 l 563 110 l 560 110 q 346 -16 491 -16 q 98 279 98 -16 l 98 694 l 208 694 l 208 297 q 376 77 208 77 q 510 137 458 77 q 563 294 563 197 l 563 694 l 674 694 l 674 0 m 616 1042 l 450 826 l 384 826 l 526 1042 l 616 1042 m 448 1042 l 286 826 l 220 826 l 360 1042 l 448 1042 z "},"Ų":{"ha":954,"x_min":115,"x_max":839,"o":"m 595 -214 q 509 -229 557 -229 q 427 -198 458 -229 q 396 -113 396 -166 q 430 -15 396 -71 q 115 378 115 7 l 115 972 l 229 972 l 229 385 q 481 86 229 86 q 725 375 725 86 l 725 972 l 839 972 l 839 393 q 514 -15 839 9 q 483 -113 483 -71 q 528 -157 483 -157 q 595 -140 562 -157 l 595 -214 z "},"ų":{"ha":786,"x_min":98,"x_max":718,"o":"m 718 -214 q 632 -229 680 -229 q 550 -197 581 -229 q 519 -113 519 -165 q 563 0 519 -68 l 563 110 l 560 110 q 346 -16 490 -16 q 98 279 98 -16 l 98 694 l 208 694 l 208 297 q 376 77 208 77 q 510 137 458 77 q 563 294 563 197 l 563 694 l 674 694 l 674 0 l 646 0 q 606 -113 606 -68 q 651 -157 606 -157 q 718 -140 685 -157 l 718 -214 z "},"Ŵ":{"ha":1297,"x_min":18,"x_max":1280,"o":"m 1280 972 l 1006 0 l 872 0 l 672 711 q 656 810 659 756 l 654 810 q 636 712 650 760 l 435 0 l 302 0 l 18 972 l 143 972 l 350 227 q 366 129 363 180 l 370 129 q 391 227 373 165 l 606 972 l 715 972 l 921 221 q 937 130 932 182 l 940 130 q 958 224 943 165 l 1157 972 l 1280 972 m 854 1062 l 771 1062 l 660 1218 l 548 1062 l 471 1062 l 617 1287 l 707 1287 l 854 1062 z "},"ŵ":{"ha":1004,"x_min":16,"x_max":987,"o":"m 987 694 l 779 0 l 664 0 l 521 497 q 510 562 513 526 l 507 562 q 493 498 505 537 l 338 0 l 227 0 l 16 694 l 133 694 l 277 172 q 286 110 283 149 l 292 110 q 304 174 294 140 l 464 694 l 566 694 l 709 171 q 720 109 716 146 l 725 109 q 736 171 726 135 l 878 694 l 987 694 m 705 826 l 623 826 l 511 982 l 399 826 l 323 826 l 469 1051 l 559 1051 l 705 826 z "},"Ŷ":{"ha":768,"x_min":12,"x_max":760,"o":"m 760 972 l 439 359 l 439 0 l 325 0 l 325 357 l 12 972 l 142 972 l 359 533 q 383 473 363 525 l 385 473 q 411 533 392 496 l 639 972 l 760 972 m 578 1061 l 496 1061 l 385 1217 l 273 1061 l 196 1061 l 342 1286 l 432 1286 l 578 1061 z "},"ŷ":{"ha":672,"x_min":9,"x_max":665,"o":"m 665 694 l 346 -111 q 106 -327 260 -327 q 33 -318 62 -327 l 33 -218 q 99 -231 69 -231 q 225 -130 183 -231 l 281 1 l 9 694 l 133 694 l 321 160 q 335 107 324 150 l 339 107 q 353 159 342 123 l 550 694 l 665 694 m 540 826 l 457 826 l 346 982 l 234 826 l 157 826 l 303 1051 l 393 1051 l 540 826 z "},"Ÿ":{"ha":768,"x_min":12,"x_max":760,"o":"m 760 972 l 439 359 l 439 0 l 325 0 l 325 357 l 12 972 l 142 972 l 359 533 q 383 473 363 525 l 385 473 q 411 533 392 496 l 639 972 l 760 972 m 515 1061 q 468 1080 488 1061 q 448 1128 448 1099 q 467 1176 448 1157 q 513 1195 486 1195 q 562 1176 542 1195 q 581 1128 581 1156 q 562 1081 581 1101 q 515 1061 543 1061 m 254 1061 q 206 1081 226 1061 q 186 1128 186 1101 q 205 1176 186 1157 q 252 1195 224 1195 q 300 1176 280 1195 q 321 1128 321 1156 q 301 1081 321 1101 q 254 1061 281 1061 z "},"Ź":{"ha":792,"x_min":22,"x_max":762,"o":"m 762 945 l 193 103 l 749 103 l 749 0 l 22 0 l 22 32 l 587 869 l 68 869 l 68 972 l 762 972 l 762 945 m 589 1285 l 411 1063 l 325 1063 l 476 1285 l 589 1285 z "},"ź":{"ha":628,"x_min":22,"x_max":597,"o":"m 597 663 l 186 95 l 593 95 l 593 0 l 22 0 l 22 35 l 433 600 l 61 600 l 61 694 l 597 694 l 597 663 m 490 1048 l 313 826 l 227 826 l 378 1048 l 490 1048 z "},"Ż":{"ha":792,"x_min":22,"x_max":762,"o":"m 762 945 l 193 103 l 749 103 l 749 0 l 22 0 l 22 32 l 587 869 l 68 869 l 68 972 l 762 972 l 762 945 m 403 1062 q 356 1081 376 1062 q 336 1129 336 1101 q 355 1175 336 1156 q 403 1194 375 1194 q 450 1176 431 1194 q 469 1129 469 1157 q 450 1082 469 1101 q 403 1062 431 1062 z "},"ż":{"ha":628,"x_min":22,"x_max":597,"o":"m 597 663 l 186 95 l 593 95 l 593 0 l 22 0 l 22 35 l 433 600 l 61 600 l 61 694 l 597 694 l 597 663 m 330 826 q 282 845 302 826 q 262 893 262 865 q 282 939 262 920 q 330 958 302 958 q 377 940 357 958 q 396 893 396 921 q 377 846 396 865 q 330 826 357 826 z "},"Ž":{"ha":792,"x_min":22,"x_max":762,"o":"m 762 945 l 193 103 l 749 103 l 749 0 l 22 0 l 22 32 l 587 869 l 68 869 l 68 972 l 762 972 l 762 945 m 610 1285 l 465 1061 l 376 1061 l 229 1285 l 307 1285 l 418 1130 l 530 1285 l 610 1285 z "},"ž":{"ha":628,"x_min":22,"x_max":597,"o":"m 597 663 l 186 95 l 593 95 l 593 0 l 22 0 l 22 35 l 433 600 l 61 600 l 61 694 l 597 694 l 597 663 m 530 1050 l 385 826 l 296 826 l 149 1050 l 227 1050 l 338 895 l 450 1050 l 530 1050 z "},"ſ":{"ha":335,"x_min":113,"x_max":414,"o":"m 414 930 q 340 949 382 949 q 224 802 224 949 l 224 0 l 113 0 l 113 807 q 177 980 113 916 q 334 1043 241 1043 q 414 1031 384 1043 l 414 930 z "},"ƒ":{"ha":749,"x_min":64,"x_max":646,"o":"m 646 859 q 572 878 613 878 q 457 769 473 878 l 436 628 l 549 628 l 549 534 l 422 534 l 361 95 q 125 -189 321 -189 q 64 -178 104 -189 l 64 -81 q 122 -95 88 -95 q 251 103 224 -95 l 313 534 l 243 534 l 243 628 l 327 628 l 346 777 q 417 919 357 865 q 567 972 476 972 q 646 960 610 972 l 646 859 z "},"Ɣ":{"ha":863,"x_min":12,"x_max":850,"o":"m 850 972 l 502 66 l 506 58 q 583 -171 583 -96 q 537 -282 583 -237 q 423 -327 490 -327 q 314 -283 358 -327 q 270 -171 270 -239 q 284 -90 270 -130 q 350 54 298 -50 l 355 65 l 12 972 l 139 972 l 408 232 q 428 156 422 193 l 431 156 q 453 232 439 195 l 728 972 l 850 972 m 426 -26 q 380 -168 380 -122 q 426 -228 380 -228 q 472 -168 472 -228 q 426 -26 472 -122 z "},"Ǎ":{"ha":896,"x_min":15,"x_max":880,"o":"m 880 0 l 754 0 l 651 273 l 239 273 l 142 0 l 15 0 l 388 972 l 506 972 l 880 0 m 614 375 l 461 789 q 446 854 454 810 l 444 854 q 428 789 437 813 l 277 375 l 614 375 m 636 1282 l 491 1058 l 401 1058 l 255 1282 l 333 1282 l 444 1126 l 555 1282 l 636 1282 z "},"ǎ":{"ha":701,"x_min":56,"x_max":604,"o":"m 604 0 l 493 0 l 493 109 l 490 109 q 277 -16 418 -16 q 114 39 173 -16 q 56 184 56 94 q 285 411 56 379 l 493 440 q 350 617 493 617 q 123 532 224 617 l 123 646 q 359 711 226 711 q 604 452 604 711 l 604 0 m 493 351 l 326 328 q 209 290 248 317 q 170 193 170 262 q 206 110 170 142 q 302 77 242 77 q 439 135 385 77 q 493 282 493 193 l 493 351 m 536 1050 l 391 826 l 302 826 l 155 1050 l 233 1050 l 345 895 l 456 1050 l 536 1050 z "},"Ǐ":{"ha":370,"x_min":-6,"x_max":375,"o":"m 336 972 l 336 875 l 241 875 l 241 98 l 336 98 l 336 0 l 33 0 l 33 98 l 127 98 l 127 875 l 33 875 l 33 972 l 336 972 m 375 1282 l 230 1058 l 140 1058 l -6 1282 l 72 1282 l 183 1126 l 294 1282 l 375 1282 z "},"ǐ":{"ha":336,"x_min":-22,"x_max":359,"o":"m 224 0 l 113 0 l 113 694 l 224 694 l 224 0 m 359 1050 l 214 826 l 124 826 l -22 1050 l 56 1050 l 167 895 l 278 1050 l 359 1050 z "},"Ǒ":{"ha":1047,"x_min":64,"x_max":983,"o":"m 519 -16 q 188 120 313 -16 q 64 475 64 256 q 191 849 64 709 q 536 989 317 989 q 860 853 737 989 q 983 498 983 718 q 857 122 983 260 q 519 -16 731 -16 m 528 886 q 279 775 374 886 q 183 485 183 665 q 276 196 183 305 q 519 86 370 86 q 772 191 680 86 q 864 483 864 295 q 774 781 864 675 q 528 886 685 886 m 714 1282 l 569 1058 l 479 1058 l 333 1282 l 411 1282 l 522 1126 l 633 1282 l 714 1282 z "},"ǒ":{"ha":814,"x_min":65,"x_max":749,"o":"m 403 -16 q 157 81 249 -16 q 65 339 65 178 q 161 612 65 514 q 419 711 256 711 q 662 615 574 711 q 749 350 749 519 q 655 84 749 184 q 403 -16 561 -16 m 411 617 q 241 544 304 617 q 179 343 179 471 q 242 149 179 220 q 411 77 305 77 q 577 147 519 77 q 635 346 635 217 q 577 547 635 476 q 411 617 519 617 m 597 1050 l 452 826 l 363 826 l 216 1050 l 294 1050 l 406 895 l 517 1050 l 597 1050 z "},"Ǔ":{"ha":954,"x_min":115,"x_max":839,"o":"m 839 393 q 469 -16 839 -16 q 115 378 115 -16 l 115 972 l 229 972 l 229 385 q 481 86 229 86 q 725 375 725 86 l 725 972 l 839 972 l 839 393 m 668 1282 l 523 1058 l 433 1058 l 287 1282 l 365 1282 l 476 1126 l 587 1282 l 668 1282 z "},"ǔ":{"ha":786,"x_min":98,"x_max":674,"o":"m 674 0 l 563 0 l 563 110 l 560 110 q 346 -16 491 -16 q 98 279 98 -16 l 98 694 l 208 694 l 208 297 q 376 77 208 77 q 510 137 458 77 q 563 294 563 197 l 563 694 l 674 694 l 674 0 m 583 1050 l 438 826 l 349 826 l 202 1050 l 280 1050 l 391 895 l 503 1050 l 583 1050 z "},"Ǖ":{"ha":954,"x_min":115,"x_max":839,"o":"m 839 393 q 469 -16 839 -16 q 115 378 115 -16 l 115 972 l 229 972 l 229 385 q 481 86 229 86 q 725 375 725 86 l 725 972 l 839 972 l 839 393 m 650 1246 l 306 1246 l 306 1320 l 650 1320 l 650 1246 m 608 1065 q 562 1084 581 1065 q 542 1132 542 1103 q 561 1179 542 1160 q 607 1198 581 1198 q 655 1179 635 1198 q 675 1132 675 1160 q 656 1084 675 1104 q 608 1065 637 1065 m 348 1065 q 300 1084 320 1065 q 279 1132 279 1103 q 299 1179 279 1160 q 347 1198 318 1198 q 394 1179 374 1198 q 414 1132 414 1160 q 395 1084 414 1104 q 348 1065 376 1065 z "},"ǖ":{"ha":786,"x_min":98,"x_max":674,"o":"m 674 0 l 563 0 l 563 110 l 560 110 q 346 -16 491 -16 q 98 279 98 -16 l 98 694 l 208 694 l 208 297 q 376 77 208 77 q 510 137 458 77 q 563 294 563 197 l 563 694 l 674 694 l 674 0 m 564 1007 l 219 1007 l 219 1081 l 564 1081 l 564 1007 m 522 826 q 475 845 494 826 q 455 893 455 864 q 474 941 455 922 q 520 960 494 960 q 569 940 549 960 q 589 893 589 921 q 569 846 589 865 q 522 826 550 826 m 261 826 q 213 845 233 826 q 193 893 193 865 q 212 941 193 922 q 260 960 231 960 q 308 940 288 960 q 328 893 328 921 q 308 846 328 865 q 261 826 289 826 z "},"Ǘ":{"ha":954,"x_min":115,"x_max":839,"o":"m 839 393 q 469 -16 839 -16 q 115 378 115 -16 l 115 972 l 229 972 l 229 385 q 481 86 229 86 q 725 375 725 86 l 725 972 l 839 972 l 839 393 m 688 1434 l 510 1211 l 425 1211 l 576 1434 l 688 1434 m 609 1065 q 562 1084 582 1065 q 543 1132 543 1103 q 561 1179 543 1160 q 608 1198 580 1198 q 656 1179 636 1198 q 675 1132 675 1160 q 656 1084 675 1104 q 609 1065 637 1065 m 348 1065 q 300 1084 320 1065 q 279 1132 279 1103 q 299 1179 279 1160 q 347 1198 318 1198 q 395 1179 374 1198 q 415 1132 415 1160 q 395 1084 415 1104 q 348 1065 376 1065 z "},"ǘ":{"ha":786,"x_min":98,"x_max":674,"o":"m 674 0 l 563 0 l 563 110 l 560 110 q 346 -16 491 -16 q 98 279 98 -16 l 98 694 l 208 694 l 208 297 q 376 77 208 77 q 510 137 458 77 q 563 294 563 197 l 563 694 l 674 694 l 674 0 m 602 1195 l 423 972 l 338 972 l 489 1195 l 602 1195 m 522 826 q 475 845 495 826 q 456 893 456 864 q 474 941 456 922 q 521 960 493 960 q 569 940 549 960 q 589 893 589 921 q 570 846 589 865 q 522 826 551 826 m 261 826 q 213 845 233 826 q 193 893 193 865 q 212 940 193 921 q 260 960 231 960 q 308 940 288 960 q 328 893 328 921 q 309 846 328 865 q 261 826 289 826 z "},"Ǚ":{"ha":954,"x_min":115,"x_max":839,"o":"m 839 393 q 469 -16 839 -16 q 115 378 115 -16 l 115 972 l 229 972 l 229 385 q 481 86 229 86 q 725 375 725 86 l 725 972 l 839 972 l 839 393 m 669 1450 l 524 1226 l 434 1226 l 288 1450 l 366 1450 l 477 1294 l 589 1450 l 669 1450 m 609 1065 q 562 1084 582 1065 q 543 1132 543 1103 q 561 1179 543 1160 q 608 1198 580 1198 q 656 1179 636 1198 q 675 1132 675 1160 q 656 1084 675 1104 q 609 1065 637 1065 m 348 1065 q 300 1084 320 1065 q 279 1132 279 1103 q 299 1179 279 1160 q 347 1198 318 1198 q 395 1179 374 1198 q 415 1132 415 1160 q 395 1084 415 1104 q 348 1065 376 1065 z "},"ǚ":{"ha":786,"x_min":98,"x_max":674,"o":"m 674 0 l 563 0 l 563 110 l 560 110 q 346 -16 491 -16 q 98 279 98 -16 l 98 694 l 208 694 l 208 297 q 376 77 208 77 q 510 137 458 77 q 563 294 563 197 l 563 694 l 674 694 l 674 0 m 582 1211 l 437 987 l 347 987 l 201 1211 l 279 1211 l 391 1055 l 502 1211 l 582 1211 m 522 826 q 475 845 495 826 q 456 893 456 864 q 474 941 456 922 q 521 960 493 960 q 569 940 549 960 q 589 893 589 921 q 570 846 589 865 q 522 826 551 826 m 261 826 q 213 845 233 826 q 193 893 193 865 q 212 940 193 921 q 260 960 231 960 q 308 940 288 960 q 328 893 328 921 q 309 846 328 865 q 261 826 289 826 z "},"Ǜ":{"ha":954,"x_min":115,"x_max":839,"o":"m 839 393 q 469 -16 839 -16 q 115 378 115 -16 l 115 972 l 229 972 l 229 385 q 481 86 229 86 q 725 375 725 86 l 725 972 l 839 972 l 839 393 m 531 1211 l 445 1211 l 267 1434 l 379 1434 l 531 1211 m 607 1065 q 560 1084 579 1065 q 541 1132 541 1104 q 561 1179 541 1160 q 608 1198 581 1198 q 656 1179 637 1198 q 675 1132 675 1160 q 655 1084 675 1103 q 607 1065 635 1065 m 347 1065 q 299 1084 318 1065 q 279 1132 279 1104 q 299 1179 279 1160 q 348 1198 319 1198 q 394 1179 374 1198 q 413 1132 413 1160 q 393 1084 413 1103 q 347 1065 374 1065 z "},"ǜ":{"ha":786,"x_min":98,"x_max":674,"o":"m 674 0 l 563 0 l 563 110 l 560 110 q 346 -16 491 -16 q 98 279 98 -16 l 98 694 l 208 694 l 208 297 q 376 77 208 77 q 510 137 458 77 q 563 294 563 197 l 563 694 l 674 694 l 674 0 m 445 972 l 359 972 l 180 1195 l 293 1195 l 445 972 m 521 826 q 474 846 493 826 q 454 893 454 865 q 474 940 454 921 q 522 960 494 960 q 570 940 551 960 q 589 893 589 921 q 569 845 589 865 q 521 826 549 826 m 260 826 q 213 846 232 826 q 193 893 193 865 q 213 940 193 921 q 262 960 233 960 q 308 941 288 960 q 327 893 327 922 q 307 845 327 864 q 260 826 288 826 z "},"ǰ":{"ha":336,"x_min":-134,"x_max":358,"o":"m 224 29 q 155 -234 224 -142 q -42 -327 86 -327 q -134 -305 -90 -327 l -134 -201 q -39 -232 -84 -232 q 113 11 113 -232 l 113 694 l 224 694 l 224 29 m 358 1050 l 213 826 l 123 826 l -23 1050 l 55 1050 l 166 895 l 277 1050 l 358 1050 z "},"Ȯ":{"ha":1047,"x_min":64,"x_max":983,"o":"m 519 -16 q 188 120 313 -16 q 64 475 64 256 q 191 849 64 709 q 536 989 317 989 q 860 853 737 989 q 983 498 983 718 q 857 122 983 260 q 519 -16 731 -16 m 528 886 q 279 775 374 886 q 183 485 183 665 q 276 196 183 305 q 519 86 370 86 q 772 191 680 86 q 864 483 864 295 q 774 781 864 675 q 528 886 685 886 m 524 1068 q 477 1087 497 1068 q 457 1135 457 1107 q 477 1181 457 1162 q 524 1200 496 1200 q 571 1182 552 1200 q 591 1135 591 1163 q 571 1088 591 1107 q 524 1068 552 1068 z "},"ȯ":{"ha":814,"x_min":65,"x_max":749,"o":"m 403 -16 q 157 81 249 -16 q 65 339 65 178 q 161 612 65 514 q 419 711 256 711 q 662 615 574 711 q 749 350 749 519 q 655 84 749 184 q 403 -16 561 -16 m 411 617 q 241 544 304 617 q 179 343 179 471 q 242 149 179 220 q 411 77 305 77 q 577 147 519 77 q 635 346 635 217 q 577 547 635 476 q 411 617 519 617 m 408 826 q 360 845 380 826 q 340 893 340 865 q 360 939 340 920 q 408 958 380 958 q 455 940 435 958 q 474 893 474 921 q 455 846 474 865 q 408 826 435 826 z "},"ə":{"ha":726,"x_min":56,"x_max":661,"o":"m 56 375 l 546 375 q 484 554 543 491 q 319 617 424 617 q 104 540 201 617 l 104 644 q 346 711 195 711 q 577 616 493 711 q 661 350 661 522 q 569 85 661 186 q 342 -16 477 -16 q 130 73 204 -16 q 56 317 56 161 l 56 375 m 545 281 l 170 281 q 216 131 171 185 q 343 77 260 77 q 477 134 422 77 q 545 281 532 190 z "},"ɣ":{"ha":665,"x_min":9,"x_max":655,"o":"m 655 694 l 389 109 l 412 62 q 476 -136 476 -65 q 434 -247 476 -203 q 325 -292 392 -292 q 220 -247 260 -292 q 179 -136 179 -203 q 245 62 179 -75 l 269 109 l 9 694 l 130 694 l 330 218 l 534 694 l 655 694 m 328 11 q 285 -133 285 -83 q 328 -200 285 -200 q 372 -133 372 -200 q 328 11 372 -90 z "},"Ḍ":{"ha":974,"x_min":127,"x_max":910,"o":"m 127 0 l 127 972 l 396 972 q 910 498 910 972 q 767 137 910 273 q 385 0 625 0 l 127 0 m 241 869 l 241 103 l 387 103 q 684 205 578 103 q 791 496 791 308 q 393 869 791 869 l 241 869 m 462 -213 q 414 -193 434 -213 q 395 -146 395 -174 q 415 -99 395 -118 q 462 -81 435 -81 q 509 -99 490 -81 q 529 -146 529 -118 q 509 -193 529 -174 q 462 -213 490 -213 z "},"ḍ":{"ha":818,"x_min":65,"x_max":705,"o":"m 705 0 l 594 0 l 594 118 l 591 118 q 353 -16 514 -16 q 143 77 222 -16 q 65 331 65 170 q 152 607 65 503 q 383 711 239 711 q 591 598 526 711 l 594 598 l 594 1028 l 705 1028 l 705 0 m 594 314 l 594 416 q 538 559 594 500 q 397 617 483 617 q 237 543 296 617 q 179 336 179 468 q 235 147 179 216 q 385 77 291 77 q 536 144 478 77 q 594 314 594 212 m 406 -213 q 359 -193 378 -213 q 339 -146 339 -174 q 359 -99 339 -118 q 406 -81 380 -81 q 454 -99 434 -81 q 473 -146 473 -118 q 454 -193 473 -174 q 406 -213 434 -213 z "},"Ḥ":{"ha":986,"x_min":127,"x_max":859,"o":"m 859 0 l 745 0 l 745 444 l 241 444 l 241 0 l 127 0 l 127 972 l 241 972 l 241 546 l 745 546 l 745 972 l 859 972 l 859 0 m 502 -213 q 454 -193 474 -213 q 435 -146 435 -174 q 455 -99 435 -118 q 502 -81 475 -81 q 549 -99 530 -81 q 569 -146 569 -118 q 549 -193 569 -174 q 502 -213 530 -213 z "},"ḥ":{"ha":786,"x_min":113,"x_max":689,"o":"m 689 0 l 578 0 l 578 400 q 416 617 578 617 q 279 554 335 617 q 224 393 224 492 l 224 0 l 113 0 l 113 1028 l 224 1028 l 224 579 l 227 579 q 454 711 307 711 q 689 428 689 711 l 689 0 m 388 -213 q 340 -193 360 -213 q 321 -146 321 -174 q 341 -99 321 -118 q 388 -81 361 -81 q 435 -99 416 -81 q 455 -146 455 -118 q 435 -193 455 -174 q 388 -213 416 -213 z "},"Ḷ":{"ha":654,"x_min":127,"x_max":632,"o":"m 632 0 l 127 0 l 127 972 l 241 972 l 241 103 l 632 103 l 632 0 m 370 -213 q 323 -193 342 -213 q 303 -146 303 -174 q 323 -99 303 -118 q 370 -81 344 -81 q 418 -99 398 -81 q 437 -146 437 -118 q 418 -193 437 -174 q 370 -213 398 -213 z "},"ḷ":{"ha":336,"x_min":102,"x_max":236,"o":"m 224 0 l 113 0 l 113 1028 l 224 1028 l 224 0 m 169 -213 q 121 -193 141 -213 q 102 -146 102 -174 q 122 -99 102 -118 q 169 -81 142 -81 q 216 -99 197 -81 q 236 -146 236 -118 q 216 -193 236 -174 q 169 -213 197 -213 z "},"Ḹ":{"ha":654,"x_min":127,"x_max":632,"o":"m 632 0 l 127 0 l 127 972 l 241 972 l 241 103 l 632 103 l 632 0 m 527 1063 l 182 1063 l 182 1137 l 527 1137 l 527 1063 m 370 -213 q 322 -193 342 -213 q 302 -146 302 -174 q 323 -99 302 -118 q 370 -81 343 -81 q 417 -99 397 -81 q 437 -146 437 -118 q 417 -193 437 -174 q 370 -213 397 -213 z "},"ḹ":{"ha":336,"x_min":-4,"x_max":340,"o":"m 224 0 l 113 0 l 113 1028 l 224 1028 l 224 0 m 168 -213 q 121 -193 140 -213 q 101 -146 101 -174 q 121 -99 101 -118 q 168 -81 142 -81 q 216 -99 196 -81 q 235 -146 235 -118 q 216 -193 235 -174 q 168 -213 196 -213 m 340 1063 l -4 1063 l -4 1137 l 340 1137 l 340 1063 z "},"Ṁ":{"ha":1247,"x_min":127,"x_max":1119,"o":"m 1119 0 l 1006 0 l 1006 652 q 1015 842 1006 730 l 1013 842 q 983 747 996 776 l 651 0 l 595 0 l 264 742 q 235 842 250 774 l 232 842 q 237 651 237 783 l 237 0 l 127 0 l 127 972 l 278 972 l 576 294 q 621 178 611 216 l 625 178 q 672 297 654 258 l 977 972 l 1119 972 l 1119 0 m 623 1063 q 576 1082 595 1063 q 556 1130 556 1102 q 576 1176 556 1158 q 623 1195 597 1195 q 671 1176 651 1195 q 690 1130 690 1158 q 671 1082 690 1102 q 623 1063 651 1063 z "},"ṁ":{"ha":1196,"x_min":113,"x_max":1099,"o":"m 1099 0 l 987 0 l 987 399 q 952 566 987 514 q 832 617 916 617 q 711 552 761 617 q 661 396 661 487 l 661 0 l 550 0 l 550 412 q 392 617 550 617 q 271 556 319 617 q 224 396 224 494 l 224 0 l 113 0 l 113 694 l 224 694 l 224 585 l 227 585 q 442 711 300 711 q 566 671 513 711 q 639 567 619 631 q 869 711 716 711 q 1099 428 1099 711 l 1099 0 m 604 826 q 556 846 576 826 q 536 893 536 865 q 557 940 536 921 q 604 958 577 958 q 651 940 631 958 q 671 893 671 921 q 651 846 671 865 q 604 826 631 826 z "},"Ṃ":{"ha":1247,"x_min":127,"x_max":1119,"o":"m 1119 0 l 1006 0 l 1006 652 q 1015 842 1006 730 l 1013 842 q 983 747 996 776 l 651 0 l 595 0 l 264 742 q 235 842 250 774 l 232 842 q 237 651 237 783 l 237 0 l 127 0 l 127 972 l 278 972 l 576 294 q 621 178 611 216 l 625 178 q 672 297 654 258 l 977 972 l 1119 972 l 1119 0 m 621 -213 q 574 -193 593 -213 q 554 -146 554 -174 q 574 -99 554 -118 q 621 -81 595 -81 q 669 -99 649 -81 q 688 -146 688 -118 q 669 -193 688 -174 q 621 -213 649 -213 z "},"ṃ":{"ha":1196,"x_min":113,"x_max":1099,"o":"m 1099 0 l 987 0 l 987 399 q 952 566 987 514 q 832 617 916 617 q 711 552 761 617 q 661 396 661 487 l 661 0 l 550 0 l 550 412 q 392 617 550 617 q 271 556 319 617 q 224 396 224 494 l 224 0 l 113 0 l 113 694 l 224 694 l 224 585 l 227 585 q 442 711 300 711 q 566 671 513 711 q 639 567 619 631 q 869 711 716 711 q 1099 428 1099 711 l 1099 0 m 605 -213 q 557 -193 577 -213 q 538 -146 538 -174 q 558 -99 538 -118 q 605 -81 578 -81 q 652 -99 633 -81 q 672 -146 672 -118 q 652 -193 672 -174 q 605 -213 633 -213 z "},"Ṅ":{"ha":1039,"x_min":127,"x_max":911,"o":"m 911 0 l 772 0 l 271 775 q 240 836 252 804 l 236 836 q 241 703 241 805 l 241 0 l 127 0 l 127 972 l 275 972 l 762 210 q 802 144 793 162 l 804 144 q 798 288 798 186 l 798 972 l 911 972 l 911 0 m 519 1063 q 472 1082 492 1063 q 452 1130 452 1102 q 473 1176 452 1158 q 519 1195 493 1195 q 567 1176 547 1195 q 587 1130 587 1158 q 567 1082 587 1102 q 519 1063 547 1063 z "},"ṅ":{"ha":786,"x_min":113,"x_max":689,"o":"m 689 0 l 578 0 l 578 396 q 416 617 578 617 q 278 554 333 617 q 224 396 224 492 l 224 0 l 113 0 l 113 694 l 224 694 l 224 579 l 227 579 q 454 711 305 711 q 629 637 568 711 q 689 425 689 564 l 689 0 m 408 826 q 360 846 380 826 q 340 893 340 865 q 361 940 340 921 q 408 958 381 958 q 455 940 435 958 q 475 893 475 921 q 455 846 475 865 q 408 826 435 826 z "},"Ṇ":{"ha":1039,"x_min":127,"x_max":911,"o":"m 911 0 l 772 0 l 271 775 q 240 836 252 804 l 236 836 q 241 703 241 805 l 241 0 l 127 0 l 127 972 l 275 972 l 762 210 q 802 144 793 162 l 804 144 q 798 288 798 186 l 798 972 l 911 972 l 911 0 m 513 -213 q 466 -193 486 -213 q 446 -146 446 -174 q 467 -99 446 -118 q 513 -81 487 -81 q 561 -99 541 -81 q 581 -146 581 -118 q 561 -193 581 -174 q 513 -213 541 -213 z "},"ṇ":{"ha":786,"x_min":113,"x_max":689,"o":"m 689 0 l 578 0 l 578 396 q 416 617 578 617 q 278 554 333 617 q 224 396 224 492 l 224 0 l 113 0 l 113 694 l 224 694 l 224 579 l 227 579 q 454 711 305 711 q 629 637 568 711 q 689 425 689 564 l 689 0 m 408 -213 q 360 -193 380 -213 q 340 -146 340 -174 q 361 -99 340 -118 q 408 -81 381 -81 q 455 -99 435 -81 q 475 -146 475 -118 q 455 -193 475 -174 q 408 -213 435 -213 z "},"Ṛ":{"ha":831,"x_min":127,"x_max":825,"o":"m 825 0 l 689 0 l 526 273 q 483 337 504 311 q 440 381 462 364 q 392 406 418 398 q 335 414 367 414 l 241 414 l 241 0 l 127 0 l 127 972 l 418 972 q 535 957 481 972 q 629 908 589 941 q 691 827 669 876 q 713 713 713 779 q 698 620 713 663 q 655 545 683 578 q 587 488 627 511 q 498 452 547 465 l 498 449 q 540 424 522 438 q 574 391 558 410 q 607 348 591 372 q 642 292 623 324 l 825 0 m 241 869 l 241 517 l 396 517 q 475 530 439 517 q 538 567 511 543 q 579 626 564 591 q 594 704 594 661 q 544 826 594 782 q 397 869 493 869 l 241 869 m 439 -213 q 392 -193 412 -213 q 372 -146 372 -174 q 393 -99 372 -118 q 439 -81 413 -81 q 487 -99 467 -81 q 507 -146 507 -118 q 487 -193 507 -174 q 439 -213 467 -213 z "},"ṛ":{"ha":483,"x_min":113,"x_max":475,"o":"m 475 582 q 391 604 446 604 q 272 537 319 604 q 224 354 224 470 l 224 0 l 113 0 l 113 694 l 224 694 l 224 551 l 227 551 q 299 666 250 625 q 408 707 348 707 q 475 697 452 707 l 475 582 m 292 -213 q 245 -193 264 -213 q 225 -146 225 -174 q 245 -99 225 -118 q 292 -81 266 -81 q 340 -99 320 -81 q 359 -146 359 -118 q 340 -193 359 -174 q 292 -213 320 -213 z "},"Ṝ":{"ha":831,"x_min":127,"x_max":825,"o":"m 825 0 l 689 0 l 526 273 q 483 337 504 311 q 440 381 462 364 q 392 406 418 398 q 335 414 367 414 l 241 414 l 241 0 l 127 0 l 127 972 l 418 972 q 535 957 481 972 q 629 908 589 941 q 691 827 669 876 q 713 713 713 779 q 698 620 713 663 q 655 545 683 578 q 587 488 627 511 q 498 452 547 465 l 498 449 q 540 424 522 438 q 574 391 558 410 q 607 348 591 372 q 642 292 623 324 l 825 0 m 241 869 l 241 517 l 396 517 q 475 530 439 517 q 538 567 511 543 q 579 626 564 591 q 594 704 594 661 q 544 826 594 782 q 397 869 493 869 l 241 869 m 439 -213 q 392 -193 412 -213 q 372 -146 372 -174 q 393 -99 372 -118 q 439 -81 413 -81 q 487 -99 467 -81 q 507 -146 507 -118 q 487 -193 507 -174 q 439 -213 467 -213 m 585 1063 l 240 1063 l 240 1137 l 585 1137 l 585 1063 z "},"ṝ":{"ha":483,"x_min":113,"x_max":475,"o":"m 475 582 q 391 604 446 604 q 272 537 319 604 q 224 354 224 470 l 224 0 l 113 0 l 113 694 l 224 694 l 224 551 l 227 551 q 299 666 250 625 q 408 707 348 707 q 475 697 452 707 l 475 582 m 460 826 l 115 826 l 115 900 l 460 900 l 460 826 m 293 -213 q 245 -193 265 -213 q 226 -146 226 -174 q 246 -99 226 -118 q 293 -81 267 -81 q 340 -99 321 -81 q 360 -146 360 -118 q 340 -193 360 -174 q 293 -213 321 -213 z "},"Ṣ":{"ha":738,"x_min":82,"x_max":671,"o":"m 82 39 l 82 174 q 137 137 105 153 q 205 110 170 121 q 277 92 241 98 q 343 86 313 86 q 500 125 448 86 q 552 237 552 164 q 535 306 552 277 q 487 359 517 335 q 415 405 456 383 q 325 452 373 427 q 230 504 274 477 q 153 562 186 530 q 102 634 121 594 q 83 729 83 675 q 113 845 83 795 q 189 926 142 894 q 297 973 237 958 q 421 989 358 989 q 631 954 565 989 l 631 826 q 410 886 545 886 q 335 878 372 886 q 269 852 298 870 q 221 807 239 835 q 203 739 203 779 q 217 675 203 702 q 258 625 231 648 q 324 582 285 603 q 414 536 363 561 q 513 481 466 510 q 595 418 559 453 q 651 342 630 384 q 671 245 671 300 q 643 124 671 174 q 567 43 615 74 q 457 -2 519 12 q 326 -16 395 -16 q 269 -13 302 -16 q 199 -2 235 -9 q 133 16 164 5 q 82 39 101 26 m 374 -213 q 327 -193 347 -213 q 307 -146 307 -174 q 328 -99 307 -118 q 374 -81 348 -81 q 422 -99 402 -81 q 441 -146 441 -118 q 422 -193 441 -174 q 374 -213 402 -213 z "},"ṣ":{"ha":589,"x_min":71,"x_max":531,"o":"m 71 25 l 71 144 q 271 77 161 77 q 417 175 417 77 q 405 222 417 203 q 371 256 392 241 q 320 283 349 271 q 258 308 292 295 q 177 345 212 326 q 119 387 142 363 q 84 440 96 410 q 72 510 72 470 q 94 596 72 559 q 154 660 117 634 q 239 698 191 685 q 338 711 287 711 q 499 680 428 711 l 499 567 q 323 617 422 617 q 267 610 292 617 q 223 590 241 603 q 196 559 205 577 q 186 519 186 541 q 196 474 186 492 q 224 441 205 456 q 271 416 243 427 q 332 391 298 404 q 415 354 378 373 q 477 312 452 336 q 517 258 503 289 q 531 186 531 228 q 508 96 531 134 q 448 33 486 58 q 360 -4 410 8 q 256 -16 311 -16 q 71 25 149 -16 m 309 -213 q 261 -193 281 -213 q 241 -146 241 -174 q 262 -99 241 -118 q 309 -81 282 -81 q 356 -99 336 -81 q 376 -146 376 -118 q 356 -193 376 -174 q 309 -213 336 -213 z "},"Ṭ":{"ha":728,"x_min":28,"x_max":703,"o":"m 703 869 l 422 869 l 422 0 l 308 0 l 308 869 l 28 869 l 28 972 l 703 972 l 703 869 m 364 -213 q 317 -193 336 -213 q 297 -146 297 -174 q 317 -99 297 -118 q 364 -81 338 -81 q 412 -99 392 -81 q 431 -146 431 -118 q 412 -193 431 -174 q 364 -213 392 -213 z "},"ṭ":{"ha":471,"x_min":29,"x_max":435,"o":"m 435 7 q 331 -15 395 -15 q 149 189 149 -15 l 149 600 l 29 600 l 29 694 l 149 694 l 149 864 l 260 900 l 260 694 l 435 694 l 435 600 l 260 600 l 260 208 q 283 109 260 138 q 362 79 307 79 q 435 102 404 79 l 435 7 m 244 -213 q 197 -193 216 -213 q 177 -146 177 -174 q 197 -99 177 -118 q 244 -81 218 -81 q 292 -99 272 -81 q 311 -146 311 -118 q 292 -193 311 -174 q 244 -213 272 -213 z "},"ˆ":{"ha":515,"x_min":62,"x_max":445,"o":"m 445 826 l 362 826 l 251 982 l 139 826 l 62 826 l 208 1051 l 298 1051 l 445 826 z "},"˜":{"ha":468,"x_min":24,"x_max":458,"o":"m 458 989 q 426 872 458 918 q 338 827 393 827 q 228 863 290 827 q 147 892 176 892 q 87 815 87 892 l 24 815 q 56 931 24 888 q 147 975 89 975 q 248 940 191 975 q 335 910 298 910 q 392 989 392 910 l 458 989 z "},"̀":{"ha":372,"x_min":69,"x_max":305,"o":"m 305 826 l 220 826 l 69 993 l 183 993 l 305 826 z "},"́":{"ha":372,"x_min":68,"x_max":304,"o":"m 68 826 l 190 993 l 304 993 l 155 826 l 68 826 z "},"̂":{"ha":0,"x_min":-190,"x_max":191,"o":"m 191 826 l 110 826 l -1 982 l -114 826 l -190 826 l -45 1051 l 46 1051 l 191 826 z "},"̃":{"ha":0,"x_min":-217,"x_max":218,"o":"m 218 989 q 186 872 218 918 q 98 827 153 827 q -12 863 50 827 q -93 892 -64 892 q -153 815 -153 892 l -217 815 q -184 931 -217 887 q -93 975 -151 975 q 8 940 -49 975 q 95 910 58 910 q 151 989 151 910 l 218 989 z "},"̄":{"ha":0,"x_min":-172,"x_max":172,"o":"m 172 826 l -172 826 l -172 900 l 172 900 l 172 826 z "},"̆":{"ha":0,"x_min":-186,"x_max":186,"o":"m 186 997 q 126 873 179 921 q -3 826 73 826 q -133 873 -82 826 q -186 997 -183 920 l -118 997 q -1 892 -110 892 q 78 920 45 892 q 117 997 111 949 l 186 997 z "},"̇":{"ha":0,"x_min":-66,"x_max":66,"o":"m 0 826 q -47 846 -27 826 q -66 893 -66 865 q -47 940 -66 921 q 0 958 -27 958 q 47 940 28 958 q 66 893 66 921 q 47 846 66 865 q 0 826 28 826 z "},"̈":{"ha":0,"x_min":-197,"x_max":199,"o":"m 132 826 q 85 845 104 826 q 65 893 65 864 q 84 941 65 922 q 130 960 103 960 q 179 940 159 960 q 199 893 199 921 q 179 846 199 865 q 132 826 160 826 m -129 826 q -177 845 -157 826 q -197 893 -197 865 q -178 941 -197 922 q -130 960 -159 960 q -82 940 -102 960 q -62 893 -62 921 q -82 846 -62 865 q -129 826 -101 826 z "},"̊":{"ha":0,"x_min":-139,"x_max":140,"o":"m -1 798 q -100 834 -62 798 q -139 926 -139 870 q -99 1023 -139 986 q 3 1061 -59 1061 q 102 1024 63 1061 q 140 930 140 987 q 99 836 140 873 q -1 798 58 798 m -1 1006 q -56 984 -35 1006 q -77 929 -77 962 q -1 853 -77 853 q 54 875 32 853 q 76 929 76 897 q 54 984 76 962 q -1 1006 32 1006 z "},"̋":{"ha":0,"x_min":-197,"x_max":199,"o":"m 199 1042 l 32 826 l -33 826 l 109 1042 l 199 1042 m 31 1042 l -132 826 l -197 826 l -57 1042 l 31 1042 z "},"̌":{"ha":0,"x_min":-190,"x_max":190,"o":"m 190 1050 l 46 826 l -45 826 l -190 1050 l -113 1050 l -1 895 l 110 1050 l 190 1050 z "},"̐":{"ha":0,"x_min":-186,"x_max":186,"o":"m 0 981 q -47 1000 -27 981 q -66 1047 -66 1019 q -47 1094 -66 1076 q 0 1112 -27 1112 q 47 1094 28 1112 q 66 1047 66 1075 q 47 1000 66 1020 q 0 981 28 981 m 186 997 q 126 873 179 921 q -3 826 73 826 q -133 873 -82 826 q -186 997 -183 920 l -118 997 q -1 892 -110 892 q 78 920 45 892 q 117 997 111 949 l 186 997 z "},"̣":{"ha":463,"x_min":164,"x_max":298,"o":"m 231 -213 q 184 -193 203 -213 q 164 -146 164 -174 q 184 -99 164 -118 q 231 -81 205 -81 q 279 -99 259 -81 q 298 -146 298 -118 q 279 -193 298 -174 q 231 -213 259 -213 z "},"̥":{"ha":0,"x_min":-138,"x_max":142,"o":"m -1 -262 q -99 -226 -60 -262 q -138 -133 -138 -191 q -98 -35 -138 -72 q 4 1 -58 1 q 103 -35 64 1 q 142 -129 142 -72 q 100 -224 142 -186 q -1 -262 59 -262 m -1 -54 q -55 -76 -33 -54 q -77 -130 -77 -98 q -1 -206 -77 -206 q 56 -184 33 -206 q 78 -130 78 -163 q 56 -75 78 -97 q -1 -54 33 -54 z "},"̧":{"ha":0,"x_min":-115,"x_max":116,"o":"m 116 -174 q -71 -293 116 -293 q -115 -292 -96 -293 l -115 -231 q -67 -235 -85 -235 q 28 -174 28 -235 q -59 -121 28 -121 q -87 -123 -66 -121 l -87 0 l -14 0 l -14 -71 q 81 -98 46 -71 q 116 -174 116 -125 z "},"̨":{"ha":0,"x_min":-111,"x_max":77,"o":"m 77 0 q -25 -151 -25 -96 q 21 -199 -25 -199 q 59 -190 41 -199 l 59 -262 q 3 -271 39 -271 q -79 -244 -48 -271 q -111 -170 -111 -217 q -4 0 -111 -87 l 77 0 z "},"᠁":{"ha":1217,"x_min":76,"x_max":1141,"o":"m 456 398 q 402 420 425 398 q 380 474 380 443 q 402 528 380 505 q 456 551 425 551 q 510 528 488 551 q 532 474 532 505 q 510 420 532 443 q 456 398 488 398 m 151 398 q 98 420 120 398 q 76 474 76 443 q 98 528 76 505 q 151 551 120 551 q 205 528 183 551 q 228 474 228 505 q 205 420 228 443 q 151 398 183 398 m 1065 398 q 1011 420 1034 398 q 989 474 989 443 q 1011 528 989 505 q 1065 551 1034 551 q 1119 528 1097 551 q 1141 474 1141 505 q 1119 420 1141 443 q 1065 398 1097 398 m 760 398 q 707 420 729 398 q 685 474 685 443 q 707 528 685 505 q 760 551 729 551 q 814 528 792 551 q 837 474 837 505 q 814 420 837 443 q 760 398 792 398 z "},"᠂":{"ha":339,"x_min":54,"x_max":285,"o":"m 170 665 l 285 475 l 170 285 l 54 475 l 170 665 z "},"᠃":{"ha":678,"x_min":54,"x_max":624,"o":"m 170 665 l 285 475 l 170 285 l 54 475 l 170 665 m 509 665 l 624 475 l 509 285 l 393 475 l 509 665 z "},"᠄":{"ha":271,"x_min":60,"x_max":212,"o":"m 136 559 q 82 581 104 559 q 60 635 60 604 q 82 688 60 666 q 136 709 104 709 q 190 688 168 709 q 212 635 212 666 q 190 581 212 604 q 136 559 168 559 m 136 -15 q 82 7 104 -15 q 60 61 60 30 q 82 115 60 92 q 136 138 104 138 q 190 115 168 138 q 212 61 212 92 q 190 7 212 30 q 136 -15 168 -15 z "},"᠅":{"ha":746,"x_min":89,"x_max":659,"o":"m 204 665 l 319 475 l 204 285 l 89 475 l 204 665 m 543 665 l 659 475 l 543 285 l 428 475 l 543 665 m 373 1003 l 488 813 l 373 623 l 258 813 l 373 1003 m 373 326 l 488 136 l 373 -54 l 258 136 l 373 326 z "}," ":{"ha":543,"x_min":0,"x_max":0,"o":""}," ":{"ha":814,"x_min":0,"x_max":0,"o":""}," ":{"ha":543,"x_min":0,"x_max":0,"o":""}," ":{"ha":814,"x_min":0,"x_max":0,"o":""}," ":{"ha":271,"x_min":0,"x_max":0,"o":""}," ":{"ha":203,"x_min":0,"x_max":0,"o":""}," ":{"ha":136,"x_min":0,"x_max":0,"o":""}," ":{"ha":543,"x_min":0,"x_max":0,"o":""}," ":{"ha":136,"x_min":0,"x_max":0,"o":""}," ":{"ha":136,"x_min":0,"x_max":0,"o":""}," ":{"ha":68,"x_min":0,"x_max":0,"o":""},"​":{"ha":0,"x_min":0,"x_max":0,"o":""},"‌":{"ha":0,"x_min":-24,"x_max":24,"o":"m 24 874 l 24 -186 l -24 -186 l -24 874 l 24 874 z "},"‍":{"ha":0,"x_min":-149,"x_max":149,"o":"m 24 -186 l -24 -186 l -24 755 l -115 663 l -149 696 l -33 811 l -149 925 l -115 958 l 0 842 l 115 958 l 149 925 l 33 811 l 149 696 l 115 663 l 24 755 l 24 -186 z "},"‎":{"ha":0,"x_min":-24,"x_max":292,"o":"m 292 812 l 144 667 l 111 701 l 204 789 l 24 789 l 24 -186 l -24 -186 l -24 837 l 204 837 l 111 925 l 144 958 l 292 812 z "},"‏":{"ha":0,"x_min":-292,"x_max":24,"o":"m 24 -186 l -24 -186 l -24 789 l -205 789 l -112 701 l -145 667 l -292 812 l -145 958 l -112 925 l -205 837 l 24 837 l 24 -186 z "},"‐":{"ha":678,"x_min":98,"x_max":581,"o":"m 581 431 l 98 431 l 98 519 l 581 519 l 581 431 z "},"‑":{"ha":678,"x_min":98,"x_max":581,"o":"m 581 431 l 98 431 l 98 519 l 581 519 l 581 431 z "},"‒":{"ha":678,"x_min":98,"x_max":581,"o":"m 581 431 l 98 431 l 98 519 l 581 519 l 581 431 z "},"–":{"ha":678,"x_min":98,"x_max":581,"o":"m 581 431 l 98 431 l 98 519 l 581 519 l 581 431 z "},"—":{"ha":949,"x_min":98,"x_max":852,"o":"m 852 431 l 98 431 l 98 519 l 852 519 l 852 431 z "},"―":{"ha":1221,"x_min":98,"x_max":1123,"o":"m 1123 431 l 98 431 l 98 519 l 1123 519 l 1123 431 z "},"‖":{"ha":534,"x_min":117,"x_max":418,"o":"m 217 -327 l 117 -327 l 117 1062 l 217 1062 l 217 -327 m 418 -327 l 317 -327 l 317 1062 l 418 1062 l 418 -327 z "},"‗":{"ha":814,"x_min":0,"x_max":814,"o":"m 814 -121 l 0 -121 l 0 -40 l 814 -40 l 814 -121 m 814 -282 l 0 -282 l 0 -201 l 814 -201 l 814 -282 z "},"‘":{"ha":318,"x_min":72,"x_max":247,"o":"m 247 989 l 174 686 l 72 686 l 167 989 l 247 989 z "},"’":{"ha":318,"x_min":75,"x_max":250,"o":"m 250 989 l 155 686 l 75 686 l 150 989 l 250 989 z "},"‚":{"ha":318,"x_min":60,"x_max":235,"o":"m 235 147 l 139 -155 l 60 -155 l 134 147 l 235 147 z "},"‛":{"ha":318,"x_min":75,"x_max":250,"o":"m 250 686 l 171 686 l 75 989 l 175 989 l 250 686 z "},"“":{"ha":524,"x_min":72,"x_max":453,"o":"m 453 989 l 378 686 l 278 686 l 374 989 l 453 989 m 247 989 l 174 686 l 72 686 l 167 989 l 247 989 z "},"”":{"ha":524,"x_min":75,"x_max":456,"o":"m 456 989 l 361 686 l 281 686 l 354 989 l 456 989 m 250 989 l 155 686 l 75 686 l 150 989 l 250 989 z "},"„":{"ha":524,"x_min":60,"x_max":440,"o":"m 440 147 l 346 -155 l 265 -155 l 339 147 l 440 147 m 235 147 l 139 -155 l 60 -155 l 134 147 l 235 147 z "},"‟":{"ha":524,"x_min":71,"x_max":452,"o":"m 172 989 l 245 686 l 165 686 l 71 989 l 172 989 m 376 989 l 452 686 l 372 686 l 277 989 l 376 989 z "},"†":{"ha":521,"x_min":33,"x_max":494,"o":"m 494 606 l 316 626 l 289 155 l 237 155 l 210 626 l 33 606 l 33 707 l 237 694 l 210 972 l 316 972 l 289 694 l 494 707 l 494 606 z "},"‡":{"ha":521,"x_min":33,"x_max":494,"o":"m 494 352 l 289 366 l 316 155 l 210 155 l 237 366 l 33 352 l 33 454 l 210 433 l 250 564 l 210 694 l 33 673 l 33 775 l 237 762 l 210 972 l 316 972 l 289 762 l 494 775 l 494 673 l 316 694 l 277 564 l 316 433 l 494 454 l 494 352 z "},"•":{"ha":564,"x_min":111,"x_max":453,"o":"m 283 277 q 162 326 213 277 q 111 446 111 376 q 162 567 111 516 q 283 618 213 618 q 404 568 354 618 q 453 446 453 517 q 404 326 453 376 q 283 277 354 277 z "},"‣":{"ha":301,"x_min":86,"x_max":229,"o":"m 86 590 l 229 475 l 86 366 l 86 590 z "},"․":{"ha":301,"x_min":76,"x_max":228,"o":"m 151 -15 q 98 7 120 -15 q 76 61 76 30 q 98 115 76 92 q 151 138 120 138 q 205 115 183 138 q 228 61 228 92 q 205 7 228 30 q 151 -15 183 -15 z "},"‥":{"ha":678,"x_min":95,"x_max":583,"o":"m 509 -12 q 455 9 477 -12 q 433 62 433 31 q 455 116 433 94 q 509 139 477 139 q 561 116 539 139 q 583 62 583 94 q 561 9 583 31 q 509 -12 539 -12 m 168 -12 q 116 9 137 -12 q 95 62 95 31 q 116 116 95 94 q 168 139 137 139 q 221 116 199 139 q 243 62 243 94 q 221 9 243 31 q 168 -12 199 -12 z "},"…":{"ha":1018,"x_min":95,"x_max":924,"o":"m 849 -12 q 797 9 818 -12 q 775 62 775 31 q 797 116 775 94 q 849 139 818 139 q 902 116 880 139 q 924 62 924 94 q 902 9 924 31 q 849 -12 880 -12 m 509 -12 q 455 9 477 -12 q 433 62 433 31 q 455 116 433 94 q 509 139 477 139 q 561 116 539 139 q 583 62 583 94 q 561 9 583 31 q 509 -12 539 -12 m 168 -12 q 116 9 137 -12 q 95 62 95 31 q 116 116 95 94 q 168 139 137 139 q 221 116 199 139 q 243 62 243 94 q 221 9 243 31 q 168 -12 199 -12 z "},"‧":{"ha":301,"x_min":76,"x_max":228,"o":"m 151 397 q 98 420 120 397 q 76 473 76 442 q 98 527 76 505 q 151 550 120 550 q 205 527 183 550 q 228 473 228 505 q 205 420 228 442 q 151 397 183 397 z "}," ":{"ha":0,"x_min":0,"x_max":0,"o":""}," ":{"ha":0,"x_min":0,"x_max":0,"o":""},"‪":{"ha":407,"x_min":68,"x_max":339,"o":"m 68 949 l 339 949 l 339 859 l 158 859 l 158 -136 l 68 -136 l 68 949 z "},"‫":{"ha":407,"x_min":68,"x_max":339,"o":"m 339 -136 l 249 -136 l 249 859 l 68 859 l 68 949 l 339 949 l 339 -136 z "},"‬":{"ha":339,"x_min":68,"x_max":271,"o":"m 124 882 l 68 882 l 68 1085 l 271 1085 l 271 882 l 214 882 l 214 -136 l 124 -136 l 124 882 z "},"‭":{"ha":475,"x_min":68,"x_max":407,"o":"m 149 895 l 407 895 l 407 814 l 282 814 l 282 -136 l 192 -136 l 192 814 l 68 814 l 68 1085 l 407 1085 l 407 1004 l 149 1004 l 149 895 z "},"‮":{"ha":475,"x_min":68,"x_max":407,"o":"m 326 1004 l 68 1004 l 68 1085 l 407 1085 l 407 814 l 283 814 l 283 -136 l 193 -136 l 193 814 l 68 814 l 68 895 l 326 895 l 326 1004 z "}," ":{"ha":271,"x_min":0,"x_max":0,"o":""},"‰":{"ha":1681,"x_min":54,"x_max":1626,"o":"m 274 485 q 114 551 174 485 q 54 728 54 617 q 117 918 54 848 q 288 987 180 987 q 449 923 391 987 q 506 742 506 859 q 442 555 506 625 q 274 485 378 485 m 283 913 q 182 865 219 913 q 144 734 144 817 q 181 606 144 652 q 281 560 218 560 q 380 608 345 560 q 416 739 416 655 q 381 867 416 821 q 283 913 345 913 m 926 972 l 301 -7 l 204 -7 l 829 972 l 926 972 m 1394 -15 q 1234 52 1294 -15 q 1175 228 1175 118 q 1239 418 1175 348 q 1408 489 1303 489 q 1569 424 1512 489 q 1626 241 1626 359 q 1563 55 1626 125 q 1394 -15 1499 -15 m 1404 412 q 1302 365 1339 412 q 1265 233 1265 317 q 1302 106 1265 152 q 1401 61 1338 61 q 1501 109 1466 61 q 1537 240 1537 157 q 1501 367 1537 322 q 1404 412 1466 412 m 853 -15 q 693 52 753 -15 q 633 228 633 118 q 697 419 633 349 q 867 489 761 489 q 1027 424 970 489 q 1085 241 1085 359 q 1021 55 1085 125 q 853 -15 957 -15 m 863 412 q 761 365 798 412 q 724 233 724 317 q 760 107 724 153 q 860 61 797 61 q 960 109 924 61 q 996 240 996 157 q 960 368 996 323 q 863 412 924 412 z "},"‱":{"ha":2222,"x_min":54,"x_max":2168,"o":"m 274 485 q 114 551 174 485 q 54 728 54 617 q 117 918 54 848 q 288 987 180 987 q 449 923 391 987 q 506 742 506 859 q 442 555 506 625 q 274 485 378 485 m 283 913 q 182 865 219 913 q 144 734 144 817 q 181 606 144 652 q 281 560 218 560 q 380 608 345 560 q 416 739 416 655 q 381 867 416 821 q 283 913 345 913 m 926 972 l 301 -7 l 204 -7 l 829 972 l 926 972 m 1394 -15 q 1234 52 1294 -15 q 1175 228 1175 118 q 1239 418 1175 348 q 1408 489 1303 489 q 1569 424 1512 489 q 1626 241 1626 359 q 1563 55 1626 125 q 1394 -15 1499 -15 m 1404 412 q 1302 365 1339 412 q 1265 233 1265 317 q 1302 106 1265 152 q 1401 61 1338 61 q 1501 109 1466 61 q 1537 240 1537 157 q 1501 367 1537 322 q 1404 412 1466 412 m 853 -15 q 693 52 753 -15 q 633 228 633 118 q 697 419 633 349 q 867 489 761 489 q 1027 424 970 489 q 1085 241 1085 359 q 1021 55 1085 125 q 853 -15 957 -15 m 863 412 q 761 365 798 412 q 724 233 724 317 q 760 107 724 153 q 860 61 797 61 q 960 109 924 61 q 996 240 996 157 q 960 368 996 323 q 863 412 924 412 m 1936 -15 q 1776 52 1836 -15 q 1716 228 1716 118 q 1781 418 1716 348 q 1950 489 1845 489 q 2111 424 2053 489 q 2168 241 2168 359 q 2104 55 2168 125 q 1936 -15 2041 -15 m 1946 412 q 1844 365 1881 412 q 1807 233 1807 317 q 1844 106 1807 152 q 1943 61 1880 61 q 2043 109 2007 61 q 2079 240 2079 157 q 2043 367 2079 322 q 1946 412 2007 412 z "},"′":{"ha":318,"x_min":88,"x_max":237,"o":"m 237 972 l 167 669 l 88 669 l 146 972 l 237 972 z "},"″":{"ha":524,"x_min":96,"x_max":437,"o":"m 437 972 l 365 669 l 286 669 l 345 972 l 437 972 m 245 972 l 174 669 l 96 669 l 153 972 l 245 972 z "},"‴":{"ha":714,"x_min":96,"x_max":627,"o":"m 245 972 l 174 669 l 96 669 l 153 972 l 245 972 m 627 972 l 555 669 l 477 669 l 535 972 l 627 972 m 435 972 l 364 669 l 286 669 l 344 972 l 435 972 z "},"‵":{"ha":318,"x_min":81,"x_max":230,"o":"m 172 972 l 230 669 l 151 669 l 81 972 l 172 972 z "},"‶":{"ha":524,"x_min":87,"x_max":428,"o":"m 179 972 l 237 669 l 159 669 l 87 972 l 179 972 m 370 972 l 428 669 l 350 669 l 279 972 l 370 972 z "},"‷":{"ha":714,"x_min":87,"x_max":618,"o":"m 561 972 l 618 669 l 541 669 l 469 972 l 561 972 m 179 972 l 237 669 l 159 669 l 87 972 l 179 972 m 370 972 l 428 669 l 350 669 l 279 972 l 370 972 z "},"‸":{"ha":543,"x_min":80,"x_max":463,"o":"m 463 -224 l 380 -224 l 269 -68 l 157 -224 l 80 -224 l 226 1 l 316 1 l 463 -224 z "},"‹":{"ha":439,"x_min":62,"x_max":379,"o":"m 378 136 l 265 136 l 62 363 l 265 597 l 379 597 l 172 363 l 378 136 z "},"›":{"ha":439,"x_min":62,"x_max":379,"o":"m 379 365 l 175 136 l 62 136 l 269 365 l 62 597 l 175 597 l 379 365 z "},"※":{"ha":1169,"x_min":40,"x_max":1129,"o":"m 1129 1009 l 644 525 l 1129 41 l 1069 -20 l 585 465 l 100 -18 l 40 42 l 525 525 l 40 1008 l 100 1068 l 585 585 l 1069 1069 l 1129 1009 m 585 976 q 646 949 620 976 q 673 888 673 923 q 646 826 673 852 q 585 800 620 800 q 523 826 549 800 q 496 888 496 852 q 523 949 496 923 q 585 976 549 976 m 1036 525 q 1009 463 1036 490 q 947 437 983 437 q 886 463 912 437 q 859 525 859 490 q 886 587 859 560 q 947 613 912 613 q 1009 587 983 613 q 1036 525 1036 560 m 311 525 q 284 463 311 490 q 222 437 258 437 q 161 463 187 437 q 134 525 134 490 q 161 587 134 560 q 222 613 187 613 q 284 587 258 613 q 311 525 311 560 m 585 251 q 646 224 620 251 q 673 163 673 198 q 646 101 673 127 q 585 75 620 75 q 523 101 549 75 q 496 163 496 127 q 523 224 496 198 q 585 251 549 251 z "},"‼":{"ha":667,"x_min":122,"x_max":545,"o":"m 254 972 l 241 274 l 150 274 l 138 972 l 254 972 m 197 -12 q 144 9 166 -12 q 122 62 122 31 q 144 116 122 94 q 197 138 166 138 q 250 116 228 138 q 273 62 273 94 q 250 9 273 31 q 197 -12 228 -12 m 526 972 l 513 274 l 422 274 l 410 972 l 526 972 m 469 -12 q 416 9 438 -12 q 394 62 394 31 q 416 116 394 94 q 469 138 438 138 q 522 116 500 138 q 545 62 545 94 q 522 9 545 31 q 469 -12 500 -12 z "},"‽":{"ha":623,"x_min":70,"x_max":574,"o":"m 70 804 l 70 924 q 302 989 176 989 q 408 975 359 989 q 494 935 457 962 q 552 868 531 908 q 574 775 574 828 q 554 686 574 725 q 506 613 535 646 q 443 552 477 581 q 380 495 409 524 q 345 456 360 476 l 342 270 l 250 270 l 239 890 q 70 804 155 874 m 348 574 q 403 631 377 602 q 446 691 429 660 q 463 761 463 723 q 449 819 463 793 q 411 861 435 844 q 355 886 387 878 l 353 886 l 347 573 l 348 574 m 298 -12 q 244 9 267 -12 q 222 62 222 31 q 244 116 222 94 q 298 138 267 138 q 351 116 328 138 q 373 62 373 94 q 351 9 373 31 q 298 -12 328 -12 z "},"‾":{"ha":576,"x_min":0,"x_max":576,"o":"m 576 947 l 0 947 l 0 1028 l 576 1028 l 576 947 z "},"‿":{"ha":814,"x_min":71,"x_max":743,"o":"m 743 -1 l 743 -134 q 410 -311 607 -311 q 71 -134 210 -311 l 71 0 q 409 -213 216 -213 q 743 -1 600 -213 z "},"⁀":{"ha":814,"x_min":71,"x_max":743,"o":"m 743 911 q 409 1122 600 1122 q 71 909 216 1122 l 71 1044 q 410 1220 210 1220 q 743 1044 607 1220 l 743 911 z "},"⁁":{"ha":543,"x_min":80,"x_max":463,"o":"m 463 -225 l 380 -225 l 269 -69 l 157 -225 l 80 -225 l 226 0 l 226 339 l 316 339 l 316 0 l 463 -225 z "},"⁂":{"ha":1119,"x_min":52,"x_max":1067,"o":"m 798 749 l 612 711 l 741 546 l 667 494 l 561 674 l 454 494 l 379 546 l 508 711 l 321 749 l 351 833 l 529 766 l 513 972 l 607 972 l 591 766 l 770 833 l 798 749 m 529 234 l 343 196 l 472 31 l 397 -20 l 292 159 l 184 -20 l 110 31 l 239 196 l 52 234 l 82 319 l 260 252 l 244 458 l 338 458 l 322 252 l 500 319 l 529 234 m 1067 234 l 882 196 l 1010 31 l 936 -20 l 830 159 l 723 -20 l 648 31 l 777 196 l 590 234 l 621 319 l 798 252 l 783 458 l 876 458 l 861 252 l 1039 319 l 1067 234 z "},"⁃":{"ha":407,"x_min":68,"x_max":339,"o":"m 339 431 l 68 431 l 68 519 l 339 519 l 339 431 z "},"⁄":{"ha":678,"x_min":98,"x_max":581,"o":"m 581 431 l 98 431 l 98 519 l 581 519 l 581 431 z "},"⁅":{"ha":407,"x_min":68,"x_max":339,"o":"m 68 949 l 339 949 l 339 845 l 179 845 l 179 527 l 339 527 l 339 422 l 179 422 l 179 104 l 339 104 l 339 0 l 68 0 l 68 949 z "},"⁆":{"ha":407,"x_min":68,"x_max":339,"o":"m 339 0 l 68 0 l 68 104 l 228 104 l 228 422 l 68 422 l 68 527 l 228 527 l 228 845 l 68 845 l 68 949 l 339 949 l 339 0 z "},"⁇":{"ha":1244,"x_min":89,"x_max":1176,"o":"m 849 270 q 838 316 843 288 q 833 372 833 344 q 851 450 833 415 q 894 515 868 485 q 950 574 920 546 q 1006 631 981 602 q 1049 691 1032 660 q 1067 761 1067 723 q 1054 819 1067 793 q 1020 861 1042 844 q 970 886 998 878 q 909 895 941 895 q 711 804 795 895 l 711 924 q 926 989 814 989 q 1023 975 977 989 q 1102 935 1068 962 q 1156 868 1137 908 q 1176 775 1176 828 q 1158 686 1176 725 q 1114 613 1141 646 q 1056 552 1087 581 q 998 495 1025 524 q 954 437 971 467 q 936 370 936 406 q 943 313 936 338 q 958 270 951 288 l 849 270 m 910 -12 q 857 9 880 -12 q 835 62 835 31 q 857 115 835 94 q 910 138 880 138 q 963 115 941 138 q 985 62 985 94 q 963 9 985 31 q 910 -12 940 -12 m 227 270 q 216 316 221 288 q 212 372 212 344 q 229 450 212 415 q 272 515 246 485 q 328 574 298 546 q 385 631 359 602 q 428 691 410 660 q 445 761 445 723 q 432 819 445 793 q 398 861 420 844 q 348 886 376 878 q 288 895 319 895 q 89 804 173 895 l 89 924 q 304 989 193 989 q 401 975 355 989 q 480 935 446 962 q 534 868 515 908 q 554 775 554 828 q 536 686 554 725 q 492 613 519 646 q 434 552 465 581 q 376 495 403 524 q 332 437 349 467 q 314 370 314 406 q 321 313 314 338 q 336 270 329 288 l 227 270 m 288 -12 q 235 9 258 -12 q 213 62 213 31 q 235 115 213 94 q 288 138 258 138 q 341 115 319 138 q 363 62 363 94 q 341 9 363 31 q 288 -12 318 -12 z "},"⁈":{"ha":1017,"x_min":89,"x_max":895,"o":"m 227 270 q 216 316 221 288 q 212 372 212 344 q 229 450 212 415 q 272 515 246 485 q 328 574 298 546 q 385 631 359 602 q 428 691 410 660 q 445 761 445 723 q 432 819 445 793 q 398 861 420 844 q 348 886 376 878 q 288 895 319 895 q 89 804 173 895 l 89 924 q 304 989 193 989 q 401 975 355 989 q 480 935 446 962 q 534 868 515 908 q 554 775 554 828 q 536 686 554 725 q 492 613 519 646 q 434 552 465 581 q 376 495 403 524 q 332 437 349 467 q 314 370 314 406 q 321 313 314 338 q 336 270 329 288 l 227 270 m 288 -12 q 235 9 258 -12 q 213 62 213 31 q 235 115 213 94 q 288 138 258 138 q 341 115 319 138 q 363 62 363 94 q 341 9 363 31 q 288 -12 318 -12 m 877 972 l 864 274 l 772 274 l 760 972 l 877 972 m 820 -12 q 767 9 789 -12 q 745 62 745 31 q 767 116 745 94 q 820 138 789 138 q 873 116 850 138 q 895 62 895 94 q 873 9 895 31 q 820 -12 850 -12 z "},"⁉":{"ha":1017,"x_min":122,"x_max":949,"o":"m 254 972 l 241 274 l 150 274 l 138 972 l 254 972 m 197 -12 q 144 9 166 -12 q 122 62 122 31 q 144 116 122 94 q 197 138 166 138 q 250 116 228 138 q 273 62 273 94 q 250 9 273 31 q 197 -12 228 -12 m 622 270 q 611 316 616 288 q 606 372 606 344 q 624 450 606 415 q 667 515 641 485 q 723 574 692 546 q 779 631 753 602 q 822 691 805 660 q 840 761 840 723 q 827 819 840 793 q 793 861 814 844 q 743 886 771 878 q 682 895 714 895 q 484 804 568 895 l 484 924 q 699 989 587 989 q 795 975 750 989 q 875 935 841 962 q 929 868 909 908 q 949 775 949 828 q 931 686 949 725 q 887 613 913 646 q 829 552 860 581 q 771 495 798 524 q 726 437 744 467 q 709 370 709 406 q 716 313 709 338 q 731 270 724 288 l 622 270 m 683 -12 q 630 9 653 -12 q 608 62 608 31 q 630 115 608 94 q 683 138 652 138 q 736 115 713 138 q 758 62 758 94 q 736 9 758 31 q 683 -12 713 -12 z "},"⁊":{"ha":543,"x_min":68,"x_max":475,"o":"m 344 -136 l 233 -136 l 363 422 l 363 709 l 68 709 l 68 814 l 475 814 l 475 424 l 344 -136 z "},"⁋":{"ha":678,"x_min":85,"x_max":593,"o":"m 85 972 l 420 972 q 543 923 492 972 q 593 793 593 873 q 545 664 593 715 q 424 612 497 612 l 424 0 l 351 0 l 351 903 l 243 903 l 243 0 l 172 0 l 172 903 l 85 903 l 85 972 z "},"⁌":{"ha":543,"x_min":68,"x_max":475,"o":"m 475 563 l 475 387 l 170 387 l 68 475 l 170 563 l 475 563 z "},"⁍":{"ha":543,"x_min":68,"x_max":475,"o":"m 373 563 l 475 475 l 373 387 l 68 387 l 68 563 l 373 563 z "},"⁎":{"ha":576,"x_min":52,"x_max":529,"o":"m 529 234 l 343 196 l 472 31 l 397 -20 l 292 159 l 184 -20 l 110 31 l 239 196 l 52 234 l 82 319 l 260 252 l 244 458 l 338 458 l 322 252 l 500 319 l 529 234 z "},"⁏":{"ha":301,"x_min":26,"x_max":229,"o":"m 153 559 q 99 581 121 559 q 77 635 77 604 q 99 688 77 666 q 153 709 121 709 q 207 688 184 709 q 229 635 229 666 q 207 581 229 604 q 153 559 184 559 m 214 155 l 106 -179 l 26 -179 l 106 155 l 214 155 z "},"⁐":{"ha":814,"x_min":71,"x_max":743,"o":"m 743 309 l 743 176 q 410 0 607 0 q 71 176 210 0 l 71 311 q 409 98 216 98 q 743 309 600 98 m 743 640 q 409 852 600 852 q 71 639 216 852 l 71 773 q 410 949 210 949 q 743 773 607 949 l 743 640 z "},"⁑":{"ha":576,"x_min":52,"x_max":529,"o":"m 529 749 l 343 711 l 472 546 l 397 494 l 292 674 l 184 494 l 110 546 l 239 711 l 52 749 l 82 833 l 260 766 l 244 972 l 338 972 l 322 766 l 500 833 l 529 749 m 529 234 l 343 196 l 472 31 l 397 -20 l 292 159 l 184 -20 l 110 31 l 239 196 l 52 234 l 82 319 l 260 252 l 244 458 l 338 458 l 322 252 l 500 319 l 529 234 z "},"⁒":{"ha":543,"x_min":-19,"x_max":551,"o":"m 551 972 l 85 -28 l -19 -28 l 446 972 l 551 972 m 406 -7 q 353 15 375 -7 q 331 68 331 37 q 353 122 331 100 q 406 145 375 145 q 460 122 438 145 q 483 68 483 100 q 460 15 483 37 q 406 -7 438 -7 m 135 805 q 82 827 104 805 q 60 881 60 850 q 82 935 60 912 q 135 958 104 958 q 189 935 167 958 q 212 881 212 912 q 189 827 212 850 q 135 805 167 805 z "},"⁓":{"ha":746,"x_min":40,"x_max":708,"o":"m 708 509 q 653 353 703 408 q 518 298 604 298 q 338 372 444 298 q 231 418 273 418 q 132 298 136 418 l 40 298 q 94 452 43 395 q 231 509 144 509 q 390 449 302 509 q 524 388 479 388 q 590 421 565 388 q 616 509 615 454 l 708 509 z "},"⁔":{"ha":814,"x_min":71,"x_max":743,"o":"m 743 -309 q 409 -98 600 -98 q 71 -311 216 -98 l 71 -176 q 410 0 210 0 q 743 -176 607 0 l 743 -309 z "},"⁕":{"ha":814,"x_min":88,"x_max":726,"o":"m 701 175 l 637 111 l 452 296 l 452 52 l 361 52 l 361 296 l 177 111 l 113 175 l 298 359 l 88 359 l 88 450 l 298 450 l 113 635 l 177 699 l 361 513 l 361 758 l 452 758 l 452 513 l 637 699 l 701 635 l 516 450 l 726 450 l 726 359 l 515 359 l 701 175 z "},"⁖":{"ha":678,"x_min":76,"x_max":602,"o":"m 526 469 q 472 492 494 469 q 450 545 450 514 q 472 599 450 576 q 526 622 494 622 q 580 599 557 622 q 602 545 602 576 q 580 492 602 514 q 526 469 557 469 m 526 77 q 472 100 494 77 q 450 153 450 122 q 472 207 450 184 q 526 230 494 230 q 580 207 557 230 q 602 153 602 184 q 580 100 602 122 q 526 77 557 77 m 151 273 q 98 296 120 273 q 76 349 76 318 q 98 403 76 380 q 151 426 120 426 q 205 403 183 426 q 228 349 228 380 q 205 296 228 318 q 151 273 183 273 z "},"⁗":{"ha":905,"x_min":96,"x_max":819,"o":"m 245 972 l 174 669 l 96 669 l 153 972 l 245 972 m 435 972 l 364 669 l 286 669 l 344 972 l 435 972 m 819 972 l 747 669 l 668 669 l 726 972 l 819 972 m 627 972 l 555 669 l 477 669 l 535 972 l 627 972 z "},"⁘":{"ha":678,"x_min":76,"x_max":602,"o":"m 526 266 q 472 288 494 266 q 450 342 450 311 q 472 396 450 373 q 526 418 494 418 q 580 396 557 418 q 602 342 602 373 q 580 288 602 311 q 526 266 557 266 m 340 469 q 287 492 309 469 q 265 545 265 514 q 287 599 265 576 q 340 622 309 622 q 395 599 372 622 q 417 545 417 576 q 395 492 417 514 q 340 469 372 469 m 340 77 q 287 100 309 77 q 265 153 265 122 q 287 207 265 184 q 340 230 309 230 q 395 207 372 230 q 417 153 417 184 q 395 100 417 122 q 340 77 372 77 m 151 266 q 98 288 120 266 q 76 342 76 311 q 98 396 76 373 q 151 418 120 418 q 205 396 183 418 q 228 342 228 373 q 205 288 228 311 q 151 266 183 266 z "},"⁙":{"ha":678,"x_min":76,"x_max":602,"o":"m 151 469 q 98 492 120 469 q 76 545 76 514 q 98 599 76 576 q 151 622 120 622 q 205 599 183 622 q 228 545 228 576 q 205 492 228 514 q 151 469 183 469 m 151 77 q 98 100 120 77 q 76 153 76 122 q 98 207 76 184 q 151 230 120 230 q 205 207 183 230 q 228 153 228 184 q 205 100 228 122 q 151 77 183 77 m 526 469 q 472 492 494 469 q 450 545 450 514 q 472 599 450 576 q 526 622 494 622 q 580 599 557 622 q 602 545 602 576 q 580 492 602 514 q 526 469 557 469 m 526 77 q 472 100 494 77 q 450 153 450 122 q 472 207 450 184 q 526 230 494 230 q 580 207 557 230 q 602 153 602 184 q 580 100 602 122 q 526 77 557 77 m 340 273 q 287 296 309 273 q 265 349 265 318 q 287 403 265 380 q 340 426 309 426 q 395 403 372 426 q 417 349 417 380 q 395 296 417 318 q 340 273 372 273 z "},"⁚":{"ha":301,"x_min":76,"x_max":228,"o":"m 151 469 q 98 492 120 469 q 76 545 76 514 q 98 599 76 576 q 151 622 120 622 q 205 599 183 622 q 228 545 228 576 q 205 492 228 514 q 151 469 183 469 m 151 77 q 98 100 120 77 q 76 153 76 122 q 98 207 76 184 q 151 230 120 230 q 205 207 183 230 q 228 153 228 184 q 205 100 228 122 q 151 77 183 77 z "},"⁛":{"ha":678,"x_min":68,"x_max":610,"o":"m 68 407 l 68 543 l 203 543 l 203 407 l 68 407 m 271 746 l 271 882 l 407 882 l 407 746 l 271 746 m 271 68 l 271 203 l 407 203 l 407 68 l 271 68 m 475 407 l 475 543 l 610 543 l 610 407 l 475 407 z "},"⁜":{"ha":678,"x_min":24,"x_max":662,"o":"m 151 469 q 98 492 120 469 q 76 545 76 514 q 98 599 76 576 q 151 622 120 622 q 205 599 183 622 q 228 545 228 576 q 205 492 228 514 q 151 469 183 469 m 151 77 q 98 100 120 77 q 76 153 76 122 q 98 207 76 184 q 151 230 120 230 q 205 207 183 230 q 228 153 228 184 q 205 100 228 122 q 151 77 183 77 m 526 469 q 472 492 494 469 q 450 545 450 514 q 472 599 450 576 q 526 622 494 622 q 580 599 557 622 q 602 545 602 576 q 580 492 602 514 q 526 469 557 469 m 526 77 q 472 100 494 77 q 450 153 450 122 q 472 207 450 184 q 526 230 494 230 q 580 207 557 230 q 602 153 602 184 q 580 100 602 122 q 526 77 557 77 m 662 307 l 388 307 l 388 33 l 298 33 l 298 307 l 24 307 l 24 397 l 298 397 l 298 671 l 388 671 l 388 397 l 662 397 l 662 307 z "},"⁝":{"ha":301,"x_min":76,"x_max":228,"o":"m 151 -119 q 98 -97 120 -119 q 76 -43 76 -75 q 98 11 76 -12 q 151 33 120 33 q 205 11 183 33 q 228 -43 228 -12 q 205 -97 228 -75 q 151 -119 183 -119 m 151 275 q 98 298 120 275 q 76 351 76 320 q 98 405 76 382 q 151 428 120 428 q 205 405 183 428 q 228 351 228 382 q 205 298 228 320 q 151 275 183 275 m 151 663 q 98 686 120 663 q 76 739 76 708 q 98 793 76 770 q 151 816 120 816 q 205 793 183 816 q 228 739 228 770 q 205 686 228 708 q 151 663 183 663 z "},"⁞":{"ha":301,"x_min":76,"x_max":228,"o":"m 151 81 q 98 103 120 81 q 76 157 76 125 q 98 211 76 188 q 151 233 120 233 q 205 211 183 233 q 228 157 228 188 q 205 103 228 125 q 151 81 183 81 m 151 -306 q 98 -283 120 -306 q 76 -230 76 -261 q 98 -176 76 -199 q 151 -153 120 -153 q 205 -176 183 -153 q 228 -230 228 -199 q 205 -283 228 -261 q 151 -306 183 -306 m 151 469 q 98 492 120 469 q 76 545 76 514 q 98 599 76 576 q 151 622 120 622 q 205 599 183 622 q 228 545 228 576 q 205 492 228 514 q 151 469 183 469 m 151 857 q 98 880 120 857 q 76 933 76 902 q 98 987 76 964 q 151 1010 120 1010 q 205 987 183 1010 q 228 933 228 964 q 205 880 228 902 q 151 857 183 857 z "}," ":{"ha":203,"x_min":0,"x_max":0,"o":""},"⁰":{"ha":509,"x_min":49,"x_max":459,"o":"m 248 586 q 101 660 153 586 q 49 876 49 734 q 103 1111 49 1031 q 262 1190 158 1190 q 459 890 459 1190 q 404 664 459 742 q 248 586 349 586 m 257 1109 q 142 880 142 1109 q 255 667 142 667 q 366 884 366 667 q 257 1109 366 1109 z "},"ⁱ":{"ha":239,"x_min":62,"x_max":177,"o":"m 119 1099 q 78 1113 94 1099 q 62 1150 62 1128 q 78 1186 62 1171 q 119 1201 94 1201 q 161 1186 144 1201 q 177 1150 177 1171 q 161 1114 177 1128 q 119 1099 144 1099 m 161 486 l 75 486 l 75 974 l 161 974 l 161 486 z "},"⁴":{"ha":509,"x_min":32,"x_max":463,"o":"m 463 738 l 388 738 l 388 600 l 298 600 l 298 738 l 32 738 l 32 800 l 282 1176 l 388 1176 l 388 812 l 463 812 l 463 738 m 301 1090 l 298 1090 q 273 1041 290 1069 l 125 812 l 298 812 l 298 1031 q 301 1090 298 1053 z "},"⁵":{"ha":509,"x_min":85,"x_max":441,"o":"m 85 614 l 85 713 q 221 666 163 666 q 313 696 279 666 q 347 774 347 727 q 209 878 347 878 l 104 872 l 104 1179 l 414 1179 l 414 1095 l 191 1095 l 191 959 q 377 917 314 968 q 441 779 441 865 q 381 639 441 693 q 220 585 322 585 q 85 614 136 585 z "},"⁶":{"ha":509,"x_min":50,"x_max":460,"o":"m 414 1166 l 414 1078 q 391 1090 405 1084 q 363 1099 378 1095 q 334 1106 349 1103 q 307 1108 319 1108 q 239 1096 268 1108 q 188 1059 210 1084 q 152 993 167 1036 q 136 884 136 950 l 139 884 q 196 940 159 918 q 286 962 233 962 q 359 949 327 962 q 414 912 391 936 q 448 854 436 888 q 460 779 460 821 q 445 703 460 738 q 402 641 429 667 q 339 601 376 615 q 262 586 303 586 q 180 603 219 586 q 113 653 142 619 q 66 738 83 686 q 50 860 50 789 q 68 1001 50 939 q 122 1104 87 1062 q 203 1168 156 1146 q 308 1190 251 1190 q 365 1183 337 1190 q 414 1166 393 1177 m 262 890 q 218 883 239 890 q 183 863 198 876 q 159 830 168 849 q 151 787 151 811 q 158 742 151 764 q 179 703 165 720 q 212 675 193 686 q 257 665 232 665 q 337 696 308 665 q 366 777 366 727 q 339 860 366 829 q 262 890 313 890 z "},"⁷":{"ha":509,"x_min":52,"x_max":456,"o":"m 220 600 l 121 600 l 339 1103 l 52 1103 l 52 1183 l 456 1183 l 456 1147 l 220 600 z "},"⁸":{"ha":509,"x_min":49,"x_max":459,"o":"m 349 903 q 459 751 459 854 q 404 630 459 674 q 247 586 348 586 q 105 630 162 586 q 49 745 49 673 q 159 903 49 849 q 70 1039 70 954 q 122 1148 70 1107 q 262 1190 174 1190 q 391 1150 342 1190 q 440 1047 440 1111 q 349 903 440 956 m 254 945 q 347 1039 347 983 q 256 1109 347 1109 q 190 1089 216 1109 q 163 1040 163 1070 q 254 945 163 983 m 250 863 q 142 749 142 827 q 174 691 142 714 q 256 667 206 667 q 335 690 304 667 q 366 746 366 713 q 250 863 366 823 z "},"⁹":{"ha":509,"x_min":52,"x_max":463,"o":"m 212 666 q 288 683 256 666 q 340 732 320 701 q 370 806 361 763 q 379 899 379 848 l 376 899 q 353 864 368 880 q 320 837 338 848 q 279 820 301 826 q 232 813 256 813 q 158 826 191 813 q 102 863 125 839 q 65 921 78 887 q 52 995 52 954 q 66 1074 52 1038 q 107 1135 81 1109 q 170 1175 133 1161 q 250 1190 206 1190 q 332 1172 294 1190 q 399 1121 370 1155 q 446 1036 429 1086 q 463 917 463 985 q 446 785 463 846 q 398 680 430 724 q 320 610 367 635 q 212 585 273 585 q 146 593 179 585 q 87 616 113 601 l 87 702 q 116 688 100 694 q 148 676 132 682 q 180 669 164 671 q 212 666 197 666 m 252 1109 q 211 1102 230 1109 q 177 1079 191 1094 q 155 1043 163 1064 q 146 995 146 1022 q 174 914 146 943 q 249 885 202 885 q 291 892 271 885 q 328 913 312 900 q 354 943 344 926 q 363 980 363 960 q 355 1033 363 1008 q 332 1074 347 1057 q 296 1100 317 1090 q 252 1109 276 1109 z "},"⁺":{"ha":509,"x_min":63,"x_max":446,"o":"m 446 846 l 288 846 l 288 688 l 220 688 l 220 846 l 63 846 l 63 913 l 220 913 l 220 1071 l 288 1071 l 288 913 l 446 913 l 446 846 z "},"⁻":{"ha":509,"x_min":63,"x_max":446,"o":"m 63 913 l 446 913 l 446 846 l 63 846 l 63 913 z "},"⁼":{"ha":509,"x_min":63,"x_max":446,"o":"m 63 815 l 446 815 l 446 747 l 63 747 l 63 815 m 63 1012 l 446 1012 l 446 944 l 63 944 l 63 1012 z "},"⁽":{"ha":419,"x_min":138,"x_max":351,"o":"m 138 872 q 264 1233 138 1084 l 351 1233 q 224 873 224 1078 q 351 517 224 669 l 264 517 q 138 872 138 661 z "},"⁾":{"ha":419,"x_min":68,"x_max":281,"o":"m 281 872 q 155 517 281 661 l 68 517 q 195 873 195 669 q 68 1233 195 1078 l 155 1233 q 281 872 281 1084 z "},"ⁿ":{"ha":545,"x_min":75,"x_max":479,"o":"m 161 486 l 75 486 l 75 974 l 161 974 l 161 896 l 164 896 q 307 987 210 987 q 433 937 388 987 q 479 798 479 887 l 479 486 l 391 486 l 391 792 q 288 911 391 911 q 200 870 238 911 q 161 772 161 829 l 161 486 z "},"₀":{"ha":509,"x_min":49,"x_max":459,"o":"m 248 -178 q 101 -104 153 -178 q 49 112 49 -30 q 103 346 49 267 q 262 425 158 425 q 459 126 459 425 q 404 -100 459 -22 q 248 -178 349 -178 m 257 345 q 142 116 142 345 q 255 -97 142 -97 q 366 120 366 -97 q 257 345 366 345 z "},"₁":{"ha":509,"x_min":106,"x_max":453,"o":"m 453 -165 l 111 -165 l 111 -89 l 237 -89 l 237 314 l 106 277 l 106 361 l 325 427 l 325 -89 l 453 -89 l 453 -165 z "},"₂":{"ha":509,"x_min":71,"x_max":446,"o":"m 446 -165 l 71 -165 l 71 -87 l 233 73 q 323 179 304 142 q 342 253 342 216 q 316 317 342 292 q 248 342 290 342 q 102 273 168 342 l 102 374 q 261 425 159 425 q 388 380 341 425 q 435 262 435 336 q 296 26 435 159 l 184 -79 l 184 -82 l 446 -82 l 446 -165 z "},"₃":{"ha":509,"x_min":87,"x_max":444,"o":"m 87 -143 l 87 -47 q 235 -98 157 -98 q 320 -73 289 -98 q 351 -4 351 -47 q 203 92 351 92 l 146 92 l 146 172 l 200 172 q 334 262 334 172 q 236 343 334 343 q 110 296 172 343 l 110 391 q 254 425 169 425 q 376 385 331 425 q 422 279 422 345 q 323 140 422 177 l 323 138 q 444 1 444 109 q 386 -129 444 -79 q 232 -179 328 -179 q 87 -143 139 -179 z "},"₄":{"ha":509,"x_min":32,"x_max":463,"o":"m 463 -22 l 388 -22 l 388 -161 l 298 -161 l 298 -22 l 32 -22 l 32 40 l 282 416 l 388 416 l 388 52 l 463 52 l 463 -22 m 301 330 l 298 330 q 273 281 290 309 l 125 52 l 298 52 l 298 271 q 301 330 298 292 z "},"₅":{"ha":509,"x_min":85,"x_max":441,"o":"m 85 -150 l 85 -51 q 221 -98 163 -98 q 313 -68 279 -98 q 347 10 347 -37 q 209 113 347 113 l 104 108 l 104 414 l 414 414 l 414 330 l 191 330 l 191 195 q 377 152 314 203 q 441 14 441 101 q 381 -125 441 -71 q 220 -179 322 -179 q 85 -150 136 -179 z "},"₆":{"ha":509,"x_min":50,"x_max":460,"o":"m 414 401 l 414 314 q 391 326 405 320 q 363 335 378 331 q 334 341 349 339 q 307 344 319 344 q 239 332 268 344 q 188 295 210 319 q 152 229 167 272 q 136 120 136 186 l 139 120 q 196 176 159 154 q 286 198 233 198 q 359 185 327 198 q 414 148 391 172 q 448 90 436 123 q 460 15 460 56 q 445 -62 460 -26 q 402 -123 429 -97 q 339 -164 376 -149 q 262 -178 303 -178 q 180 -162 219 -178 q 113 -112 142 -145 q 66 -26 83 -78 q 50 96 50 25 q 68 236 50 175 q 122 340 87 298 q 203 404 156 382 q 308 425 251 425 q 365 419 337 425 q 414 401 393 413 m 262 126 q 218 119 239 126 q 183 98 198 112 q 159 66 168 85 q 151 22 151 47 q 158 -23 151 -1 q 179 -62 165 -45 q 212 -89 193 -79 q 257 -99 232 -99 q 337 -68 308 -99 q 366 12 366 -37 q 339 96 366 65 q 262 126 313 126 z "},"₇":{"ha":509,"x_min":52,"x_max":456,"o":"m 220 -165 l 121 -165 l 339 338 l 52 338 l 52 418 l 456 418 l 456 382 l 220 -165 z "},"₈":{"ha":509,"x_min":49,"x_max":459,"o":"m 349 139 q 459 -14 459 90 q 404 -134 459 -90 q 247 -178 348 -178 q 105 -135 162 -178 q 49 -19 49 -91 q 159 139 49 85 q 70 275 70 189 q 122 384 70 342 q 262 425 174 425 q 391 386 342 425 q 440 283 440 347 q 349 139 440 192 m 254 180 q 347 275 347 219 q 256 345 347 345 q 190 325 216 345 q 163 276 163 306 q 254 180 163 218 m 250 99 q 142 -16 142 62 q 174 -74 142 -50 q 256 -97 206 -97 q 335 -74 304 -97 q 366 -18 366 -51 q 250 99 366 59 z "},"₉":{"ha":509,"x_min":52,"x_max":463,"o":"m 212 -98 q 288 -81 256 -98 q 340 -33 320 -64 q 370 41 361 -1 q 379 135 379 84 l 376 135 q 353 100 368 116 q 320 73 338 84 q 279 55 301 62 q 232 49 256 49 q 158 62 191 49 q 102 99 125 75 q 65 156 78 123 q 52 231 52 190 q 66 309 52 273 q 107 371 81 345 q 170 411 133 397 q 250 425 206 425 q 332 408 294 425 q 399 356 370 391 q 446 271 429 322 q 463 153 463 220 q 446 20 463 81 q 398 -85 430 -41 q 320 -154 367 -129 q 212 -179 273 -179 q 146 -171 179 -179 q 87 -149 113 -163 l 87 -62 q 116 -76 100 -70 q 148 -88 132 -83 q 180 -96 164 -93 q 212 -98 197 -98 m 252 345 q 211 337 230 345 q 177 315 191 330 q 155 279 163 300 q 146 231 146 258 q 174 150 146 179 q 249 121 202 121 q 291 128 271 121 q 328 149 312 136 q 354 179 344 161 q 363 216 363 196 q 355 268 363 244 q 332 309 347 292 q 296 336 317 326 q 252 345 276 345 z "},"₊":{"ha":509,"x_min":63,"x_max":446,"o":"m 446 81 l 288 81 l 288 -76 l 220 -76 l 220 81 l 63 81 l 63 149 l 220 149 l 220 307 l 288 307 l 288 149 l 446 149 l 446 81 z "},"₋":{"ha":509,"x_min":63,"x_max":446,"o":"m 63 149 l 446 149 l 446 81 l 63 81 l 63 149 z "},"₌":{"ha":509,"x_min":63,"x_max":446,"o":"m 63 51 l 446 51 l 446 -17 l 63 -17 l 63 51 m 63 248 l 446 248 l 446 180 l 63 180 l 63 248 z "},"₍":{"ha":419,"x_min":138,"x_max":351,"o":"m 351 -248 l 264 -248 q 138 108 138 -104 q 264 469 138 319 l 351 469 q 224 109 224 314 q 351 -248 224 -96 z "},"₎":{"ha":419,"x_min":68,"x_max":281,"o":"m 281 108 q 155 -248 281 -104 l 68 -248 q 195 109 195 -96 q 68 469 195 314 l 155 469 q 281 108 281 319 z "},"ₐ":{"ha":437,"x_min":42,"x_max":368,"o":"m 368 -185 l 282 -185 l 282 -131 l 281 -131 q 163 -197 243 -197 q 74 -166 106 -197 q 42 -85 42 -136 q 174 39 42 20 l 282 54 q 207 131 282 131 q 79 88 139 131 l 79 165 q 217 198 137 198 q 368 52 368 198 l 368 -185 m 282 -35 l 282 -3 l 200 -14 q 126 -77 126 -24 q 190 -131 126 -131 q 256 -104 231 -131 q 282 -35 282 -78 z "},"ₑ":{"ha":432,"x_min":42,"x_max":383,"o":"m 383 -30 l 127 -30 q 239 -127 134 -127 q 354 -91 301 -127 l 354 -166 q 224 -197 305 -197 q 90 -145 138 -197 q 42 -2 42 -94 q 92 142 42 85 q 218 198 141 198 q 339 149 295 198 q 383 16 383 100 l 383 -30 m 300 37 q 217 131 298 131 q 127 37 136 131 l 300 37 z "},"ₒ":{"ha":475,"x_min":42,"x_max":433,"o":"m 233 -197 q 94 -143 146 -197 q 42 -3 42 -90 q 97 143 42 88 q 241 198 152 198 q 381 144 328 198 q 433 5 433 90 q 378 -142 433 -87 q 233 -197 323 -197 m 237 125 q 158 92 188 125 q 129 1 129 59 q 159 -91 129 -58 q 237 -124 189 -124 q 316 -91 287 -124 q 346 1 346 -58 q 316 93 346 60 q 237 125 287 125 z "},"ₓ":{"ha":371,"x_min":12,"x_max":359,"o":"m 359 186 l 231 -1 l 356 -185 l 258 -185 l 186 -64 l 184 -64 l 110 -185 l 12 -185 l 141 -3 l 18 186 l 117 186 l 186 58 l 188 58 l 263 186 l 359 186 z "},"ₔ":{"ha":432,"x_min":49,"x_max":391,"o":"m 49 31 l 304 31 q 193 130 298 130 q 77 94 130 130 l 77 169 q 208 199 127 199 q 341 148 292 199 q 391 3 391 96 q 340 -141 391 -84 q 214 -198 290 -198 q 93 -148 137 -198 q 49 -14 49 -98 l 49 31 m 304 -35 l 132 -35 q 216 -131 133 -131 q 304 -35 294 -131 z "},"₮":{"ha":623,"x_min":28,"x_max":594,"o":"m 526 644 l 368 553 l 368 415 l 526 505 l 526 409 l 368 319 l 368 0 l 254 0 l 254 254 l 92 162 l 92 258 l 254 350 l 254 488 l 92 397 l 92 493 l 254 585 l 254 869 l 28 869 l 28 972 l 594 972 l 594 869 l 368 869 l 368 650 l 526 740 l 526 644 z "},"　":{"ha":1389,"x_min":0,"x_max":0,"o":""},"、":{"ha":1389,"x_min":86,"x_max":419,"o":"m 419 -90 l 338 -172 q 86 66 223 -47 l 158 141 q 419 -90 327 5 z "},"。":{"ha":1389,"x_min":89,"x_max":429,"o":"m 264 187 q 380 136 331 187 q 429 16 429 84 q 379 -110 429 -62 q 260 -159 330 -159 q 139 -109 190 -159 q 89 14 89 -60 q 142 138 89 90 q 264 187 196 187 m 262 -60 q 311 -40 288 -60 q 333 11 333 -20 q 311 66 333 45 q 258 87 290 87 q 208 66 229 87 q 187 12 187 45 q 212 -41 187 -22 q 262 -60 237 -60 z "},"〇":{"ha":1389,"x_min":201,"x_max":1316,"o":"m 762 1046 q 1152 885 988 1046 q 1316 483 1316 723 q 1149 85 1316 242 q 756 -73 983 -73 q 366 94 531 -73 q 201 486 201 261 q 360 878 201 709 q 762 1046 519 1046 m 1216 489 q 1082 811 1216 678 q 759 943 948 943 q 435 808 566 943 q 304 490 304 673 q 437 170 304 308 q 760 31 569 31 q 1082 163 947 31 q 1216 489 1216 295 z "},"〈":{"ha":1389,"x_min":836,"x_max":1242,"o":"m 1242 1151 l 958 484 l 1242 -180 l 1118 -180 l 836 483 l 1118 1151 l 1242 1151 z "},"〉":{"ha":1389,"x_min":151,"x_max":557,"o":"m 151 1149 l 275 1149 l 557 483 l 275 -180 l 151 -180 l 435 484 l 151 1149 z "},"《":{"ha":1389,"x_min":677,"x_max":1289,"o":"m 1289 1149 l 993 483 l 1289 -180 l 1179 -180 l 885 483 l 1179 1149 l 1289 1149 m 1084 1149 l 789 483 l 1084 -180 l 975 -180 l 677 483 l 975 1149 l 1084 1149 z "},"》":{"ha":1389,"x_min":106,"x_max":717,"o":"m 106 1149 l 215 1149 l 510 483 l 215 -180 l 106 -180 l 401 483 l 106 1149 m 310 1149 l 419 1149 l 717 483 l 419 -180 l 310 -180 l 607 483 l 310 1149 z "},"「":{"ha":1389,"x_min":890,"x_max":1280,"o":"m 1280 1149 l 1280 1045 l 1002 1045 l 1002 -178 l 890 -178 l 890 1149 l 1280 1149 z "},"」":{"ha":1389,"x_min":110,"x_max":501,"o":"m 110 -180 l 110 -74 l 389 -74 l 389 1149 l 501 1149 l 501 -180 l 110 -180 z "},"『":{"ha":1389,"x_min":821,"x_max":1284,"o":"m 1284 898 l 1075 898 l 1075 -180 l 821 -180 l 821 1151 l 1284 1151 l 1284 898 m 1202 987 l 1202 1065 l 908 1065 l 908 -92 l 987 -92 l 987 987 l 1202 987 z "},"』":{"ha":1389,"x_min":106,"x_max":571,"o":"m 106 72 l 315 72 l 315 1149 l 571 1149 l 571 -180 l 106 -180 l 106 72 m 189 -16 l 189 -94 l 482 -94 l 482 1063 l 403 1063 l 403 -16 l 189 -16 z "},"【":{"ha":1389,"x_min":783,"x_max":1254,"o":"m 1254 1149 q 1048 913 1155 1074 q 942 505 942 752 q 1242 -180 942 120 l 783 -180 l 783 1149 l 1254 1149 z "},"】":{"ha":1389,"x_min":138,"x_max":607,"o":"m 138 1149 l 607 1149 l 607 -180 l 150 -180 q 315 32 243 -85 q 417 256 387 149 q 448 503 448 363 q 342 913 448 752 q 138 1149 235 1075 z "},"〔":{"ha":1389,"x_min":888,"x_max":1253,"o":"m 1253 1054 l 996 928 l 996 48 l 1250 -81 l 1198 -178 l 888 -18 l 888 997 l 1203 1151 l 1253 1054 z "},"〕":{"ha":1389,"x_min":138,"x_max":503,"o":"m 138 1054 l 187 1151 l 503 997 l 503 -18 l 193 -180 l 142 -81 l 395 48 l 395 928 l 138 1054 z "},"〖":{"ha":1389,"x_min":766,"x_max":1295,"o":"m 1295 1149 q 1128 843 1189 1032 q 1067 467 1067 654 q 1122 111 1067 287 q 1278 -178 1177 -64 l 766 -178 l 766 1149 l 1295 1149 m 1103 1054 l 872 1054 l 872 -84 l 1089 -84 q 995 163 1028 13 q 962 465 962 314 q 1000 782 962 612 q 1103 1054 1038 952 z "},"〗":{"ha":1389,"x_min":97,"x_max":624,"o":"m 97 1149 l 624 1149 l 624 -178 l 113 -178 q 270 114 214 -64 q 325 473 325 291 q 264 840 325 649 q 97 1149 203 1031 m 288 1054 q 390 786 351 954 q 429 464 429 619 q 395 162 429 311 q 301 -84 362 12 l 518 -84 l 518 1054 l 288 1054 z "},"〘":{"ha":1389,"x_min":879,"x_max":1297,"o":"m 1297 1061 l 1174 985 l 1174 -17 l 1291 -95 l 1231 -181 l 879 48 l 879 936 l 1238 1149 l 1297 1061 m 1074 47 l 1074 927 l 979 870 l 979 109 l 1074 47 z "},"〙":{"ha":1389,"x_min":94,"x_max":511,"o":"m 94 1061 l 154 1149 l 511 936 l 511 48 l 160 -181 l 100 -95 l 218 -17 l 218 985 l 94 1061 m 317 47 l 412 109 l 412 870 l 317 927 l 317 47 z "},"〚":{"ha":1389,"x_min":878,"x_max":1279,"o":"m 1279 1054 l 1165 1054 l 1165 -83 l 1279 -83 l 1279 -180 l 878 -180 l 878 1151 l 1279 1151 l 1279 1054 m 1068 -83 l 1068 1054 l 977 1054 l 977 -83 l 1068 -83 z "},"〛":{"ha":1389,"x_min":111,"x_max":513,"o":"m 111 1054 l 111 1151 l 513 1151 l 513 -180 l 111 -180 l 111 -83 l 225 -83 l 225 1054 l 111 1054 m 322 -83 l 414 -83 l 414 1054 l 322 1054 l 322 -83 z "},"卍":{"ha":1085,"x_min":68,"x_max":1017,"o":"m 1017 -136 l 485 -136 l 485 417 l 183 417 l 183 -136 l 68 -136 l 68 532 l 485 532 l 485 970 l 68 970 l 68 1085 l 600 1085 l 600 532 l 902 532 l 902 1085 l 1017 1085 l 1017 417 l 600 417 l 600 -20 l 1017 -20 l 1017 -136 z "},"卐":{"ha":1085,"x_min":68,"x_max":1017,"o":"m 68 -20 l 485 -20 l 485 417 l 68 417 l 68 1085 l 183 1085 l 183 532 l 485 532 l 485 1085 l 1017 1085 l 1017 970 l 600 970 l 600 532 l 1017 532 l 1017 -136 l 902 -136 l 902 417 l 600 417 l 600 -136 l 68 -136 l 68 -20 z "},"︀":{"ha":1221,"x_min":111,"x_max":1109,"o":"m 1000 698 l 1000 635 l 963 635 l 963 361 l 1000 361 l 1000 298 l 857 298 l 857 361 l 893 361 l 893 635 l 857 635 l 857 698 l 1000 698 m 549 698 l 421 298 l 342 298 l 216 698 l 293 698 l 380 389 l 474 698 l 549 698 m 566 401 q 595 382 579 390 q 626 368 610 374 q 655 360 641 363 q 680 357 669 357 q 730 369 714 357 q 747 402 747 380 q 724 440 747 425 q 667 473 701 456 q 627 494 646 483 q 596 519 609 505 q 575 550 583 532 q 567 591 567 568 q 579 642 567 621 q 611 676 591 663 q 657 697 631 690 q 709 704 683 704 q 804 686 767 704 l 804 607 q 754 631 779 625 q 705 638 729 638 q 681 636 693 638 q 660 628 669 633 q 645 615 650 623 q 639 595 639 607 q 658 560 639 574 q 713 529 677 546 q 753 506 734 517 q 787 479 772 494 q 810 447 802 465 q 819 405 819 429 q 807 353 819 374 q 777 318 795 332 q 734 298 758 304 q 686 292 710 292 q 625 297 656 292 q 566 319 593 303 l 566 401 m 1109 781 l 1043 781 l 1043 930 l 892 930 l 892 998 l 1109 998 l 1109 781 m 721 930 l 501 930 l 501 998 l 721 998 l 721 930 m 330 930 l 179 930 l 179 781 l 111 781 l 111 998 l 330 998 l 330 930 m 1109 391 l 1043 391 l 1043 608 l 1109 608 l 1109 391 m 179 391 l 111 391 l 111 608 l 179 608 l 179 391 m 1109 0 l 892 0 l 892 68 l 1043 68 l 1043 220 l 1109 220 l 1109 0 m 330 0 l 111 0 l 111 220 l 179 220 l 179 68 l 330 68 l 330 0 m 721 0 l 501 0 l 501 68 l 721 68 l 721 0 z "},"ꡀ":{"ha":1248,"x_min":68,"x_max":1180,"o":"m 183 532 l 1180 532 l 1180 417 l 183 417 l 183 115 l 1180 115 l 1180 0 l 737 0 l 737 -136 l 620 -136 l 620 0 l 183 0 l 183 -136 l 68 -136 l 68 1085 l 1180 1085 l 1180 970 l 183 970 l 183 532 z "},"ꡁ":{"ha":1249,"x_min":68,"x_max":1181,"o":"m 454 1085 l 1181 1085 l 1181 304 l 454 304 l 454 644 l 183 644 l 183 -21 l 1180 -21 l 1180 -136 l 68 -136 l 68 1085 l 183 1085 l 183 759 l 454 759 l 454 1085 m 571 420 l 1060 420 l 1060 969 l 571 969 l 571 420 z "},"ꡂ":{"ha":1249,"x_min":68,"x_max":1181,"o":"m 454 190 l 183 190 l 183 -136 l 68 -136 l 68 1085 l 1180 1085 l 1180 970 l 183 970 l 183 305 l 454 305 l 454 644 l 1181 644 l 1181 -136 l 454 -136 l 454 190 m 571 -20 l 1060 -20 l 1060 528 l 571 528 l 571 -20 z "},"ꡃ":{"ha":1085,"x_min":68,"x_max":1017,"o":"m 183 -136 l 68 -136 l 68 1085 l 600 1085 l 600 -20 l 902 -20 l 902 1085 l 1017 1085 l 1017 -136 l 485 -136 l 485 970 l 183 970 l 183 -136 z "},"ꡄ":{"ha":1085,"x_min":68,"x_max":1017,"o":"m 183 -136 l 68 -136 l 68 1085 l 1017 1085 l 1017 -136 l 485 -136 l 485 970 l 183 970 l 183 -136 m 902 970 l 600 970 l 600 -20 l 902 -20 l 902 970 z "},"ꡅ":{"ha":1085,"x_min":68,"x_max":1017,"o":"m 474 417 l 183 417 l 183 -136 l 68 -136 l 68 1085 l 183 1085 l 183 532 l 474 532 l 474 1085 l 1017 1085 l 1017 -136 l 474 -136 l 474 417 m 591 -20 l 897 -20 l 897 417 l 591 417 l 591 -20 m 897 969 l 591 969 l 591 532 l 897 532 l 897 969 z "},"ꡆ":{"ha":1085,"x_min":68,"x_max":1017,"o":"m 485 -20 l 485 1085 l 600 1085 l 600 -20 l 902 -20 l 902 1085 l 1017 1085 l 1017 -136 l 68 -136 l 68 1085 l 183 1085 l 183 -20 l 485 -20 z "},"ꡇ":{"ha":1085,"x_min":68,"x_max":1017,"o":"m 68 1085 l 1017 1085 l 1017 970 l 613 970 l 842 532 l 1017 532 l 1017 417 l 777 417 l 484 970 l 183 970 l 183 -20 l 1017 -20 l 1017 -136 l 68 -136 l 68 1085 z "},"ꡈ":{"ha":1096,"x_min":68,"x_max":1028,"o":"m 1028 970 l 1008 970 q 972 965 991 970 q 936 950 954 960 q 904 929 919 941 q 878 903 888 917 q 818 937 850 922 q 753 960 789 949 q 675 970 716 970 q 573 958 614 970 q 505 922 531 945 q 467 864 479 899 q 455 784 455 829 q 469 701 455 740 q 507 630 484 662 q 561 573 530 597 q 624 532 591 548 l 1017 532 l 1017 417 l 183 417 l 183 -20 l 1017 -20 l 1017 -136 l 68 -136 l 68 1085 l 183 1085 l 183 532 l 477 532 q 429 572 453 547 q 384 631 404 597 q 352 707 364 665 q 339 798 339 749 q 360 913 339 861 q 421 1004 380 966 q 523 1064 462 1042 q 665 1085 584 1085 q 737 1078 705 1085 q 795 1062 770 1072 q 841 1042 821 1053 q 875 1025 861 1032 q 901 1049 886 1038 q 932 1068 916 1060 q 968 1081 949 1076 q 1004 1085 987 1085 l 1028 1085 l 1028 970 z "},"ꡉ":{"ha":1085,"x_min":68,"x_max":1017,"o":"m 481 -135 q 426 -80 460 -110 q 351 -22 392 -50 q 267 27 311 5 q 183 58 223 50 l 183 -135 l 68 -135 l 68 1085 l 1017 1085 l 1017 970 l 949 970 l 949 -135 l 862 -135 q 807 -80 841 -110 q 733 -23 773 -50 q 650 27 693 5 q 566 58 606 49 l 566 -135 l 481 -135 m 566 174 q 637 151 600 167 q 711 115 675 135 q 779 71 747 94 q 834 26 811 48 l 834 970 l 566 970 l 566 174 m 183 174 q 254 151 217 167 q 328 115 292 136 q 396 72 363 95 q 451 26 428 49 l 451 970 l 183 970 l 183 174 z "},"ꡊ":{"ha":814,"x_min":68,"x_max":746,"o":"m 68 1085 l 183 1085 l 183 173 q 254 150 217 165 q 328 114 292 134 q 396 71 364 94 q 451 26 428 47 l 451 784 q 469 912 451 856 q 523 1006 488 968 q 612 1065 559 1045 q 734 1085 665 1085 l 746 1085 l 746 970 l 734 970 q 607 923 648 970 q 566 780 566 877 l 566 -136 l 479 -136 q 425 -81 458 -111 q 350 -24 391 -52 q 267 25 310 3 q 183 57 223 47 l 183 -136 l 68 -136 l 68 1085 z "},"ꡋ":{"ha":1085,"x_min":68,"x_max":1017,"o":"m 1017 1085 l 1017 970 l 1017 970 l 1017 969 l 769 674 q 863 591 818 637 q 942 489 908 545 q 997 364 977 432 q 1017 217 1017 296 q 994 83 1017 147 q 927 -29 971 20 q 821 -107 884 -78 q 680 -136 759 -136 q 547 -111 606 -136 q 445 -42 487 -85 q 379 59 402 1 q 357 185 357 118 q 370 287 357 238 q 409 387 382 336 q 475 491 435 437 q 568 608 515 545 l 872 970 l 183 970 l 183 -136 l 68 -136 l 68 1085 l 1017 1085 m 901 218 q 884 342 901 286 q 839 444 867 398 q 775 528 811 490 q 703 595 740 565 l 645 527 q 563 420 595 468 q 510 333 530 373 q 483 257 491 292 q 475 185 475 221 q 489 107 475 144 q 529 42 503 70 q 593 -3 555 14 q 680 -20 631 -20 q 770 -4 730 -20 q 840 41 811 11 q 885 115 869 71 q 901 218 901 159 z "},"ꡌ":{"ha":1085,"x_min":68,"x_max":1017,"o":"m 485 -136 l 485 417 l 183 417 l 183 -136 l 68 -136 l 68 532 l 600 532 l 600 -20 l 902 -20 l 902 970 l 68 970 l 68 1085 l 1017 1085 l 1017 -136 l 485 -136 z "},"ꡍ":{"ha":1153,"x_min":68,"x_max":1085,"o":"m 1085 1085 l 1085 140 q 1009 -67 1085 1 q 780 -136 932 -136 q 643 -118 700 -136 q 551 -66 587 -101 q 499 21 515 -32 q 483 145 483 74 l 483 298 q 454 384 483 351 q 369 417 426 417 l 183 417 l 183 -136 l 68 -136 l 68 1085 l 1085 1085 m 183 532 l 370 532 q 473 519 430 532 q 544 477 516 505 q 585 406 572 449 q 598 302 598 362 l 598 143 q 610 66 598 97 q 644 15 621 35 q 701 -12 667 -4 q 781 -20 735 -20 q 858 -12 823 -20 q 918 15 892 -4 q 956 66 943 35 q 970 143 970 97 l 970 970 l 183 970 l 183 532 z "},"ꡎ":{"ha":1153,"x_min":68,"x_max":1085,"o":"m 1085 1085 l 1085 -136 l 519 -136 l 519 417 l 183 417 l 183 -136 l 68 -136 l 68 1085 l 1085 1085 m 183 532 l 634 532 l 634 -20 l 970 -20 l 970 970 l 183 970 l 183 532 z "},"ꡏ":{"ha":1126,"x_min":68,"x_max":1058,"o":"m 68 1085 l 1058 1085 l 1058 970 l 1058 969 l 775 636 q 907 556 853 603 q 995 455 961 510 q 1043 340 1028 400 q 1058 217 1058 279 q 1035 83 1058 147 q 968 -29 1012 20 q 862 -107 924 -78 q 720 -136 800 -136 q 589 -114 648 -136 q 487 -51 530 -92 q 421 50 444 -9 q 397 183 397 109 q 408 282 397 236 q 439 372 418 328 q 493 461 460 416 q 568 557 525 507 l 183 557 l 183 -136 l 68 -136 l 68 673 l 665 673 l 920 970 l 68 970 l 68 1085 m 942 216 q 929 316 942 269 q 887 406 916 364 q 812 483 859 448 q 699 545 766 518 l 688 534 q 604 433 637 479 q 549 346 570 387 q 521 266 529 304 q 513 186 513 227 q 528 102 513 140 q 570 37 543 64 q 636 -5 597 9 q 722 -20 675 -20 q 812 -5 771 -20 q 881 39 852 9 q 926 113 910 68 q 942 216 942 157 z "},"ꡐ":{"ha":1085,"x_min":68,"x_max":1017,"o":"m 68 -136 l 68 1085 l 1017 1085 l 1017 970 l 668 970 l 668 816 q 839 770 771 809 q 946 671 906 732 q 1001 534 985 611 q 1017 373 1017 457 q 986 165 1017 259 q 894 5 954 72 q 745 -99 833 -62 q 543 -136 656 -136 l 415 -136 l 415 -20 l 540 -20 q 683 -2 616 -20 q 797 61 749 16 q 873 182 846 106 q 901 372 901 258 q 884 530 901 467 q 836 631 867 593 q 759 685 804 669 q 654 701 713 701 q 562 688 600 701 q 500 647 524 674 q 466 578 477 619 q 456 480 456 536 q 462 396 456 429 q 479 342 468 362 q 507 313 490 321 q 543 305 523 305 q 595 336 578 305 q 612 435 612 367 l 728 435 q 714 320 728 366 q 676 246 701 274 q 617 207 652 218 q 541 195 583 195 q 470 206 504 195 q 410 243 437 217 q 366 311 383 269 q 342 417 348 354 l 183 417 l 183 -136 l 68 -136 m 183 532 l 342 532 q 359 632 343 586 q 402 714 375 678 q 468 773 430 749 q 553 807 507 798 l 553 970 l 183 970 l 183 532 z "},"ꡑ":{"ha":1085,"x_min":68,"x_max":1017,"o":"m 903 205 q 897 283 903 245 q 870 351 891 321 q 810 399 850 381 q 703 417 770 417 l 361 417 l 736 970 l 183 970 l 183 -136 l 68 -136 l 68 1085 l 1017 1085 l 1017 970 l 869 970 l 574 532 l 696 532 q 842 510 781 532 q 942 445 903 487 q 999 341 981 402 q 1017 205 1017 281 q 999 57 1017 121 q 942 -50 981 -7 q 843 -114 903 -92 q 698 -136 783 -136 l 391 -136 l 391 -20 l 703 -20 q 810 -2 770 -20 q 870 47 850 16 q 897 119 891 79 q 903 205 903 160 z "},"ꡒ":{"ha":1085,"x_min":68,"x_max":1017,"o":"m 1017 1085 l 1017 -136 l 902 -136 l 902 417 l 600 417 l 600 -136 l 485 -136 l 485 150 l 183 150 l 183 -136 l 68 -136 l 68 1085 l 1017 1085 m 183 257 l 485 257 l 485 532 l 902 532 l 902 970 l 183 970 l 183 257 z "},"ꡓ":{"ha":1085,"x_min":68,"x_max":1017,"o":"m 545 1085 l 545 984 l 836 1031 l 836 1085 l 951 1085 l 951 68 l 834 68 l 834 115 l 545 169 l 545 68 l 430 68 l 430 519 l 183 519 l 183 -20 l 1017 -20 l 1017 -136 l 68 -136 l 68 1085 l 183 1085 l 183 635 l 430 635 l 430 1085 l 545 1085 m 836 233 l 836 916 l 545 865 l 545 288 l 836 233 z "},"ꡔ":{"ha":1153,"x_min":68,"x_max":1085,"o":"m 1085 1085 l 1085 970 l 1034 970 q 977 969 1001 970 q 934 965 953 968 q 899 960 915 963 q 866 952 884 956 q 1023 806 970 892 q 1076 604 1076 720 q 1055 479 1076 535 q 992 384 1034 423 q 888 322 950 344 q 743 300 826 300 q 611 320 672 300 q 506 378 550 340 q 437 473 462 416 q 412 604 412 530 q 425 698 412 650 q 464 790 439 746 q 527 874 490 835 q 610 943 564 913 q 564 955 586 949 q 518 963 542 960 q 469 968 495 966 q 410 970 443 970 l 183 970 l 183 -20 l 1085 -20 l 1085 -136 l 68 -136 l 68 1085 l 408 1085 q 572 1069 487 1085 q 734 1022 657 1053 q 798 1049 766 1037 q 866 1069 830 1061 q 945 1081 903 1077 q 1040 1085 987 1085 l 1085 1085 m 958 610 q 944 700 958 656 q 903 781 930 743 q 834 849 876 819 q 736 903 792 880 q 644 844 683 878 q 579 772 605 810 q 542 691 554 733 q 529 608 529 649 q 545 527 529 562 q 589 466 560 491 q 656 429 617 441 q 743 416 696 416 q 902 466 846 416 q 958 610 958 517 z "},"ꡕ":{"ha":1085,"x_min":68,"x_max":1017,"o":"m 183 -136 l 68 -136 l 68 1085 l 1017 1085 l 1017 -136 l 902 -136 l 902 970 l 600 970 l 600 -136 l 485 -136 l 485 970 l 183 970 l 183 -136 z "},"ꡖ":{"ha":1085,"x_min":68,"x_max":1017,"o":"m 68 1085 l 600 1085 l 600 532 l 902 532 l 902 1085 l 1017 1085 l 1017 417 l 485 417 l 485 970 l 183 970 l 183 -20 l 1017 -20 l 1017 -136 l 68 -136 l 68 1085 z "},"ꡗ":{"ha":1085,"x_min":68,"x_max":1017,"o":"m 792 532 q 1017 287 1017 532 l 1017 110 q 792 -136 1017 -136 l 68 -136 l 68 -20 l 789 -20 q 877 13 851 -20 q 902 113 902 47 l 902 283 q 877 384 902 350 q 789 417 851 417 l 68 417 l 68 532 l 445 532 l 862 970 l 68 970 l 68 1085 l 1017 1085 l 1017 971 l 597 532 l 792 532 z "},"ꡘ":{"ha":814,"x_min":68,"x_max":746,"o":"m 746 1085 l 746 -136 l 631 -136 l 631 417 l 183 417 l 183 -136 l 68 -136 l 68 1085 l 183 1085 l 183 533 l 631 533 l 631 1085 l 746 1085 z "},"ꡙ":{"ha":1085,"x_min":68,"x_max":1017,"o":"m 599 385 l 902 385 l 902 970 l 68 970 l 68 1085 l 1017 1085 l 1017 270 l 484 270 l 484 620 l 183 620 l 183 -20 l 1017 -20 l 1017 -136 l 68 -136 l 68 735 l 599 735 l 599 385 z "},"ꡚ":{"ha":1085,"x_min":68,"x_max":1017,"o":"m 1017 1085 l 1017 970 l 183 970 l 183 -20 l 485 -20 l 485 532 l 1017 532 l 1017 -136 l 902 -136 l 902 417 l 600 417 l 600 -136 l 68 -136 l 68 1085 l 1017 1085 z "},"ꡛ":{"ha":1085,"x_min":68,"x_max":1017,"o":"m 183 -7 l 68 -7 l 68 646 l 183 646 l 183 484 l 687 970 l 68 970 l 68 1085 l 1017 1085 l 1017 970 l 851 970 l 181 328 l 498 142 l 789 452 l 789 287 l 519 0 l 183 193 l 183 -7 z "},"ꡜ":{"ha":1356,"x_min":68,"x_max":1289,"o":"m 854 970 q 689 945 754 970 q 586 882 624 920 q 533 798 548 844 q 517 711 517 753 q 520 654 517 682 q 533 598 524 627 q 559 538 543 569 q 604 472 576 507 q 673 396 632 437 q 769 305 713 355 l 865 220 l 598 -125 l 183 85 l 183 -136 l 68 -136 l 68 1085 l 183 1085 l 183 214 l 565 20 l 707 203 q 557 349 616 283 q 463 474 498 414 q 415 592 429 534 q 401 711 401 650 q 410 794 401 751 q 438 878 418 837 q 491 957 458 920 q 572 1023 524 995 q 686 1068 621 1052 q 836 1085 751 1085 q 927 1078 880 1085 q 1016 1062 974 1072 q 1089 1042 1057 1053 q 1135 1025 1121 1032 q 1199 1068 1162 1051 q 1278 1085 1236 1085 l 1289 1085 l 1289 970 l 1278 970 q 1240 964 1260 970 q 1202 949 1221 958 q 1167 928 1183 940 q 1139 903 1151 916 q 1059 937 1103 922 q 969 960 1021 950 q 854 970 918 970 z "},"ꡝ":{"ha":1085,"x_min":68,"x_max":1017,"o":"m 183 814 l 183 638 l 781 970 l 68 970 l 68 1085 l 1017 1085 l 1017 968 l 183 508 l 441 376 q 504 442 471 413 q 572 491 536 471 q 648 522 608 511 q 734 532 688 532 q 854 511 802 532 q 943 448 907 489 q 998 347 979 406 q 1017 211 1017 287 q 999 62 1017 127 q 942 -46 981 -2 q 843 -113 903 -90 q 698 -136 783 -136 l 68 -136 l 68 -20 l 696 -20 q 804 -1 763 -20 q 867 51 845 18 q 896 124 888 83 q 903 211 903 166 q 895 289 903 252 q 868 355 888 326 q 816 400 849 383 q 732 417 783 417 q 660 407 694 417 q 592 375 625 397 q 526 321 559 354 q 454 241 492 288 l 183 378 l 183 203 l 68 203 l 68 814 l 183 814 z "},"ꡞ":{"ha":1085,"x_min":68,"x_max":1017,"o":"m 901 203 q 895 280 901 245 q 880 348 890 315 q 854 412 869 380 q 819 477 839 444 l 920 532 q 992 376 967 456 q 1017 201 1017 295 q 994 70 1017 132 q 928 -37 971 9 q 825 -109 886 -83 q 687 -136 764 -136 q 552 -112 613 -136 q 448 -43 491 -87 q 381 64 405 1 q 357 203 357 126 q 369 308 357 255 q 409 420 380 361 q 487 547 438 479 q 610 694 536 614 l 866 970 l 183 970 l 183 -136 l 68 -136 l 68 1085 l 1017 1085 l 1017 970 l 1017 970 l 1017 969 l 724 655 q 614 529 661 588 q 537 416 568 471 q 490 310 506 362 q 475 205 475 258 q 488 115 475 156 q 527 43 500 73 q 594 -4 553 13 q 688 -20 634 -20 q 782 -2 742 -20 q 848 46 821 16 q 887 117 874 77 q 901 203 901 158 z "},"ꡟ":{"ha":1213,"x_min":68,"x_max":1145,"o":"m 613 218 q 523 231 566 218 q 447 269 481 243 q 389 331 413 294 q 356 417 366 368 l 183 417 l 183 -136 l 68 -136 l 68 1085 l 183 1085 l 183 532 l 341 532 q 364 700 340 622 q 436 837 388 779 q 557 928 485 895 q 727 962 630 962 q 901 933 824 962 q 1033 846 979 904 q 1116 699 1086 787 q 1145 493 1145 611 q 1114 258 1145 365 q 1024 74 1083 151 q 879 -46 965 -3 q 684 -89 793 -89 l 560 -89 l 560 26 l 680 26 q 835 59 770 26 q 943 153 901 92 q 1007 301 986 214 q 1028 495 1028 387 q 1005 662 1028 595 q 941 771 981 730 q 845 829 900 812 q 727 846 790 846 q 611 824 661 846 q 527 761 560 801 q 476 668 493 722 q 458 551 458 614 q 470 450 458 492 q 503 381 481 408 q 554 341 524 354 q 623 329 585 329 q 660 330 644 329 q 687 332 675 330 q 706 335 698 333 q 721 338 714 336 l 720 228 q 679 221 705 224 q 613 218 653 218 z "},"ꡠ":{"ha":1016,"x_min":68,"x_max":948,"o":"m 936 172 l 660 -136 l 539 -136 l 539 970 l 183 970 l 183 -136 l 68 -136 l 68 1085 l 948 1085 l 948 970 l 654 970 l 654 19 l 791 172 l 936 172 z "},"ꡡ":{"ha":833,"x_min":68,"x_max":765,"o":"m 183 534 l 257 534 q 394 663 334 597 q 498 797 453 728 q 576 937 543 865 q 635 1085 610 1008 l 765 1085 q 698 925 736 1006 q 607 765 659 844 q 489 612 555 686 q 339 473 422 538 q 495 342 428 416 q 612 188 562 269 q 699 23 663 106 q 763 -136 736 -60 l 633 -136 q 575 13 607 -58 q 499 152 543 85 q 397 284 456 220 q 257 414 338 349 l 183 414 l 183 -136 l 68 -136 l 68 1085 l 183 1085 l 183 534 z "},"ꡢ":{"ha":1085,"x_min":68,"x_max":1017,"o":"m 1017 -20 l 1017 -136 l 68 -136 l 68 1085 l 747 1085 l 747 254 l 627 254 l 183 415 l 183 -20 l 1017 -20 m 631 375 l 631 970 l 183 970 l 183 538 l 631 375 z "},"ꡣ":{"ha":1085,"x_min":68,"x_max":1017,"o":"m 1017 -20 l 1017 -136 l 68 -136 l 68 1085 l 895 1085 l 895 217 l 794 217 q 743 275 770 245 q 683 332 715 305 q 615 380 651 359 q 539 410 579 401 l 539 217 l 441 217 q 389 275 417 245 q 329 332 361 305 q 260 380 296 359 q 183 410 223 401 l 183 -20 l 1017 -20 m 539 526 q 606 504 573 519 q 670 471 640 490 q 729 430 701 452 q 780 386 757 408 l 780 970 l 539 970 l 539 526 m 183 526 q 250 504 217 519 q 314 471 283 490 q 373 431 345 452 q 424 387 401 409 l 424 970 l 183 970 l 183 526 z "},"ꡤ":{"ha":1356,"x_min":68,"x_max":1289,"o":"m 1165 1085 l 1289 1085 l 1289 -136 l 814 814 q 734 914 779 883 q 631 945 690 945 q 556 930 588 945 q 502 889 524 916 q 469 828 480 863 q 458 751 458 793 q 474 647 458 694 q 527 548 490 599 q 623 440 564 498 q 769 305 682 382 l 865 220 l 598 -125 l 183 85 l 183 -136 l 68 -136 l 68 1085 l 183 1085 l 183 229 l 564 35 l 694 202 q 581 306 631 258 q 492 397 531 354 q 425 482 453 441 q 378 565 397 523 q 351 653 360 608 q 342 751 342 699 q 362 878 342 821 q 418 976 381 935 q 508 1038 454 1016 q 631 1060 562 1060 q 753 1044 703 1060 q 841 1000 802 1028 l 1165 1085 m 904 896 l 1173 358 l 1173 970 l 904 896 z "},"ꡥ":{"ha":1085,"x_min":68,"x_max":1017,"o":"m 627 674 l 747 674 l 747 -136 l 68 -136 l 68 1085 l 1017 1085 l 1017 970 l 183 970 l 183 513 l 627 674 m 631 -20 l 631 553 l 183 390 l 183 -20 l 631 -20 z "},"ꡦ":{"ha":857,"x_min":68,"x_max":789,"o":"m 68 1085 l 183 1085 l 183 -21 l 494 -21 l 494 784 q 513 912 494 856 q 567 1006 531 968 q 655 1065 602 1045 q 777 1085 708 1085 l 789 1085 l 789 970 l 778 970 q 650 923 691 970 q 610 780 610 877 l 610 -136 l 68 -136 l 68 1085 z "},"ꡧ":{"ha":877,"x_min":68,"x_max":809,"o":"m 68 1085 l 809 1085 l 809 -136 l 68 1085 m 272 970 l 694 271 l 694 970 l 272 970 z "},"ꡨ":{"ha":816,"x_min":68,"x_max":748,"o":"m 198 1085 q 248 944 228 1013 q 281 806 269 874 q 299 670 294 738 q 304 532 304 602 q 296 369 304 448 q 274 224 287 290 q 248 107 262 157 q 222 29 233 56 q 310 68 263 41 q 402 137 356 95 q 489 235 448 178 q 562 364 530 292 q 613 524 594 436 q 632 717 632 612 l 632 1085 l 748 1085 l 748 717 q 725 489 748 594 q 658 295 701 383 q 553 136 614 207 q 416 12 492 66 q 253 -78 340 -41 q 68 -136 165 -115 q 157 191 126 28 q 188 525 188 354 q 182 664 188 595 q 163 803 177 733 q 127 943 150 873 q 69 1085 104 1013 l 198 1085 z "},"ꡩ":{"ha":1096,"x_min":68,"x_max":1028,"o":"m 1028 -20 l 1028 -136 l 1018 -136 q 977 -130 997 -136 q 938 -116 956 -125 q 904 -97 920 -108 q 875 -76 888 -86 q 841 -93 861 -83 q 795 -113 821 -103 q 737 -129 770 -122 q 665 -136 705 -136 q 523 -114 584 -136 q 421 -55 462 -93 q 360 36 380 -17 q 339 152 339 89 q 353 242 339 200 q 388 318 367 284 q 435 377 410 352 q 485 417 461 402 l 183 417 l 183 -136 l 68 -136 l 68 1085 l 1017 1085 l 1017 970 l 183 970 l 183 532 l 1017 532 l 1017 417 l 628 417 q 564 377 595 401 q 509 319 533 352 q 470 247 484 287 q 455 161 455 208 q 467 84 455 118 q 504 27 478 50 q 572 -8 530 3 q 674 -20 614 -20 q 752 -10 715 -20 q 817 14 789 1 q 878 47 850 28 q 906 25 890 37 q 941 3 922 14 q 979 -14 960 -7 q 1017 -20 999 -20 l 1028 -20 z "},"ꡪ":{"ha":1085,"x_min":68,"x_max":1017,"o":"m 566 1085 l 566 892 q 650 924 606 902 q 733 973 693 945 q 807 1030 773 1000 q 862 1085 841 1060 l 949 1085 l 949 -20 l 1017 -20 l 1017 -135 l 68 -135 l 68 1085 l 183 1085 l 183 892 q 267 923 223 901 q 351 972 311 945 q 426 1030 392 1000 q 481 1085 460 1060 l 566 1085 m 566 -20 l 834 -20 l 834 924 q 779 879 811 902 q 711 836 747 856 q 637 800 675 815 q 566 777 600 784 l 566 -20 m 451 -20 l 451 924 q 396 878 428 901 q 328 835 363 855 q 254 799 292 814 q 183 777 217 784 l 183 -20 l 451 -20 z "},"ꡫ":{"ha":814,"x_min":68,"x_max":746,"o":"m 68 1085 l 183 1085 l 183 892 q 267 924 223 903 q 350 974 310 946 q 425 1030 391 1001 q 479 1085 458 1060 l 566 1085 l 566 170 q 607 26 566 73 q 734 -20 648 -20 l 746 -20 l 746 -136 l 734 -136 q 612 -116 665 -136 q 523 -57 559 -96 q 469 38 488 -18 q 451 165 451 94 l 451 924 q 396 879 428 902 q 328 836 364 856 q 254 800 292 816 q 183 777 217 784 l 183 -136 l 68 -136 l 68 1085 z "},"ꡬ":{"ha":1085,"x_min":68,"x_max":1017,"o":"m 68 -136 l 68 1085 l 183 1085 l 183 -20 l 872 -20 l 536 379 q 459 477 492 431 q 402 570 425 524 q 368 664 380 616 q 357 764 357 711 q 381 890 357 831 q 449 992 406 949 q 554 1060 493 1035 q 689 1085 616 1085 q 829 1056 768 1085 q 932 979 890 1027 q 996 866 974 930 q 1017 732 1017 802 q 997 585 1017 653 q 942 461 977 517 q 863 358 908 404 q 769 275 818 312 l 1017 -20 l 1017 -20 l 1017 -20 l 1017 -136 l 68 -136 m 902 732 q 886 835 902 790 q 842 909 870 880 q 775 955 814 939 q 689 970 736 970 q 597 953 637 970 q 529 908 557 937 q 487 842 501 880 q 473 764 473 805 q 481 693 473 729 q 509 617 489 657 q 561 530 528 577 q 642 426 593 484 l 703 355 q 776 422 740 385 q 840 505 812 459 q 885 608 867 551 q 902 732 902 664 z "}}}
